<?xml version="1.0" standalone="no"?>
<!DOCTYPE svg PUBLIC "-//W3C//DTD SVG 1.1//EN" "http://www.w3.org/Graphics/SVG/1.1/DTD/svg11.dtd" >
<svg xmlns="http://www.w3.org/2000/svg" xmlns:xlink="http://www.w3.org/1999/xlink" version="1.1">
<metadata>
Created by FontForge 20200314 at Tue Oct 24 23:46:44 2017
 By Unknown
Copyright (c) 2017 by Gayane Bagdasaryan, Vyacheslav Kirilenko. All rights reserved.
</metadata>
<defs>
<font id="Aeroport-LightItalic" horiz-adv-x="620" >
  <font-face 
    font-family="Aeroport Light"
    font-weight="300"
    font-style="italic"
    font-stretch="normal"
    units-per-em="1000"
    panose-1="2 0 0 0 0 0 0 0 0 0"
    ascent="800"
    descent="-200"
    x-height="452"
    cap-height="664"
    bbox="-237 -223 1320 1006"
    underline-thickness="50"
    underline-position="-100"
    slope="-12"
    unicode-range="U+000D-FB02"
  />
<missing-glyph 
d="M230 664h442l-141 -664h-442zM475 63l114 538h-304l-114 -538h304z" />
    <glyph glyph-name=".notdef" 
d="M230 664h442l-141 -664h-442zM475 63l114 538h-304l-114 -538h304z" />
    <glyph glyph-name=".null" horiz-adv-x="0" 
 />
    <glyph glyph-name=".null" horiz-adv-x="0" 
 />
    <glyph glyph-name="nonmarkingreturn" unicode="&#xd;" horiz-adv-x="240" 
 />
    <glyph glyph-name="space" unicode=" " horiz-adv-x="240" 
 />
    <glyph glyph-name="exclam" unicode="!" horiz-adv-x="311" 
d="M229 196h-66l100 468h66zM132 81h81l-17 -81h-81z" />
    <glyph glyph-name="quotedbl" unicode="&#x22;" horiz-adv-x="328" 
d="M351 664h66l-53 -249h-66zM193 664h66l-53 -249h-66z" />
    <glyph glyph-name="numbersign" unicode="#" horiz-adv-x="662" 
d="M320 476l90 188h69l-90 -188h162l90 188h69l-90 -188h138l-14 -63h-155l-79 -164h137l-13 -63h-154l-88 -186h-69l88 186h-162l-88 -186h-69l88 186h-135l13 63h152l79 164h-135l14 63h152zM279 249h162l79 164h-162z" />
    <glyph glyph-name="dollar" unicode="$" horiz-adv-x="566" 
d="M410 355q75 -14 118 -53.5t43 -101.5q0 -38 -17 -74.5t-49.5 -66.5t-80 -49.5t-108.5 -22.5h-11l-27 -119h-69l27 125q-39 7 -69 25.5t-51 41.5t-34 48t-18 47h74q15 -44 56.5 -74.5t112.5 -30.5q42 0 77.5 11.5t62 31.5t41 47t14.5 59q0 41 -34.5 62t-98.5 33l-85 16
q-69 13 -106.5 53t-37.5 94q0 47 18 86t50.5 67.5t76.5 45.5t96 20l25 119h69l-25 -122q40 -6 71.5 -23.5t54 -41.5t36 -50.5t19.5 -49.5h-73q-14 43 -56.5 74.5t-108.5 31.5q-44 0 -78.5 -13t-58 -34.5t-35.5 -48.5t-12 -55q0 -39 29.5 -60t77.5 -30l94 -18v0z" />
    <glyph glyph-name="percent" unicode="%" horiz-adv-x="865" 
d="M201 0l531 664h76l-531 -664h-76zM346 671q34 0 62 -12t48 -32.5t30.5 -47.5t10.5 -56q0 -36 -15 -69t-40.5 -57.5t-59.5 -39t-73 -14.5q-35 0 -62.5 12t-47.5 32.5t-30.5 47.5t-10.5 56q0 36 14.5 69t40 57.5t60 39t73.5 14.5zM315 403q24 0 45 9.5t36.5 26t25 37
t9.5 43.5q0 36 -24 64t-67 28q-24 0 -45 -9.5t-36.5 -26t-25 -37.5t-9.5 -43q0 -36 24 -64t67 -28zM697 321q34 0 62 -12t48 -32.5t30.5 -47.5t10.5 -56q0 -36 -15 -69t-40.5 -57.5t-59.5 -39t-73 -14.5q-35 0 -62.5 12t-47.5 32.5t-30.5 47.5t-10.5 56q0 36 14.5 69
t40 57.5t60 39t73.5 14.5zM666 53q24 0 45 9.5t36.5 26t25 37t9.5 43.5q0 36 -24 64t-67 28q-24 0 -45 -9.5t-36.5 -26t-25 -37.5t-9.5 -43q0 -36 24 -64t67 -28z" />
    <glyph glyph-name="ampersand" unicode="&#x26;" horiz-adv-x="655" 
d="M661 233l-132 -110l101 -123h-81l-68 83q-51 -38 -106 -67t-114 -29q-48 0 -83 13t-58 35t-34 49t-11 56q0 33 12.5 60t33.5 49.5t48.5 40.5t58.5 35l41 22l-31 39q-18 23 -35 54t-17 67q0 41 17.5 73t45 53.5t62 32.5t68.5 11q40 0 72.5 -11t55.5 -30t36 -45t13 -57
q0 -32 -11 -57.5t-29 -47t-41.5 -38.5t-49.5 -32l-59 -33l126 -157l181 146zM251 510q0 -28 14 -53t28 -42l33 -41l75 40q51 28 70 55t19 56q0 41 -31 66.5t-81 25.5q-24 0 -46.5 -7t-40.5 -21t-29 -34t-11 -45zM259 47q55 0 100.5 26t84.5 58l-137 168l-35 -18
q-19 -10 -41.5 -22.5t-42.5 -29t-33.5 -37t-13.5 -45.5q0 -40 29 -70t89 -30z" />
    <glyph glyph-name="quotesingle" unicode="'" horiz-adv-x="170" 
d="M193 664h66l-53 -249h-66z" />
    <glyph glyph-name="parenleft" unicode="(" horiz-adv-x="315" 
d="M436 664q-41 -43 -84.5 -97.5t-79.5 -122t-59 -149t-23 -177.5q0 -87 21 -152t50 -119h-70q-31 49 -49.5 117.5t-18.5 147.5q0 85 19 165t51.5 151t75.5 131t91 105h76z" />
    <glyph glyph-name="parenright" unicode=")" horiz-adv-x="315" 
d="M-13 -153q41 43 84.5 97.5t79.5 122t59 149t23 177.5q0 87 -21 152t-50 119h70q31 -49 49.5 -117.5t18.5 -147.5q0 -85 -19 -165t-51.5 -151t-75.5 -131t-91 -105h-76z" />
    <glyph glyph-name="asterisk" unicode="*" horiz-adv-x="420" 
d="M160 552l34 44l101 -66l29 134h54l-28 -131l128 66l16 -48l-129 -67l101 -65l-36 -43l-99 65l-29 -132h-54l28 129l-128 -66l-16 49l127 66z" />
    <glyph glyph-name="plus" unicode="+" horiz-adv-x="535" 
d="M292 274l38 178h66l-38 -178h178l-14 -63h-178l-37 -178h-66l37 178h-178l14 63h178z" />
    <glyph glyph-name="comma" unicode="," horiz-adv-x="217" 
d="M21 -107l87 107h-45l19 92h92l-21 -100l-81 -99h-51z" />
    <glyph glyph-name="hyphen" unicode="-" horiz-adv-x="403" 
d="M392 287l-14 -63h-259l14 63h259z" />
    <glyph glyph-name="period" unicode="." horiz-adv-x="217" 
d="M82 92h92l-19 -92h-92z" />
    <glyph glyph-name="slash" unicode="/" horiz-adv-x="344" 
d="M407 664h73l-421 -744h-71z" />
    <glyph glyph-name="zero" unicode="0" horiz-adv-x="617" 
d="M325 -13q-60 0 -100.5 23t-65 60t-34.5 83t-10 92q0 44 8.5 93t25 97t41.5 91.5t59 77t76.5 53.5t93.5 20q60 0 100.5 -23t65 -60t34.5 -83t10 -92q0 -43 -8.5 -92t-25 -97t-41.5 -92t-59 -77.5t-76.5 -53.5t-93.5 -20zM184 239q0 -36 7 -70t23.5 -60.5t44 -42.5
t68.5 -16q44 0 78 20.5t60 53t44 73.5t29.5 82.5t16.5 80t5 65.5q0 36 -7 70t-23.5 60.5t-44 42.5t-68.5 16q-44 0 -78 -20.5t-60 -53t-44 -73.5t-29.5 -82.5t-16.5 -80t-5 -65.5z" />
    <glyph glyph-name="one" unicode="1" horiz-adv-x="376" 
d="M320 583l-172 -129l19 88l168 122h72l-141 -664h-69z" />
    <glyph glyph-name="two" unicode="2" horiz-adv-x="560" 
d="M149 495q11 39 34.5 72t55.5 57.5t70 38t79 13.5q46 0 84 -12.5t65.5 -35.5t42.5 -54.5t15 -68.5t-11.5 -67.5t-31 -57t-45.5 -50t-55 -46.5l-278 -221h341l-13 -63h-443l14 63l342 270q19 15 38.5 32t36 36.5t27 42.5t10.5 51q0 55 -39 87t-102 32q-25 0 -50 -8
t-47.5 -23t-41 -37.5t-29.5 -50.5h-69v0z" />
    <glyph glyph-name="three" unicode="3" horiz-adv-x="572" 
d="M153 155q15 -57 57 -81t102 -24q34 0 64 10.5t52 29.5t34.5 46t12.5 59q0 51 -36 82.5t-99 31.5h-75l13 62h98q31 0 59.5 8.5t50.5 25.5t35 42.5t13 59.5q0 48 -40 77.5t-106 29.5q-24 0 -48 -6.5t-46.5 -19.5t-41 -33t-30.5 -47h-69q15 45 41 77t59 52.5t69.5 30
t72.5 9.5q52 0 91 -13.5t65 -36.5t39 -52.5t13 -62.5q0 -23 -5.5 -47t-19 -48t-37 -46.5t-58.5 -40.5q35 -30 48 -62t13 -64q0 -43 -16.5 -82.5t-47 -69.5t-74.5 -47.5t-99 -17.5q-43 0 -80.5 10t-66.5 31t-49 52.5t-27 74.5h69z" />
    <glyph glyph-name="four" unicode="4" horiz-adv-x="589" 
d="M546 425l-47 -219h118l-13 -63h-118l-30 -143h-69l30 143h-367l13 63l425 458h83l-425 -458h284l47 219h69z" />
    <glyph glyph-name="five" unicode="5" horiz-adv-x="572" 
d="M154 145q14 -47 57 -71t96 -24q38 0 72 14t59.5 38.5t40.5 57.5t15 72q0 28 -10.5 53t-30.5 43.5t-48 29t-62 10.5q-82 0 -140 -55h-75l112 351h374l-14 -63h-314l-65 -205q23 14 56.5 24.5t73.5 10.5t78 -12.5t68 -37.5t48 -62t18 -85t-19 -92t-53.5 -78.5t-82 -55
t-103.5 -20.5q-46 0 -84 12.5t-67 34t-47.5 50t-25.5 60.5h73z" />
    <glyph glyph-name="six" unicode="6" horiz-adv-x="597" 
d="M388 421q40 0 77.5 -13.5t66 -39t45.5 -61.5t17 -81q0 -46 -20 -89t-54.5 -76.5t-81.5 -53.5t-101 -20q-48 0 -88 14t-68.5 42.5t-44.5 72t-16 102.5q0 50 9.5 103t28 104t46.5 97t64.5 80.5t82 54.5t99.5 20q83 0 133.5 -38t68.5 -107h-64q-14 41 -52 61.5t-89 20.5
q-38 0 -75.5 -16.5t-70 -49.5t-58 -82.5t-39.5 -115.5q29 32 76.5 51.5t107.5 19.5zM339 50q34 0 67.5 12.5t60 34.5t42.5 53t16 69q0 30 -12 55.5t-32.5 44t-48 28.5t-58.5 10q-34 0 -66.5 -12t-58.5 -34.5t-42 -54t-16 -70.5q0 -30 12 -55t32 -43t47 -28t57 -10z" />
    <glyph glyph-name="seven" unicode="7" horiz-adv-x="516" 
d="M174 601l14 63h431l-14 -63l-440 -601h-78l444 601h-357z" />
    <glyph glyph-name="eight" unicode="8" horiz-adv-x="601" 
d="M642 511q0 -22 -5.5 -45.5t-20 -47t-38.5 -45.5t-61 -41q41 -32 54 -65.5t13 -65.5q0 -41 -18 -79.5t-52 -68.5t-83.5 -48t-112.5 -18q-44 0 -83.5 12t-69.5 34.5t-47.5 55t-17.5 72.5q0 22 6.5 48t22 51.5t41.5 48.5t66 41q-37 29 -50.5 59.5t-13.5 63.5q0 40 17 77
t50 65t80.5 45t108.5 17q52 0 92 -14t67 -37t41 -53t14 -62zM327 50q39 0 73 10.5t59.5 30t40.5 46t15 59.5q0 27 -13 48t-35 35t-50.5 21.5t-59.5 7.5q-39 0 -73 -10.5t-59.5 -30t-40.5 -46t-15 -59.5q0 -27 13 -48t35 -35t50.5 -21.5t59.5 -7.5zM420 614q-35 0 -68 -9
t-58.5 -26.5t-40.5 -43t-15 -57.5q0 -49 43.5 -78t112.5 -29q35 0 68 9.5t58.5 27t40.5 43t15 57.5q0 49 -43.5 77.5t-112.5 28.5z" />
    <glyph glyph-name="nine" unicode="9" horiz-adv-x="597" 
d="M348 243q-42 0 -79.5 13.5t-66 39t-45.5 61.5t-17 81q0 49 19.5 92.5t54 76t81.5 51.5t102 19q48 0 88 -14.5t68.5 -44t44.5 -74t16 -103.5q0 -48 -9 -100.5t-27 -103t-45.5 -96t-63.5 -80t-81 -54.5t-99 -20q-83 0 -132.5 38t-67.5 107h64q14 -41 51 -61.5t88 -20.5
q38 0 74.5 16.5t68 49t56 81.5t38.5 115q-29 -29 -76.5 -49t-104.5 -20zM395 614q-35 0 -68 -12t-59.5 -34t-42.5 -53.5t-16 -69.5q0 -30 12 -55.5t32.5 -44t48 -28.5t58.5 -10q34 0 66.5 12t58.5 34.5t42 54t16 70.5q0 30 -12 55t-32 43t-47 28t-57 10z" />
    <glyph glyph-name="colon" unicode=":" horiz-adv-x="217" 
d="M146 402h92l-19 -92h-92zM82 92h92l-19 -92h-92z" />
    <glyph glyph-name="semicolon" unicode=";" horiz-adv-x="217" 
d="M21 -107l87 107h-45l19 92h92l-21 -100l-81 -99h-51zM146 402h92l-19 -92h-92z" />
    <glyph glyph-name="less" unicode="&#x3c;" horiz-adv-x="525" 
d="M486 83l-16 -71l-379 198l15 72l464 199l-16 -79l-374 -160z" />
    <glyph glyph-name="equal" unicode="=" horiz-adv-x="535" 
d="M520 199l-14 -63h-422l14 63h422zM553 353l-14 -63h-422l14 63h422z" />
    <glyph glyph-name="greater" unicode="&#x3e;" horiz-adv-x="525" 
d="M449 250l-306 160l16 71l378 -199l-15 -72l-463 -198l16 79z" />
    <glyph glyph-name="question" unicode="?" horiz-adv-x="514" 
d="M223 81h81l-17 -81h-81zM374 677q33 0 66.5 -9t60 -27t43 -46t16.5 -67q0 -36 -11 -62t-29 -46t-40.5 -35.5t-45.5 -29.5q-31 -20 -50 -32.5t-30 -24t-17 -25t-10 -35.5l-9 -42h-71l11 48q6 28 13.5 48.5t21 38t36.5 34.5t61 37q42 22 69.5 50.5t27.5 74.5q0 43 -34.5 65
t-82.5 22q-57 0 -93.5 -27t-52.5 -74h-74q19 73 77 118.5t147 45.5z" />
    <glyph glyph-name="at" unicode="@" horiz-adv-x="973" 
d="M754 443l-52 -244q-2 -8 -3.5 -18t-1.5 -18q0 -26 16 -45t49 -19q40 0 68 22t45.5 56t25 74.5t7.5 78.5q0 60 -21.5 112.5t-62 91.5t-99 61t-132.5 22q-83 0 -157 -33.5t-129.5 -91t-87.5 -135t-32 -164.5q0 -69 23.5 -127.5t64.5 -100.5t98 -66t125 -24q59 0 110 18.5
t94 51.5h88q-58 -55 -132 -92.5t-165 -37.5q-83 0 -151.5 29.5t-117.5 80.5t-76 120t-27 147q0 102 37 191t101.5 154t151.5 102.5t187 37.5q84 0 153 -27t118.5 -74t77 -110.5t27.5 -135.5q0 -59 -15.5 -112t-44 -92.5t-69 -63t-90.5 -23.5q-45 0 -72.5 18.5t-38.5 50.5
q-11 -11 -27 -23.5t-35.5 -22.5t-42.5 -16.5t-47 -6.5q-35 0 -65.5 12t-53.5 34.5t-36.5 54.5t-13.5 73q0 61 20.5 106.5t52 75.5t70.5 45t76 15q30 0 53.5 -7t40 -17t26.5 -20.5t14 -16.5l12 49h66zM499 99q33 0 61 15t48.5 39.5t32.5 56.5t12 67q0 50 -28.5 84t-86.5 34
q-32 0 -59.5 -14.5t-47.5 -39t-31 -56.5t-11 -66q0 -51 29.5 -85.5t80.5 -34.5z" />
    <glyph glyph-name="A" unicode="A" horiz-adv-x="668" 
d="M561 159h-381l-104 -159h-76l433 664h85l150 -664h-70zM221 222h326l-84 370z" />
    <glyph glyph-name="B" unicode="B" horiz-adv-x="656" 
d="M709 503q0 -20 -4.5 -45t-18 -50.5t-39 -49.5t-67.5 -42q37 -24 50.5 -55.5t13.5 -60.5q0 -40 -14 -76.5t-41 -64t-67.5 -43.5t-94.5 -16h-338l141 664h305q45 0 78 -14.5t54.5 -37.5t31.5 -51.5t10 -57.5zM640 496q0 45 -31.5 75t-87.5 30h-236l-50 -238h258
q63 0 103.5 34.5t43.5 98.5zM575 195q0 45 -31.5 75t-87.5 30h-234l-51 -237h257q63 0 103.5 34t43.5 98z" />
    <glyph glyph-name="C" unicode="C" horiz-adv-x="711" 
d="M498 614q-61 0 -117 -24.5t-98.5 -68t-68 -103.5t-25.5 -131q0 -51 17 -94t48.5 -75t76.5 -50t100 -18q66 0 117 29t89 77h76q-48 -80 -125 -124.5t-164 -44.5q-69 0 -125 23.5t-95.5 64t-61.5 95t-22 117.5q0 84 31.5 155.5t84.5 123.5t122.5 81.5t145.5 29.5
q104 0 171.5 -46.5t97.5 -122.5h-76q-29 53 -79.5 79.5t-119.5 26.5z" />
    <glyph glyph-name="D" unicode="D" horiz-adv-x="720" 
d="M451 664q76 0 132.5 -25t94.5 -66t57 -94t19 -108q0 -75 -29 -142.5t-81.5 -118.5t-125.5 -80.5t-161 -29.5h-268l141 664h221zM171 63h196q65 0 123 22t101.5 62.5t68.5 96.5t25 125q0 46 -15.5 88t-46.5 74t-76 51t-103 19h-159z" />
    <glyph glyph-name="E" unicode="E" horiz-adv-x="599" 
d="M285 601l-50 -238h366l-14 -63h-365l-51 -237h373l-13 -63h-442l141 664h442l-14 -63h-373z" />
    <glyph glyph-name="F" unicode="F" horiz-adv-x="578" 
d="M285 601l-50 -238h366l-14 -63h-365l-64 -300h-69l141 664h442l-14 -63h-373z" />
    <glyph glyph-name="G" unicode="G" horiz-adv-x="756" 
d="M705 508q-31 51 -86 78.5t-120 27.5q-61 0 -117 -24.5t-99 -68t-68.5 -102.5t-25.5 -129q0 -52 17 -96t49 -76t77 -50t101 -18q51 0 94 16.5t77.5 46t59.5 70.5t40 89h-252l14 63h323q-15 -81 -48 -145.5t-79.5 -109.5t-106 -69t-127.5 -24q-69 0 -125.5 23t-97 63
t-63 95t-22.5 120q0 85 32 156.5t85.5 123t123.5 80.5t146 29q49 0 92 -12.5t78 -35t61 -53.5t43 -68h-76z" />
    <glyph glyph-name="H" unicode="H" horiz-adv-x="738" 
d="M580 0l63 300h-422l-63 -300h-69l141 664h69l-64 -301h422l64 301h69l-141 -664h-69z" />
    <glyph glyph-name="I" unicode="I" horiz-adv-x="247" 
d="M158 0h-69l141 664h69z" />
    <glyph glyph-name="J" unicode="J" horiz-adv-x="404" 
d="M461 664l-105 -490q-18 -85 -79.5 -129.5t-146.5 -44.5h-125l13 63h112q28 0 53.5 7t46.5 21t36 35t21 48l105 490h69z" />
    <glyph glyph-name="K" unicode="K" horiz-adv-x="597" 
d="M592 0h-92l-278 301l-64 -301h-69l141 664h69l-63 -296l394 296h103l-442 -337z" />
    <glyph glyph-name="L" unicode="L" horiz-adv-x="562" 
d="M171 63h373l-13 -63h-442l141 664h69z" />
    <glyph glyph-name="M" unicode="M" horiz-adv-x="968" 
d="M498 69l422 595h100l-141 -664h-69l120 565l-397 -565h-88l-167 565l-120 -565h-69l141 664h92z" />
    <glyph glyph-name="N" unicode="N" horiz-adv-x="770" 
d="M822 664l-141 -664h-78l-324 574l-121 -574h-69l141 664h78l323 -574l122 574h69z" />
    <glyph glyph-name="O" unicode="O" horiz-adv-x="772" 
d="M811 376q0 -85 -32.5 -156.5t-86.5 -123t-124 -80.5t-144 -29q-60 0 -115 21.5t-97 61.5t-67 95t-25 123q0 85 32.5 156.5t86.5 123t124 80.5t144 29q60 0 115 -21.5t97 -61.5t67 -95.5t25 -122.5zM433 50q60 0 116 24t98.5 67.5t68.5 103t26 131.5q0 51 -17.5 95
t-49.5 75.5t-77 49.5t-100 18q-60 0 -116 -24t-98.5 -67.5t-68.5 -103t-26 -131.5q0 -51 17.5 -95t49.5 -75.5t77 -49.5t100 -18z" />
    <glyph glyph-name="P" unicode="P" horiz-adv-x="654" 
d="M720 493q0 -46 -17 -84.5t-47.5 -66.5t-73 -43.5t-92.5 -15.5h-272l-60 -283h-69l141 664h304q48 0 83 -15t58 -39.5t34 -55t11 -61.5zM231 346h263q33 0 62 9.5t50 27.5t33 44.5t12 60.5q0 49 -33.5 81t-93.5 32h-238z" />
    <glyph glyph-name="Q" unicode="Q" horiz-adv-x="772" 
d="M811 376q0 -51 -12.5 -98t-34.5 -87.5t-52.5 -74t-67.5 -59.5l39 -70h-76l-21 37q-77 -37 -162 -37q-60 0 -115 21.5t-97 61.5t-67 95t-25 123q0 85 32.5 156.5t86.5 123t124 80.5t144 29q60 0 115 -21.5t97 -61.5t67 -95.5t25 -122.5zM529 267l85 -155q57 43 92.5 111
t35.5 153q0 51 -17.5 95t-49.5 75.5t-77 49.5t-100 18q-60 0 -116 -24t-98.5 -67.5t-68.5 -103t-26 -131.5q0 -51 17.5 -95t49.5 -75.5t77 -49.5t100 -18q63 0 124 28l-104 189h76z" />
    <glyph glyph-name="R" unicode="R" horiz-adv-x="648" 
d="M720 493q0 -46 -17 -84.5t-47.5 -66.5t-73 -43.5t-92.5 -15.5h-27l156 -283h-79l-156 283h-166l-60 -283h-69l141 664h304q48 0 83 -15t58 -39.5t34 -55t11 -61.5zM231 346h263q33 0 62 9.5t50 27.5t33 44.5t12 60.5q0 49 -33.5 81t-93.5 32h-238z" />
    <glyph glyph-name="S" unicode="S" horiz-adv-x="605" 
d="M137 155q9 -21 26.5 -40.5t42.5 -33.5t56.5 -22.5t67.5 -8.5q45 0 82.5 11t65 30.5t43 45.5t15.5 57q0 80 -134 100l-111 17q-39 6 -67.5 20t-46.5 34t-27 44.5t-9 51.5q0 48 20 88t56 68.5t85.5 44t108.5 15.5t103.5 -16t76 -41t51 -54.5t27.5 -57.5h-75
q-17 45 -66.5 75.5t-123.5 30.5q-45 0 -81 -12t-60.5 -32.5t-38 -47t-13.5 -55.5q0 -41 30 -63t86 -31l123 -19q75 -12 115 -54t40 -99q0 -39 -17.5 -77.5t-53 -69t-87.5 -49t-121 -18.5q-61 0 -106.5 16t-77.5 41t-51.5 54.5t-27.5 56.5h74z" />
    <glyph glyph-name="T" unicode="T" horiz-adv-x="595" 
d="M710 664l-14 -63h-237l-127 -601h-69l127 601h-237l14 63h543z" />
    <glyph glyph-name="U" unicode="U" horiz-adv-x="740" 
d="M225 664h69l-79 -373q-8 -38 -8 -66q0 -85 53 -130t150 -45q90 0 149.5 50t81.5 153l87 411h69l-88 -418q-27 -127 -107 -193t-196 -66q-127 0 -197.5 61t-70.5 169q0 37 9 79z" />
    <glyph glyph-name="V" unicode="V" horiz-adv-x="660" 
d="M341 73l378 591h77l-424 -664h-85l-141 664h69z" />
    <glyph glyph-name="W" unicode="W" horiz-adv-x="1061" 
d="M221 664l79 -582l322 582h88l80 -582l322 582h78l-369 -664h-88l-81 584l-321 -584h-88l-92 664h70z" />
    <glyph glyph-name="X" unicode="X" horiz-adv-x="590" 
d="M357 277l-256 -277h-86l311 337l-170 327h74l143 -276l256 276h87l-312 -336l171 -328h-73z" />
    <glyph glyph-name="Y" unicode="Y" horiz-adv-x="560" 
d="M624 664h78l-335 -412l-53 -252h-69l53 252l-158 412h69l132 -349z" />
    <glyph glyph-name="Z" unicode="Z" horiz-adv-x="638" 
d="M707 601l-549 -538h435l-13 -63h-522l13 63l548 538h-435l14 63h523z" />
    <glyph glyph-name="bracketleft" unicode="[" horiz-adv-x="377" 
d="M156 -93h171l-13 -60h-237l174 817h237l-13 -60h-171z" />
    <glyph glyph-name="backslash" unicode="\" horiz-adv-x="337" 
d="M146 664h66l102 -744h-65z" />
    <glyph glyph-name="bracketright" unicode="]" horiz-adv-x="377" 
d="M329 604h-171l13 60h237l-174 -817h-237l13 60h171z" />
    <glyph glyph-name="asciicircum" unicode="^" horiz-adv-x="551" 
d="M126 328l249 336h80l107 -336h-70l-87 271l-201 -271h-78z" />
    <glyph glyph-name="underscore" unicode="_" horiz-adv-x="519" 
d="M-11 -37h526l-14 -63h-526z" />
    <glyph glyph-name="grave" unicode="`" horiz-adv-x="326" 
d="M280 696l94 -171h-70l-94 171h70z" />
    <glyph glyph-name="a" unicode="a" horiz-adv-x="542" 
d="M331 465q36 0 71.5 -8.5t64 -26.5t46 -47.5t17.5 -71.5q0 -20 -5 -43l-57 -268h-66l12 52q-32 -29 -76.5 -47t-91.5 -18q-76 0 -120.5 38t-44.5 97q0 43 16.5 73.5t43.5 49.5t61.5 27.5t70.5 8.5h188q2 8 3 16t1 14q0 24 -11 42t-30 29.5t-45.5 17t-56.5 5.5
q-54 0 -93 -21.5t-59 -54.5h-71q27 65 89.5 100.5t142.5 35.5zM449 221h-180q-52 0 -87 -23.5t-35 -70.5q0 -35 28 -57.5t80 -22.5q35 0 67 12t56.5 31.5t41.5 45t22 51.5z" />
    <glyph glyph-name="b" unicode="b" horiz-adv-x="593" 
d="M84 0l142 669h66l-57 -268q23 24 64.5 44t91.5 20q51 0 89.5 -17t64.5 -45t39 -65t13 -76q0 -54 -18.5 -103.5t-52.5 -88t-81.5 -61t-105.5 -22.5q-33 0 -61 8t-49.5 20.5t-37.5 29t-25 33.5l-16 -78h-66zM531 258q0 36 -11.5 63.5t-31 46t-45.5 28t-56 9.5
q-41 0 -76 -17.5t-61 -47t-41 -67.5t-15 -79q0 -36 11 -63.5t30.5 -46t46 -28t56.5 -9.5q40 0 75.5 17.5t61.5 46.5t41 67.5t15 79.5z" />
    <glyph glyph-name="c" unicode="c" horiz-adv-x="541" 
d="M487 331q-16 32 -50 53t-82 21q-39 0 -73.5 -16.5t-61 -45t-41.5 -66t-15 -79.5q0 -31 10.5 -58.5t29.5 -48t46 -32.5t60 -12q46 0 83 19.5t60 54.5h71q-33 -67 -91.5 -100.5t-125.5 -33.5q-47 0 -85.5 15.5t-66 43.5t-42.5 65.5t-15 81.5q0 58 21.5 108t58 86.5t84 57
t100.5 20.5q73 0 125 -36.5t71 -97.5h-71z" />
    <glyph glyph-name="d" unicode="d" horiz-adv-x="593" 
d="M652 669l-142 -669h-66l11 52q-12 -12 -28.5 -23.5t-37 -21t-43.5 -15t-48 -5.5q-51 0 -89.5 17t-64.5 45t-39 65t-13 76q0 54 18.5 103.5t52.5 88t81.5 61t105.5 22.5q33 0 61 -8t49.5 -20.5t37.5 -29t25 -33.5l63 295h66zM158 194q0 -36 11 -63.5t30.5 -46t46 -28
t56.5 -9.5q40 0 75.5 17.5t61.5 46.5t41 67.5t15 79.5q0 36 -11.5 63.5t-31 46t-45.5 28t-56 9.5q-41 0 -76 -17.5t-61 -47t-41 -67.5t-15 -79z" />
    <glyph glyph-name="e" unicode="e" horiz-adv-x="548" 
d="M165 202v-6q0 -68 40 -108.5t108 -40.5q42 0 77.5 17.5t60.5 56.5h71q-33 -69 -90 -101.5t-123 -32.5q-48 0 -87 15.5t-66.5 43t-42.5 65.5t-15 83q0 58 20 108t55 86t81.5 56.5t99.5 20.5q45 0 81.5 -15t62.5 -41t40 -62.5t14 -78.5q0 -14 -1.5 -29t-7.5 -37h-378z
M348 405q-30 0 -58 -10.5t-51.5 -29t-40 -45t-23.5 -58.5h309q2 8 2 16q0 26 -9 49t-26.5 40.5t-43 27.5t-59.5 10z" />
    <glyph glyph-name="f" unicode="f" horiz-adv-x="349" 
d="M109 0l83 392h-94l13 60h94l17 83q14 67 59.5 100.5t131.5 33.5h63l-13 -60h-62q-50 0 -77.5 -19.5t-38.5 -68.5l-14 -69h159l-13 -60h-159l-83 -392h-66z" />
    <glyph glyph-name="g" unicode="g" horiz-adv-x="595" 
d="M607 452l-91 -430q-12 -54 -36 -98.5t-59 -75.5t-80 -48t-99 -17q-68 0 -122 34t-71 100h72q14 -35 46.5 -54.5t82.5 -19.5q40 0 72.5 13.5t58 38t43 58t26.5 73.5l6 26q-12 -12 -28.5 -23.5t-36.5 -21t-43 -15t-48 -5.5q-51 0 -89.5 17t-64.5 45t-39 65t-13 76
q0 54 18.5 103.5t52.5 88t81.5 61t105.5 22.5q33 0 61 -8t49.5 -20.5t37.5 -29t25 -33.5l16 78h66zM160 194q0 -36 11 -63.5t30.5 -46t46 -28t56.5 -9.5q40 0 75.5 17.5t61.5 46.5t41 67.5t15 79.5q0 36 -11.5 63.5t-31 46t-45.5 28t-56 9.5q-41 0 -76 -17.5t-61 -47
t-41 -67.5t-15 -79z" />
    <glyph glyph-name="h" unicode="h" horiz-adv-x="578" 
d="M390 465q36 0 68 -10.5t55.5 -31t37 -51.5t13.5 -71q0 -26 -6 -53l-53 -248h-66l54 254q5 23 5 42q0 46 -26.5 77.5t-87.5 31.5q-29 0 -58 -10t-53.5 -29t-43 -47t-25.5 -64l-54 -255h-66l142 669h66l-57 -268q27 26 67 45t88 19z" />
    <glyph glyph-name="i" unicode="i" horiz-adv-x="238" 
d="M248 452l-96 -452h-66l96 452h66zM218 659h81l-19 -88h-81z" />
    <glyph glyph-name="j" unicode="j" horiz-adv-x="262" 
d="M242 659h81l-19 -88h-81zM272 452l-111 -522q-14 -67 -59.5 -100.5t-130.5 -33.5h-63l13 60h62q49 0 76.5 19.5t38.5 68.5l108 508h66z" />
    <glyph glyph-name="k" unicode="k" horiz-adv-x="475" 
d="M292 669l-90 -424l271 207h92l-302 -234l207 -218h-85l-193 202l-42 -202h-66l142 669h66z" />
    <glyph glyph-name="l" unicode="l" horiz-adv-x="234" 
d="M292 669l-142 -669h-66l142 669h66z" />
    <glyph glyph-name="m" unicode="m" horiz-adv-x="924" 
d="M838 254q5 23 5 42q0 22 -6.5 41.5t-21 34.5t-36 24t-51.5 9q-33 0 -62 -12t-52 -33.5t-40 -51.5t-24 -67l-51 -241h-66l54 254q5 23 5 42q0 22 -6.5 42t-20 35t-35.5 23.5t-52 8.5q-27 0 -54.5 -9t-51 -26.5t-41.5 -44t-25 -61.5l-56 -264h-66l96 452h66l-10 -47
q23 24 59 42t83 18q69 0 108.5 -25t59.5 -67q27 38 76.5 65t108.5 27q45 0 78.5 -13t55.5 -35.5t33 -52t11 -63.5q0 -26 -6 -53l-53 -248h-66z" />
    <glyph glyph-name="n" unicode="n" horiz-adv-x="578" 
d="M390 465q36 0 68 -10.5t55.5 -31t37 -51.5t13.5 -71q0 -26 -6 -53l-53 -248h-66l54 254q5 23 5 42q0 46 -26.5 77.5t-87.5 31.5q-29 0 -58 -10t-53.5 -29t-43 -47t-25.5 -64l-54 -255h-66l96 452h66l-11 -51q27 26 67 45t88 19z" />
    <glyph glyph-name="o" unicode="o" horiz-adv-x="570" 
d="M569 260q0 -60 -21 -110t-57 -86t-83.5 -56.5t-99.5 -20.5q-47 0 -85 16t-65 43.5t-42 65t-15 80.5q0 60 21 110t57 86t83.5 56.5t99.5 20.5q47 0 85 -16t65 -43.5t42 -65t15 -80.5zM313 47q39 0 74 17t60.5 45.5t40.5 66.5t15 80q0 31 -10 58t-28.5 47t-46 32t-61.5 12
q-39 0 -74 -17t-60.5 -45.5t-40.5 -66.5t-15 -80q0 -31 10 -58t28.5 -47.5t45.5 -32t62 -11.5z" />
    <glyph glyph-name="p" unicode="p" horiz-adv-x="593" 
d="M40 -204l140 656h66l-11 -51q23 24 64.5 44t91.5 20q51 0 89.5 -17t64.5 -45t39 -65t13 -76q0 -54 -18.5 -103.5t-52.5 -88t-81.5 -61t-105.5 -22.5q-33 0 -61 8t-49.5 20.5t-37.5 29t-25 33.5l-60 -282h-66zM531 258q0 36 -11.5 63.5t-31 46t-45.5 28t-56 9.5
q-41 0 -76 -17.5t-61 -47t-41 -67.5t-15 -79q0 -36 11 -63.5t30.5 -46t46 -28t56.5 -9.5q40 0 75.5 17.5t61.5 46.5t41 67.5t15 79.5z" />
    <glyph glyph-name="q" unicode="q" horiz-adv-x="593" 
d="M606 452l-139 -656h-66l54 256q-12 -12 -28.5 -23.5t-37 -21t-43.5 -15t-48 -5.5q-51 0 -89.5 17t-64.5 45t-39 65t-13 76q0 54 18.5 103.5t52.5 88t81.5 61t105.5 22.5q33 0 61 -8t49.5 -20.5t37.5 -29t25 -33.5l17 78h66zM158 194q0 -36 11 -63.5t30.5 -46t46 -28
t56.5 -9.5q40 0 75.5 17.5t61.5 46.5t41 67.5t15 79.5q0 36 -11.5 63.5t-31 46t-45.5 28t-56 9.5q-41 0 -76 -17.5t-61 -47t-41 -67.5t-15 -79z" />
    <glyph glyph-name="r" unicode="r" horiz-adv-x="384" 
d="M246 452l-16 -73q13 14 31.5 28t42.5 25t54.5 17.5t67.5 6.5h12l-12 -60h-11q-42 0 -78 -13t-64.5 -36t-48 -55.5t-28.5 -72.5l-46 -219h-66l96 452h66z" />
    <glyph glyph-name="s" unicode="s" horiz-adv-x="507" 
d="M136 126q14 -35 48 -57t103 -22q26 0 49.5 6t41.5 17t29 27.5t11 36.5q0 28 -25 39t-70 17l-90 11q-63 8 -91 37.5t-28 71.5q0 32 14.5 60t41 49t64.5 33.5t86 12.5q49 0 85 -12.5t61.5 -32t41 -44t21.5 -49.5h-73q-15 39 -48.5 58.5t-92.5 19.5q-27 0 -51.5 -6.5
t-43 -18t-29.5 -28t-11 -37.5q0 -28 25 -39.5t69 -16.5l88 -11q62 -8 92.5 -37t30.5 -72q0 -32 -14 -59.5t-41 -48t-66 -32.5t-90 -12q-50 0 -87 12.5t-62.5 32t-40 44.5t-20.5 50h72z" />
    <glyph glyph-name="t" unicode="t" horiz-adv-x="397" 
d="M316 588l-29 -136h159l-13 -60h-159l-49 -233q-2 -9 -4.5 -23t-2.5 -21q0 -29 20 -42t62 -13h62l-12 -60h-63q-72 0 -104.5 27.5t-32.5 72.5q0 16 5 41l53 251h-94l13 60h94l29 136h66z" />
    <glyph glyph-name="u" unicode="u" horiz-adv-x="572" 
d="M281 -13q-36 0 -67 10.5t-54.5 30.5t-36.5 50.5t-13 71.5q0 27 6 54l53 248h66l-54 -254q-5 -23 -5 -43q0 -46 25.5 -77t85.5 -31q28 0 56.5 10t53 29t42 47t25.5 64l54 255h66l-96 -452h-66l11 51q-27 -26 -66 -45t-86 -19z" />
    <glyph glyph-name="v" unicode="v" horiz-adv-x="507" 
d="M284 0h-68l-110 452h68l89 -374l249 374h74z" />
    <glyph glyph-name="w" unicode="w" horiz-adv-x="821" 
d="M543 452l62 -372l220 372h72l-267 -452h-76l-65 369l-221 -369h-76l-75 452h67l61 -372l222 372h76z" />
    <glyph glyph-name="x" unicode="x" horiz-adv-x="491" 
d="M334 223l140 -223h-74l-112 178l-181 -178h-86l235 231l-138 221h74l109 -176l179 176h87z" />
    <glyph glyph-name="y" unicode="y" horiz-adv-x="501" 
d="M172 452l90 -374l250 374h75l-305 -455q-33 -49 -56 -86.5t-46 -63t-49 -38.5t-65 -13h-37l13 60h16q21 0 36.5 5t29.5 17t28.5 32t32.5 50l27 45l-107 447h67z" />
    <glyph glyph-name="z" unicode="z" horiz-adv-x="469" 
d="M40 0l12 60l364 332h-293l13 60h382l-13 -60l-365 -332h301l-12 -60h-389z" />
    <glyph glyph-name="braceleft" unicode="{" horiz-adv-x="361" 
d="M182 256q24 -14 43 -37t19 -58q0 -12 -2.5 -28t-4.5 -24l-26 -121q-3 -14 -3 -25q0 -56 79 -56h34l-13 -60h-43q-57 0 -90.5 25t-33.5 77q0 18 4 37l25 118q2 7 4 19t2 23q0 35 -24.5 53.5t-64.5 24.5l14 63q48 7 84 35t46 73l28 130q15 72 60 105.5t118 33.5h45l-13 -60
h-32q-48 0 -75.5 -19t-36.5 -62l-31 -146q-10 -45 -43 -75t-69 -46z" />
    <glyph glyph-name="bar" unicode="|" horiz-adv-x="210" 
d="M105 -153h-66l174 817h66z" />
    <glyph glyph-name="braceright" unicode="}" horiz-adv-x="361" 
d="M287 255q-24 14 -43 37t-19 58q0 12 2.5 28t4.5 24l26 121q3 13 3 25q0 56 -79 56h-34l13 60h43q57 0 90.5 -25t33.5 -77q0 -18 -4 -37l-25 -118q-2 -7 -4 -19t-2 -23q0 -35 24.5 -53.5t64.5 -24.5l-14 -63q-48 -7 -84 -35t-46 -73l-28 -130q-15 -72 -60 -105.5
t-118 -33.5h-45l13 60h32q48 0 75.5 19t36.5 62l31 146q5 22 16.5 41t26.5 34t33 26.5t36 19.5z" />
    <glyph glyph-name="asciitilde" unicode="~" horiz-adv-x="535" 
d="M410 234q28 0 43 19.5t26 63.5h66q-17 -76 -53.5 -111t-87.5 -35q-30 0 -54 13t-44.5 28.5t-39 28.5t-39.5 13q-28 0 -43 -19.5t-26 -63.5h-66q17 76 53.5 111t87.5 35q30 0 54 -13t44.5 -28.5t39 -28.5t39.5 -13z" />
    <glyph glyph-name="nonbreakingspace" unicode="&#xa0;" horiz-adv-x="240" 
 />
    <glyph glyph-name="exclamdown" unicode="&#xa1;" horiz-adv-x="311" 
d="M147 -204h-71l98 460h71zM211 452h81l-18 -81h-81z" />
    <glyph glyph-name="cent" unicode="&#xa2;" horiz-adv-x="541" 
d="M487 331q-16 32 -50 53t-82 21q-39 0 -73.5 -16.5t-61 -45t-41.5 -66t-15 -79.5q0 -31 10.5 -58.5t29.5 -48t46 -32.5t60 -12q46 0 83 19.5t60 54.5h71q-33 -67 -91.5 -100t-124.5 -34l-23 -107h-66l25 115q-67 18 -106.5 72t-39.5 126q0 55 20 103t53.5 84t78 58
t93.5 26l23 109h66l-24 -112q56 -11 95 -45t55 -85h-71z" />
    <glyph glyph-name="sterling" unicode="&#xa3;" horiz-adv-x="583" 
d="M62 63q44 2 73 25t37 63l31 149h-93l14 63h93l25 119q9 43 27.5 79t47 61.5t67 40t86.5 14.5q39 0 70 -14t53.5 -36.5t35.5 -49.5t15 -54h-68q-7 42 -36.5 66.5t-74.5 24.5q-61 0 -100.5 -35.5t-52.5 -98.5l-25 -117h200l-14 -63h-200l-33 -155q-3 -12 -7 -25.5
t-10.5 -25t-15.5 -20t-20 -11.5h362l-13 -63h-487z" />
    <glyph glyph-name="currency" unicode="&#xa4;" horiz-adv-x="585" 
d="M578 350q0 -35 -10.5 -66.5t-29.5 -57.5l68 -68l-47 -47l-68 68q-26 -20 -58 -30.5t-67 -10.5t-66.5 10.5t-57.5 30.5l-68 -68l-47 47l68 68q-20 26 -30.5 57.5t-10.5 66.5t10.5 67t30.5 58l-68 68l47 47l68 -68q26 19 57.5 29.5t66.5 10.5t67 -10.5t58 -29.5l68 68
l47 -47l-68 -68q19 -26 29.5 -58t10.5 -67zM220 350q0 -30 11.5 -56.5t31.5 -46.5t46.5 -31.5t56.5 -11.5t57 11.5t46.5 31.5t31 46.5t11.5 56.5t-11.5 57t-31 46.5t-46.5 31t-57 11.5t-56.5 -11.5t-46.5 -31t-31.5 -46.5t-11.5 -57z" />
    <glyph glyph-name="yen" unicode="&#xa5;" horiz-adv-x="560" 
d="M625 664h77l-214 -263h105l-14 -63h-142l-67 -82h192l-13 -63h-194l-41 -193h-69l41 193h-193l13 63h191l-32 82h-142l14 63h104l-100 263h69l132 -349z" />
    <glyph glyph-name="brokenbar" unicode="&#xa6;" horiz-adv-x="210" 
d="M105 -153h-66l73 343h66zM206 320h-66l73 344h66z" />
    <glyph glyph-name="section" unicode="&#xa7;" horiz-adv-x="587" 
d="M589 232q0 -35 -13.5 -62t-36.5 -47.5t-53.5 -33.5t-64.5 -19q24 -21 39 -49t15 -60q0 -46 -18.5 -79.5t-47 -55.5t-63 -32.5t-67.5 -10.5q-81 0 -131 38.5t-59 99.5h71q10 -33 38 -54t84 -21q58 0 91 31t33 75q0 39 -30.5 63t-99.5 50q-39 15 -71 31.5t-55 36.5
t-35.5 44t-12.5 53q0 34 13.5 61.5t36.5 48t53.5 33t65.5 18.5q-24 21 -40 48.5t-16 60.5q0 46 19 79t48 55t64.5 32.5t68.5 10.5q77 0 126 -39t60 -99h-70q-11 32 -38.5 53.5t-82.5 21.5q-29 0 -52 -8.5t-39.5 -23t-25 -33t-8.5 -38.5q0 -41 32.5 -66.5t97.5 -48.5
q39 -14 71 -30.5t55 -36.5t35.5 -44t12.5 -53zM171 235q0 -23 15 -42.5t41.5 -34t62.5 -23t78 -8.5q23 0 50 5t49.5 17t37.5 31t15 47q0 22 -15 42t-41.5 34.5t-62.5 23t-78 8.5q-23 0 -50 -5t-49.5 -17t-37.5 -31t-15 -47z" />
    <glyph glyph-name="dieresis" unicode="&#xa8;" horiz-adv-x="367" 
d="M363 657h80l-18 -86h-80zM202 657h80l-18 -86h-80z" />
    <glyph glyph-name="copyright" unicode="&#xa9;" horiz-adv-x="837" 
d="M620 415q-14 22 -36 37t-58 15q-29 0 -55.5 -11.5t-47 -32t-32.5 -49t-12 -62.5q0 -49 32.5 -81.5t81.5 -32.5q31 0 54.5 12t43.5 38h70q-32 -53 -76 -80t-95 -27q-38 0 -69.5 12.5t-54 35t-35 53t-12.5 65.5q0 48 17.5 88t47 68.5t67 44.5t77.5 16q60 0 101 -30.5
t59 -78.5h-68zM462 -13q-62 0 -119 22t-100.5 62.5t-69.5 96.5t-26 124q0 84 31.5 154.5t84.5 121.5t123.5 80t148.5 29q62 0 119 -22t100.5 -62.5t69.5 -96.5t26 -124q0 -84 -31.5 -154.5t-84.5 -121.5t-123.5 -80t-148.5 -29zM790 364q0 52 -19.5 98.5t-54.5 80.5t-83 54
t-105 20q-66 0 -124 -24t-102 -66.5t-69.5 -101t-25.5 -127.5q0 -53 19 -98.5t53.5 -79.5t82 -53.5t104.5 -19.5q65 0 123.5 23.5t103 65.5t71 100.5t26.5 127.5z" />
    <glyph glyph-name="ordfeminine" unicode="&#xaa;" horiz-adv-x="410" 
d="M321 671q26 0 51.5 -6t46 -19t33.5 -34t13 -50q0 -7 -1 -16t-3 -15l-40 -187h-54l6 29q-23 -18 -50.5 -28t-58.5 -10q-54 0 -86 28t-32 70q0 31 11.5 51.5t30.5 33.5t43.5 18.5t50.5 5.5h126q1 3 2 9t1 11q0 30 -27.5 44t-67.5 14q-36 0 -61.5 -12.5t-39.5 -34.5h-61
q21 48 65.5 73t101.5 25zM281 493q-35 0 -57.5 -13.5t-22.5 -43.5q0 -22 18 -36t51 -14q48 0 81.5 26t43.5 65l4 16h-118z" />
    <glyph glyph-name="guillemotleft" unicode="&#xab;" horiz-adv-x="515" 
d="M357 409l-195 -191l114 -173h-82l-99 147l15 70l154 147h93zM567 409l-195 -191l114 -173h-82l-99 147l15 70l154 147h93z" />
    <glyph glyph-name="logicalnot" unicode="&#xac;" horiz-adv-x="535" 
d="M503 121h-66l36 168h-355l14 66h421z" />
    <glyph glyph-name="uni00AD" unicode="&#xad;" horiz-adv-x="403" 
d="M392 287l-14 -63h-259l14 63h259z" />
    <glyph glyph-name="registered" unicode="&#xae;" horiz-adv-x="837" 
d="M462 -13q-62 0 -119 22t-100.5 62.5t-69.5 96.5t-26 124q0 84 31.5 154.5t84.5 121.5t123.5 80t148.5 29q62 0 119 -22t100.5 -62.5t69.5 -96.5t26 -124q0 -84 -31.5 -154.5t-84.5 -121.5t-123.5 -80t-148.5 -29zM790 364q0 52 -19.5 98.5t-54.5 80.5t-83 54t-105 20
q-66 0 -124 -24t-102 -66.5t-69.5 -101t-25.5 -127.5q0 -53 19 -98.5t53.5 -79.5t82 -53.5t104.5 -19.5q65 0 123.5 23.5t103 65.5t71 100.5t26.5 127.5zM534 295l83 -148h-67l-82 148h-61l-31 -147h-60l78 369h170q28 0 48 -9t33.5 -23t20 -32t6.5 -36q0 -27 -10 -49.5
t-28 -38.5t-42.5 -25t-53.5 -9h-4zM612 413q0 20 -14 33.5t-40 13.5h-116l-23 -108h126q29 0 47.5 15.5t19.5 45.5z" />
    <glyph glyph-name="macron" unicode="&#xaf;" horiz-adv-x="462" 
d="M533 632l-13 -61h-336l13 61h336z" />
    <glyph glyph-name="degree" unicode="&#xb0;" horiz-adv-x="440" 
d="M346 671q34 0 62 -12t48 -32.5t30.5 -47.5t10.5 -56q0 -36 -15 -69t-40.5 -57.5t-59.5 -39t-73 -14.5q-35 0 -62.5 12t-47.5 32.5t-30.5 47.5t-10.5 56q0 36 14.5 69t40 57.5t60 39t73.5 14.5zM315 403q24 0 45 9.5t36.5 26t25 37t9.5 43.5q0 36 -24 64t-67 28
q-24 0 -45 -9.5t-36.5 -26t-25 -37.5t-9.5 -43q0 -36 24 -64t67 -28z" />
    <glyph glyph-name="plusminus" unicode="&#xb1;" horiz-adv-x="535" 
d="M491 63l-13 -63h-422l13 63h422zM303 326l31 148h66l-31 -148h178l-14 -63h-178l-31 -148h-66l31 148h-178l14 63h178z" />
    <glyph glyph-name="twosuperior" unicode="&#xb2;" horiz-adv-x="358" 
d="M320 501q23 16 38 32.5t15 38.5q0 23 -18 36t-44 13q-22 0 -44.5 -13t-31.5 -39h-58q7 22 21 41t32.5 33t40.5 21.5t45 7.5q54 0 83 -26t29 -65q0 -64 -69 -113l-122 -88h159l-11 -52h-244l11 52z" />
    <glyph glyph-name="threesuperior" unicode="&#xb3;" horiz-adv-x="358" 
d="M206 422q5 -25 24.5 -37.5t48.5 -12.5q34 0 53 17t19 40q0 19 -13.5 31.5t-40.5 12.5h-46l11 51h54q29 0 47.5 12.5t18.5 38.5q0 19 -16 32.5t-50 13.5q-29 0 -51 -13t-31 -35h-56q17 47 56.5 73t85.5 26q58 0 87.5 -29t29.5 -65q0 -23 -14 -48t-44 -38q27 -24 27 -59
q0 -22 -9 -42t-26.5 -35.5t-42 -25t-54.5 -9.5q-51 0 -84.5 25.5t-38.5 75.5h55z" />
    <glyph glyph-name="acute" unicode="&#xb4;" horiz-adv-x="333" 
d="M420 696l-167 -171h-82l167 171h82z" />
    <glyph glyph-name="mu" unicode="&#xb5;" horiz-adv-x="583" 
d="M292 -13q-42 0 -76.5 13.5t-57.5 39.5l-52 -244h-66l140 656h66l-54 -254q-5 -23 -5 -42q0 -46 25.5 -77.5t85.5 -31.5q28 0 56.5 10t53 29t42 47t25.5 64l54 255h66l-96 -452h-66l11 51q-27 -26 -66 -45t-86 -19z" />
    <glyph glyph-name="paragraph" unicode="&#xb6;" horiz-adv-x="624" 
d="M599 664h66l-174 -817h-66zM330 277h-21q-38 0 -69 12.5t-54 35t-35.5 53t-12.5 67.5q0 54 19.5 95t52 68.5t73.5 41.5t85 14h111l-174 -817h-66z" />
    <glyph glyph-name="periodcentered" unicode="&#xb7;" horiz-adv-x="217" 
d="M123 292h92l-19 -92h-92z" />
    <glyph glyph-name="cedilla" unicode="&#xb8;" horiz-adv-x="340" 
d="M281 6l-185 -190h-82l185 190h82z" />
    <glyph glyph-name="onesuperior" unicode="&#xb9;" horiz-adv-x="257" 
d="M256 604l-90 -65l14 65l83 61h61l-72 -337h-55z" />
    <glyph glyph-name="ordmasculine" unicode="&#xba;" horiz-adv-x="435" 
d="M494 523q0 -41 -15.5 -75.5t-41.5 -59.5t-60 -39t-72 -14q-33 0 -60.5 12t-47 32t-30.5 46.5t-11 56.5q0 41 15.5 75.5t41.5 60t60 39.5t72 14q33 0 60.5 -12t47 -32.5t30.5 -47t11 -56.5zM311 386q25 0 48.5 11t41 29t28 42t10.5 51q0 42 -26.5 71.5t-73.5 29.5
q-26 0 -49 -11t-40.5 -29.5t-28 -42.5t-10.5 -51q0 -42 26.5 -71t73.5 -29z" />
    <glyph glyph-name="guillemotright" unicode="&#xbb;" horiz-adv-x="515" 
d="M253 45l195 191l-114 173h82l99 -147l-15 -70l-154 -147h-93zM43 45l195 191l-114 173h82l99 -147l-15 -70l-154 -147h-93z" />
    <glyph glyph-name="onequarter" unicode="&#xbc;" horiz-adv-x="732" 
d="M247 603l-90 -65l14 65l83 61h61l-72 -337h-55zM640 664h70l-526 -664h-68zM665 217l-19 -92h59l-11 -51h-59l-16 -74h-55l16 74h-185l11 51l215 212h69l-215 -212h116l19 92h55z" />
    <glyph glyph-name="onehalf" unicode="&#xbd;" horiz-adv-x="752" 
d="M247 603l-90 -65l14 65l83 61h61l-72 -337h-55zM640 664h70l-526 -664h-68zM633 173q23 16 38 32.5t15 38.5q0 23 -18 36t-44 13q-22 0 -44.5 -13t-31.5 -39h-58q7 22 21 41t32.5 33t40.5 21.5t45 7.5q54 0 83 -26t29 -65q0 -64 -69 -113l-122 -88h159l-11 -52h-244
l11 52z" />
    <glyph glyph-name="threequarters" unicode="&#xbe;" horiz-adv-x="811" 
d="M718 664h70l-526 -664h-68zM743 217l-19 -92h59l-11 -51h-59l-16 -74h-55l16 74h-185l11 51l215 212h69l-215 -212h116l19 92h55zM194 421q5 -25 24.5 -37.5t48.5 -12.5q34 0 53 17t19 40q0 19 -13.5 31.5t-40.5 12.5h-46l11 51h54q29 0 47.5 12.5t18.5 38.5
q0 19 -16 32.5t-50 13.5q-29 0 -51 -13t-31 -35h-56q17 47 56.5 73t85.5 26q58 0 87.5 -29t29.5 -65q0 -23 -14 -48t-44 -38q27 -24 27 -59q0 -22 -9 -42t-26.5 -35.5t-42 -25t-54.5 -9.5q-51 0 -84.5 25.5t-38.5 75.5h55z" />
    <glyph glyph-name="questiondown" unicode="&#xbf;" horiz-adv-x="514" 
d="M234 -217q-33 0 -66.5 9t-60 27t-43 46t-16.5 67q0 36 11 62t29 46t40.5 35.5t45.5 29.5q31 19 50 32t30 24.5t16.5 25t10.5 35.5l7 34h71l-9 -40q-6 -28 -13.5 -48.5t-21 -38t-36.5 -34.5t-61 -37q-42 -22 -69.5 -50.5t-27.5 -74.5q0 -43 34.5 -65t82.5 -22
q57 0 93.5 27t52.5 74h74q-19 -73 -77 -118.5t-147 -45.5zM388 371h-81l18 81h81z" />
    <glyph glyph-name="Agrave" unicode="&#xc0;" horiz-adv-x="668" 
d="M561 159h-381l-104 -159h-76l433 664h85l150 -664h-70zM221 222h326l-84 370zM422 869l99 -151h-73l-99 151h73z" />
    <glyph glyph-name="Aacute" unicode="&#xc1;" horiz-adv-x="668" 
d="M561 159h-381l-104 -159h-76l433 664h85l150 -664h-70zM221 222h326l-84 370zM690 869l-163 -151h-82l163 151h82z" />
    <glyph glyph-name="Acircumflex" unicode="&#xc2;" horiz-adv-x="668" 
d="M561 159h-381l-104 -159h-76l433 664h85l150 -664h-70zM221 222h326l-84 370zM477 869h72l113 -151h-70l-83 103l-127 -103h-82z" />
    <glyph glyph-name="Atilde" unicode="&#xc3;" horiz-adv-x="668" 
d="M561 159h-381l-104 -159h-76l433 664h85l150 -664h-70zM221 222h326l-84 370zM574 779q48 0 68 90h60q-14 -68 -46.5 -109.5t-83.5 -41.5q-27 0 -45.5 14t-34.5 31t-30 31t-32 14q-49 0 -68 -90h-60q14 68 46.5 109.5t83.5 41.5q27 0 45.5 -14t34.5 -31t30 -31t32 -14z
" />
    <glyph glyph-name="Adieresis" unicode="&#xc4;" horiz-adv-x="668" 
d="M561 159h-381l-104 -159h-76l433 664h85l150 -664h-70zM221 222h326l-84 370zM549 828h80l-18 -86h-80zM388 828h80l-18 -86h-80z" />
    <glyph glyph-name="Aring" unicode="&#xc5;" horiz-adv-x="668" 
d="M561 159h-381l-104 -159h-76l433 664h85l150 -664h-70zM221 222h326l-84 370zM494 702q-26 0 -47 9.5t-36 25.5t-23.5 37t-8.5 45q0 30 12 55t32.5 44t46.5 29.5t54 10.5q26 0 47 -9.5t36 -25t23.5 -36.5t8.5 -45q0 -30 -12.5 -55.5t-32.5 -44t-46 -29.5t-54 -11z
M500 760q15 0 29.5 6t26 16.5t18.5 24.5t7 31q0 26 -17 44t-46 18q-15 0 -29.5 -5.5t-26 -16t-18.5 -24.5t-7 -31q0 -26 17 -44.5t46 -18.5z" />
    <glyph glyph-name="AE" unicode="&#xc6;" horiz-adv-x="979" 
d="M503 159h-287l-145 -159h-81l612 664h450l-14 -63h-373l-50 -238h366l-14 -63h-365l-51 -237h373l-13 -63h-442zM275 222h241l71 337z" />
    <glyph glyph-name="Ccedilla" unicode="&#xc7;" horiz-adv-x="711" 
d="M497 614q-61 0 -117 -24.5t-98.5 -68t-68 -103.5t-25.5 -131q0 -51 17 -94t48.5 -75t76.5 -50t100 -18q66 0 117 29t89 77h76q-48 -80 -124 -124t-164 -45l-166 -171h-82l174 179q-53 11 -96 38t-73 65.5t-46 86.5t-16 102q0 84 31.5 155.5t84.5 123.5t122.5 81.5
t145.5 29.5q104 0 172 -46.5t97 -122.5h-76q-29 53 -79.5 79.5t-119.5 26.5z" />
    <glyph glyph-name="Egrave" unicode="&#xc8;" horiz-adv-x="599" 
d="M285 601l-50 -238h366l-14 -63h-365l-51 -237h373l-13 -63h-442l141 664h442l-14 -63h-373zM439 869l99 -151h-73l-99 151h73z" />
    <glyph glyph-name="Eacute" unicode="&#xc9;" horiz-adv-x="599" 
d="M285 601l-50 -238h366l-14 -63h-365l-51 -237h373l-13 -63h-442l141 664h442l-14 -63h-373zM649 869l-163 -151h-82l163 151h82z" />
    <glyph glyph-name="Ecircumflex" unicode="&#xca;" horiz-adv-x="599" 
d="M285 601l-50 -238h366l-14 -63h-365l-51 -237h373l-13 -63h-442l141 664h442l-14 -63h-373zM460 869h72l113 -151h-70l-83 103l-127 -103h-82z" />
    <glyph glyph-name="Edieresis" unicode="&#xcb;" horiz-adv-x="599" 
d="M285 601l-50 -238h366l-14 -63h-365l-51 -237h373l-13 -63h-442l141 664h442l-14 -63h-373zM526 828h80l-18 -86h-80zM365 828h80l-18 -86h-80z" />
    <glyph glyph-name="Igrave" unicode="&#xcc;" horiz-adv-x="247" 
d="M158 0h-69l141 664h69zM216 869l99 -151h-73l-99 151h73z" />
    <glyph glyph-name="Iacute" unicode="&#xcd;" horiz-adv-x="247" 
d="M158 0h-69l141 664h69zM479 869l-163 -151h-82l163 151h82z" />
    <glyph glyph-name="Icircumflex" unicode="&#xce;" horiz-adv-x="247" 
d="M158 0h-69l141 664h69zM273 869h72l113 -151h-70l-83 103l-127 -103h-82z" />
    <glyph glyph-name="Idieresis" unicode="&#xcf;" horiz-adv-x="247" 
d="M158 0h-69l141 664h69zM341 828h80l-18 -86h-80zM180 828h80l-18 -86h-80z" />
    <glyph glyph-name="Eth" unicode="&#xd0;" horiz-adv-x="743" 
d="M474 664q76 0 132.5 -25t94.5 -66t57 -94t19 -108q0 -75 -29 -142.5t-81.5 -118.5t-125.5 -80.5t-161 -29.5h-268l63 300h-91l14 63h91l64 301h221zM257 363h235l-14 -63h-234l-50 -237h196q65 0 123 22t101.5 62.5t68.5 96.5t25 125q0 46 -15.5 88t-46.5 74t-76 51
t-103 19h-159z" />
    <glyph glyph-name="Ntilde" unicode="&#xd1;" horiz-adv-x="770" 
d="M822 664l-141 -664h-78l-324 574l-121 -574h-69l141 664h78l323 -574l122 574h69zM625 779q48 0 68 90h60q-14 -68 -46.5 -109.5t-83.5 -41.5q-27 0 -45.5 14t-34.5 31t-30 31t-32 14q-49 0 -68 -90h-60q14 68 46.5 109.5t83.5 41.5q27 0 45.5 -14t34.5 -31t30 -31
t32 -14z" />
    <glyph glyph-name="Ograve" unicode="&#xd2;" horiz-adv-x="772" 
d="M811 376q0 -85 -32.5 -156.5t-86.5 -123t-124 -80.5t-144 -29q-60 0 -115 21.5t-97 61.5t-67 95t-25 123q0 85 32.5 156.5t86.5 123t124 80.5t144 29q60 0 115 -21.5t97 -61.5t67 -95.5t25 -122.5zM433 50q60 0 116 24t98.5 67.5t68.5 103t26 131.5q0 51 -17.5 95
t-49.5 75.5t-77 49.5t-100 18q-60 0 -116 -24t-98.5 -67.5t-68.5 -103t-26 -131.5q0 -51 17.5 -95t49.5 -75.5t77 -49.5t100 -18zM474 869l99 -151h-73l-99 151h73z" />
    <glyph glyph-name="Oacute" unicode="&#xd3;" horiz-adv-x="772" 
d="M811 376q0 -85 -32.5 -156.5t-86.5 -123t-124 -80.5t-144 -29q-60 0 -115 21.5t-97 61.5t-67 95t-25 123q0 85 32.5 156.5t86.5 123t124 80.5t144 29q60 0 115 -21.5t97 -61.5t67 -95.5t25 -122.5zM433 50q60 0 116 24t98.5 67.5t68.5 103t26 131.5q0 51 -17.5 95
t-49.5 75.5t-77 49.5t-100 18q-60 0 -116 -24t-98.5 -67.5t-68.5 -103t-26 -131.5q0 -51 17.5 -95t49.5 -75.5t77 -49.5t100 -18zM737 869l-163 -151h-82l163 151h82z" />
    <glyph glyph-name="Ocircumflex" unicode="&#xd4;" horiz-adv-x="772" 
d="M811 376q0 -85 -32.5 -156.5t-86.5 -123t-124 -80.5t-144 -29q-60 0 -115 21.5t-97 61.5t-67 95t-25 123q0 85 32.5 156.5t86.5 123t124 80.5t144 29q60 0 115 -21.5t97 -61.5t67 -95.5t25 -122.5zM433 50q60 0 116 24t98.5 67.5t68.5 103t26 131.5q0 51 -17.5 95
t-49.5 75.5t-77 49.5t-100 18q-60 0 -116 -24t-98.5 -67.5t-68.5 -103t-26 -131.5q0 -51 17.5 -95t49.5 -75.5t77 -49.5t100 -18zM527 869h72l113 -151h-70l-83 103l-127 -103h-82z" />
    <glyph glyph-name="Otilde" unicode="&#xd5;" horiz-adv-x="772" 
d="M811 376q0 -85 -32.5 -156.5t-86.5 -123t-124 -80.5t-144 -29q-60 0 -115 21.5t-97 61.5t-67 95t-25 123q0 85 32.5 156.5t86.5 123t124 80.5t144 29q60 0 115 -21.5t97 -61.5t67 -95.5t25 -122.5zM433 50q60 0 116 24t98.5 67.5t68.5 103t26 131.5q0 51 -17.5 95
t-49.5 75.5t-77 49.5t-100 18q-60 0 -116 -24t-98.5 -67.5t-68.5 -103t-26 -131.5q0 -51 17.5 -95t49.5 -75.5t77 -49.5t100 -18zM619 779q48 0 68 90h60q-14 -68 -46.5 -109.5t-83.5 -41.5q-27 0 -45.5 14t-34.5 31t-30 31t-32 14q-49 0 -68 -90h-60q14 68 46.5 109.5
t83.5 41.5q27 0 45.5 -14t34.5 -31t30 -31t32 -14z" />
    <glyph glyph-name="Odieresis" unicode="&#xd6;" horiz-adv-x="772" 
d="M811 376q0 -85 -32.5 -156.5t-86.5 -123t-124 -80.5t-144 -29q-60 0 -115 21.5t-97 61.5t-67 95t-25 123q0 85 32.5 156.5t86.5 123t124 80.5t144 29q60 0 115 -21.5t97 -61.5t67 -95.5t25 -122.5zM433 50q60 0 116 24t98.5 67.5t68.5 103t26 131.5q0 51 -17.5 95
t-49.5 75.5t-77 49.5t-100 18q-60 0 -116 -24t-98.5 -67.5t-68.5 -103t-26 -131.5q0 -51 17.5 -95t49.5 -75.5t77 -49.5t100 -18zM595 828h80l-18 -86h-80zM434 828h80l-18 -86h-80z" />
    <glyph glyph-name="multiply" unicode="&#xd7;" horiz-adv-x="501" 
d="M412 49l-115 146l-178 -146l-39 53l177 144l-114 145l49 43l115 -146l178 146l38 -53l-177 -144l115 -144z" />
    <glyph glyph-name="Oslash" unicode="&#xd8;" horiz-adv-x="784" 
d="M811 376q0 -85 -32.5 -156.5t-86.5 -123t-124 -80.5t-144 -29q-58 0 -111.5 20t-95.5 58l-86 -78h-89l135 123q-27 36 -42 81t-15 97q0 85 32.5 156.5t86.5 123t124 80.5t144 29q58 0 111 -20.5t95 -58.5l87 79h89l-135 -123q26 -37 41.5 -81.5t15.5 -96.5zM189 288
q0 -75 37 -134l440 401q-32 28 -74.5 43.5t-93.5 15.5q-60 0 -116 -24t-98.5 -67.5t-68.5 -103t-26 -131.5zM433 50q60 0 116 24t98.5 67.5t68.5 103t26 131.5q0 76 -37 133l-440 -400q32 -28 74 -43.5t94 -15.5z" />
    <glyph glyph-name="Ugrave" unicode="&#xd9;" horiz-adv-x="740" 
d="M225 664h69l-79 -373q-8 -38 -8 -66q0 -85 53 -130t150 -45q90 0 149.5 50t81.5 153l87 411h69l-88 -418q-27 -127 -107 -193t-196 -66q-127 0 -197.5 61t-70.5 169q0 37 9 79zM473 869l99 -151h-73l-99 151h73z" />
    <glyph glyph-name="Uacute" unicode="&#xda;" horiz-adv-x="740" 
d="M225 664h69l-79 -373q-8 -38 -8 -66q0 -85 53 -130t150 -45q90 0 149.5 50t81.5 153l87 411h69l-88 -418q-27 -127 -107 -193t-196 -66q-127 0 -197.5 61t-70.5 169q0 37 9 79zM699 869l-163 -151h-82l163 151h82z" />
    <glyph glyph-name="Ucircumflex" unicode="&#xdb;" horiz-adv-x="740" 
d="M225 664h69l-79 -373q-8 -38 -8 -66q0 -85 53 -130t150 -45q90 0 149.5 50t81.5 153l87 411h69l-88 -418q-27 -127 -107 -193t-196 -66q-127 0 -197.5 61t-70.5 169q0 37 9 79zM512 869h72l113 -151h-70l-83 103l-127 -103h-82z" />
    <glyph glyph-name="Udieresis" unicode="&#xdc;" horiz-adv-x="740" 
d="M225 664h69l-79 -373q-8 -38 -8 -66q0 -85 53 -130t150 -45q90 0 149.5 50t81.5 153l87 411h69l-88 -418q-27 -127 -107 -193t-196 -66q-127 0 -197.5 61t-70.5 169q0 37 9 79zM575 828h80l-18 -86h-80zM414 828h80l-18 -86h-80z" />
    <glyph glyph-name="Yacute" unicode="&#xdd;" horiz-adv-x="560" 
d="M624 664h78l-335 -412l-53 -252h-69l53 252l-158 412h69l132 -349zM599 869l-163 -151h-82l163 151h82z" />
    <glyph glyph-name="Thorn" unicode="&#xde;" horiz-adv-x="654" 
d="M299 664l-29 -134h235q48 0 83 -15t58 -39.5t34 -55t11 -61.5q0 -45 -17.5 -83.5t-48.5 -66.5t-73 -44t-91 -16h-271l-32 -149h-69l141 664h69zM203 212h262q33 0 62 9.5t50 27.5t33 44.5t12 60.5q0 49 -33.5 81t-93.5 32h-238z" />
    <glyph glyph-name="germandbls" unicode="&#xdf;" horiz-adv-x="585" 
d="M504 334q31 -21 45.5 -53t14.5 -66q0 -44 -15 -83t-42 -68t-65 -46.5t-85 -17.5h-67l13 60h44q33 0 61 11t48 30.5t31 46t11 58.5q0 44 -30 75.5t-88 31.5h-24l12 61h39q31 0 58 10.5t47 29t31 43t11 53.5q0 48 -35.5 80t-95.5 32q-71 0 -114.5 -41.5t-59.5 -117.5
l-99 -463h-66l99 469q23 110 88 161.5t154 51.5q43 0 79 -12.5t62 -34t40 -52t14 -66.5q0 -62 -32.5 -110.5t-83.5 -72.5z" />
    <glyph glyph-name="agrave" unicode="&#xe0;" horiz-adv-x="542" 
d="M331 465q36 0 71.5 -8.5t64 -26.5t46 -47.5t17.5 -71.5q0 -20 -5 -43l-57 -268h-66l12 52q-32 -29 -76.5 -47t-91.5 -18q-76 0 -120.5 38t-44.5 97q0 43 16.5 73.5t43.5 49.5t61.5 27.5t70.5 8.5h188q2 8 3 16t1 14q0 24 -11 42t-30 29.5t-45.5 17t-56.5 5.5
q-54 0 -93 -21.5t-59 -54.5h-71q27 65 89.5 100.5t142.5 35.5zM449 221h-180q-52 0 -87 -23.5t-35 -70.5q0 -35 28 -57.5t80 -22.5q35 0 67 12t56.5 31.5t41.5 45t22 51.5zM327 696l94 -171h-70l-94 171h70z" />
    <glyph glyph-name="aacute" unicode="&#xe1;" horiz-adv-x="542" 
d="M331 465q36 0 71.5 -8.5t64 -26.5t46 -47.5t17.5 -71.5q0 -20 -5 -43l-57 -268h-66l12 52q-32 -29 -76.5 -47t-91.5 -18q-76 0 -120.5 38t-44.5 97q0 43 16.5 73.5t43.5 49.5t61.5 27.5t70.5 8.5h188q2 8 3 16t1 14q0 24 -11 42t-30 29.5t-45.5 17t-56.5 5.5
q-54 0 -93 -21.5t-59 -54.5h-71q27 65 89.5 100.5t142.5 35.5zM449 221h-180q-52 0 -87 -23.5t-35 -70.5q0 -35 28 -57.5t80 -22.5q35 0 67 12t56.5 31.5t41.5 45t22 51.5zM546 696l-167 -171h-82l167 171h82z" />
    <glyph glyph-name="acircumflex" unicode="&#xe2;" horiz-adv-x="542" 
d="M331 465q36 0 71.5 -8.5t64 -26.5t46 -47.5t17.5 -71.5q0 -20 -5 -43l-57 -268h-66l12 52q-32 -29 -76.5 -47t-91.5 -18q-76 0 -120.5 38t-44.5 97q0 43 16.5 73.5t43.5 49.5t61.5 27.5t70.5 8.5h188q2 8 3 16t1 14q0 24 -11 42t-30 29.5t-45.5 17t-56.5 5.5
q-54 0 -93 -21.5t-59 -54.5h-71q27 65 89.5 100.5t142.5 35.5zM449 221h-180q-52 0 -87 -23.5t-35 -70.5q0 -35 28 -57.5t80 -22.5q35 0 67 12t56.5 31.5t41.5 45t22 51.5zM361 696h75l108 -171h-69l-81 123l-132 -123h-80z" />
    <glyph glyph-name="atilde" unicode="&#xe3;" horiz-adv-x="542" 
d="M331 465q36 0 71.5 -8.5t64 -26.5t46 -47.5t17.5 -71.5q0 -20 -5 -43l-57 -268h-66l12 52q-32 -29 -76.5 -47t-91.5 -18q-76 0 -120.5 38t-44.5 97q0 43 16.5 73.5t43.5 49.5t61.5 27.5t70.5 8.5h188q2 8 3 16t1 14q0 24 -11 42t-30 29.5t-45.5 17t-56.5 5.5
q-54 0 -93 -21.5t-59 -54.5h-71q27 65 89.5 100.5t142.5 35.5zM449 221h-180q-52 0 -87 -23.5t-35 -70.5q0 -35 28 -57.5t80 -22.5q35 0 67 12t56.5 31.5t41.5 45t22 51.5zM451 590q48 0 68 90h60q-14 -68 -46.5 -109.5t-83.5 -41.5q-27 0 -45.5 14t-34.5 31t-30 31t-32 14
q-49 0 -68 -90h-60q14 68 46.5 109.5t83.5 41.5q27 0 45.5 -14t34.5 -31t30 -31t32 -14z" />
    <glyph glyph-name="adieresis" unicode="&#xe4;" horiz-adv-x="542" 
d="M331 465q36 0 71.5 -8.5t64 -26.5t46 -47.5t17.5 -71.5q0 -20 -5 -43l-57 -268h-66l12 52q-32 -29 -76.5 -47t-91.5 -18q-76 0 -120.5 38t-44.5 97q0 43 16.5 73.5t43.5 49.5t61.5 27.5t70.5 8.5h188q2 8 3 16t1 14q0 24 -11 42t-30 29.5t-45.5 17t-56.5 5.5
q-54 0 -93 -21.5t-59 -54.5h-71q27 65 89.5 100.5t142.5 35.5zM449 221h-180q-52 0 -87 -23.5t-35 -70.5q0 -35 28 -57.5t80 -22.5q35 0 67 12t56.5 31.5t41.5 45t22 51.5zM432 657h80l-18 -86h-80zM271 657h80l-18 -86h-80z" />
    <glyph glyph-name="aring" unicode="&#xe5;" horiz-adv-x="542" 
d="M331 465q36 0 71.5 -8.5t64 -26.5t46 -47.5t17.5 -71.5q0 -20 -5 -43l-57 -268h-66l12 52q-32 -29 -76.5 -47t-91.5 -18q-76 0 -120.5 38t-44.5 97q0 43 16.5 73.5t43.5 49.5t61.5 27.5t70.5 8.5h188q2 8 3 16t1 14q0 24 -11 42t-30 29.5t-45.5 17t-56.5 5.5
q-54 0 -93 -21.5t-59 -54.5h-71q27 65 89.5 100.5t142.5 35.5zM449 221h-180q-52 0 -87 -23.5t-35 -70.5q0 -35 28 -57.5t80 -22.5q35 0 67 12t56.5 31.5t41.5 45t22 51.5zM370 513q-26 0 -47 9.5t-36 25.5t-23.5 37t-8.5 45q0 30 12 55t32.5 44t46.5 29.5t54 10.5
q26 0 47 -9.5t36 -25t23.5 -36.5t8.5 -45q0 -30 -12.5 -55.5t-32.5 -44t-46 -29.5t-54 -11zM376 571q15 0 29.5 6t26 16.5t18.5 24.5t7 31q0 26 -17 44t-46 18q-15 0 -29.5 -5.5t-26 -16t-18.5 -24.5t-7 -31q0 -26 17 -44.5t46 -18.5z" />
    <glyph glyph-name="ae" unicode="&#xe6;" horiz-adv-x="896" 
d="M515 202v-6q0 -68 40 -108.5t108 -40.5q42 0 77.5 17.5t60.5 56.5h71q-33 -69 -90 -101.5t-123 -32.5q-60 0 -111.5 26t-80.5 86q-27 -33 -56 -54.5t-58 -34.5t-56.5 -18t-50.5 -5q-76 0 -120.5 38t-44.5 97q0 43 16.5 73.5t43.5 49.5t61.5 27.5t70.5 8.5h188q2 8 3 16
t1 14q0 24 -11 42t-30 29.5t-45.5 17t-56.5 5.5q-54 0 -93 -21.5t-59 -54.5h-71q27 65 89.5 100.5t142.5 35.5q27 0 54.5 -5t52 -15.5t44.5 -27t32 -39.5q35 41 84 64t106 23q45 0 81.5 -15t62.5 -41t40 -62.5t14 -78.5q0 -14 -1.5 -29t-7.5 -37h-378zM449 221h-180
q-52 0 -87 -23.5t-35 -70.5q0 -35 28 -57.5t80 -22.5q35 0 67 12t56.5 31.5t41.5 45t22 51.5zM698 405q-30 0 -58 -10.5t-51.5 -29t-40 -45t-23.5 -58.5h309q2 8 2 16q0 26 -9 49t-26.5 40.5t-43 27.5t-59.5 10z" />
    <glyph glyph-name="ccedilla" unicode="&#xe7;" horiz-adv-x="541" 
d="M487 331q-16 32 -50 53t-82 21q-39 0 -73.5 -16.5t-61 -45t-41.5 -66t-15 -79.5q0 -31 10.5 -58.5t29.5 -48t46 -32.5t60 -12q46 0 83 19.5t60 54.5h71q-30 -61 -81 -94t-111 -38l-168 -173h-82l172 177q-36 8 -64.5 26t-49 44.5t-31.5 59t-11 70.5q0 58 21.5 107.5
t58 86t84.5 57.5t100 21q73 0 125 -36.5t71 -97.5h-71z" />
    <glyph glyph-name="egrave" unicode="&#xe8;" horiz-adv-x="548" 
d="M165 202v-6q0 -68 40 -108.5t108 -40.5q42 0 77.5 17.5t60.5 56.5h71q-33 -69 -90 -101.5t-123 -32.5q-48 0 -87 15.5t-66.5 43t-42.5 65.5t-15 83q0 58 20 108t55 86t81.5 56.5t99.5 20.5q45 0 81.5 -15t62.5 -41t40 -62.5t14 -78.5q0 -14 -1.5 -29t-7.5 -37h-378z
M348 405q-30 0 -58 -10.5t-51.5 -29t-40 -45t-23.5 -58.5h309q2 8 2 16q0 26 -9 49t-26.5 40.5t-43 27.5t-59.5 10zM324 696l94 -171h-70l-94 171h70z" />
    <glyph glyph-name="eacute" unicode="&#xe9;" horiz-adv-x="548" 
d="M165 202v-6q0 -68 40 -108.5t108 -40.5q42 0 77.5 17.5t60.5 56.5h71q-33 -69 -90 -101.5t-123 -32.5q-48 0 -87 15.5t-66.5 43t-42.5 65.5t-15 83q0 58 20 108t55 86t81.5 56.5t99.5 20.5q45 0 81.5 -15t62.5 -41t40 -62.5t14 -78.5q0 -14 -1.5 -29t-7.5 -37h-378z
M348 405q-30 0 -58 -10.5t-51.5 -29t-40 -45t-23.5 -58.5h309q2 8 2 16q0 26 -9 49t-26.5 40.5t-43 27.5t-59.5 10zM565 696l-167 -171h-82l167 171h82z" />
    <glyph glyph-name="ecircumflex" unicode="&#xea;" horiz-adv-x="548" 
d="M165 202v-6q0 -68 40 -108.5t108 -40.5q42 0 77.5 17.5t60.5 56.5h71q-33 -69 -90 -101.5t-123 -32.5q-48 0 -87 15.5t-66.5 43t-42.5 65.5t-15 83q0 58 20 108t55 86t81.5 56.5t99.5 20.5q45 0 81.5 -15t62.5 -41t40 -62.5t14 -78.5q0 -14 -1.5 -29t-7.5 -37h-378z
M348 405q-30 0 -58 -10.5t-51.5 -29t-40 -45t-23.5 -58.5h309q2 8 2 16q0 26 -9 49t-26.5 40.5t-43 27.5t-59.5 10zM376 696h75l108 -171h-69l-81 123l-132 -123h-80z" />
    <glyph glyph-name="edieresis" unicode="&#xeb;" horiz-adv-x="548" 
d="M165 202v-6q0 -68 40 -108.5t108 -40.5q42 0 77.5 17.5t60.5 56.5h71q-33 -69 -90 -101.5t-123 -32.5q-48 0 -87 15.5t-66.5 43t-42.5 65.5t-15 83q0 58 20 108t55 86t81.5 56.5t99.5 20.5q45 0 81.5 -15t62.5 -41t40 -62.5t14 -78.5q0 -14 -1.5 -29t-7.5 -37h-378z
M348 405q-30 0 -58 -10.5t-51.5 -29t-40 -45t-23.5 -58.5h309q2 8 2 16q0 26 -9 49t-26.5 40.5t-43 27.5t-59.5 10zM444 657h80l-18 -86h-80zM283 657h80l-18 -86h-80z" />
    <glyph glyph-name="igrave" unicode="&#xec;" horiz-adv-x="238" 
d="M164 696l94 -171h-70l-94 171h70zM248 452l-96 -452h-66l96 452h66z" />
    <glyph glyph-name="iacute" unicode="&#xed;" horiz-adv-x="238" 
d="M432 696l-167 -171h-82l167 171h82zM248 452l-96 -452h-66l96 452h66z" />
    <glyph glyph-name="icircumflex" unicode="&#xee;" horiz-adv-x="238" 
d="M248 452l-96 -452h-66l96 452h66zM226 696h75l108 -171h-69l-81 123l-132 -123h-80z" />
    <glyph glyph-name="idieresis" unicode="&#xef;" horiz-adv-x="238" 
d="M297 657h80l-18 -86h-80zM136 657h80l-18 -86h-80zM248 452l-96 -452h-66l96 452h66z" />
    <glyph glyph-name="eth" unicode="&#xf0;" horiz-adv-x="562" 
d="M393 605l151 65l-12 -63l-112 -49l94 -167q44 -80 44 -152q0 -53 -20.5 -99t-55.5 -80t-82 -53.5t-100 -19.5q-47 0 -85 16.5t-64.5 44.5t-41 64.5t-14.5 77.5q0 54 21 100.5t56 81t80.5 54.5t95.5 20q15 0 37 -2.5t37 -10.5l-58 101l-160 -70l12 65l122 52l-50 88h70z
M347 386q-38 0 -71.5 -15.5t-59 -41.5t-40.5 -61.5t-15 -74.5q0 -30 9.5 -56.5t28.5 -46.5t45.5 -31.5t61.5 -11.5q38 0 71.5 15.5t59 41.5t40.5 61.5t15 74.5q0 30 -9.5 56.5t-28.5 46.5t-46 31.5t-61 11.5z" />
    <glyph glyph-name="ntilde" unicode="&#xf1;" horiz-adv-x="578" 
d="M390 465q36 0 68 -10.5t55.5 -31t37 -51.5t13.5 -71q0 -26 -6 -53l-53 -248h-66l54 254q5 23 5 42q0 46 -26.5 77.5t-87.5 31.5q-29 0 -58 -10t-53.5 -29t-43 -47t-25.5 -64l-54 -255h-66l96 452h66l-11 -51q27 26 67 45t88 19zM489 590q48 0 68 90h60
q-14 -68 -46.5 -109.5t-83.5 -41.5q-27 0 -45.5 14t-34.5 31t-30 31t-32 14q-49 0 -68 -90h-60q14 68 46.5 109.5t83.5 41.5q27 0 45.5 -14t34.5 -31t30 -31t32 -14z" />
    <glyph glyph-name="ograve" unicode="&#xf2;" horiz-adv-x="570" 
d="M569 260q0 -60 -21 -110t-57 -86t-83.5 -56.5t-99.5 -20.5q-47 0 -85 16t-65 43.5t-42 65t-15 80.5q0 60 21 110t57 86t83.5 56.5t99.5 20.5q47 0 85 -16t65 -43.5t42 -65t15 -80.5zM313 47q39 0 74 17t60.5 45.5t40.5 66.5t15 80q0 31 -10 58t-28.5 47t-46 32t-61.5 12
q-39 0 -74 -17t-60.5 -45.5t-40.5 -66.5t-15 -80q0 -31 10 -58t28.5 -47.5t45.5 -32t62 -11.5zM337 696l94 -171h-70l-94 171h70z" />
    <glyph glyph-name="oacute" unicode="&#xf3;" horiz-adv-x="570" 
d="M569 260q0 -60 -21 -110t-57 -86t-83.5 -56.5t-99.5 -20.5q-47 0 -85 16t-65 43.5t-42 65t-15 80.5q0 60 21 110t57 86t83.5 56.5t99.5 20.5q47 0 85 -16t65 -43.5t42 -65t15 -80.5zM313 47q39 0 74 17t60.5 45.5t40.5 66.5t15 80q0 31 -10 58t-28.5 47t-46 32t-61.5 12
q-39 0 -74 -17t-60.5 -45.5t-40.5 -66.5t-15 -80q0 -31 10 -58t28.5 -47.5t45.5 -32t62 -11.5zM585 696l-167 -171h-82l167 171h82z" />
    <glyph glyph-name="ocircumflex" unicode="&#xf4;" horiz-adv-x="570" 
d="M569 260q0 -60 -21 -110t-57 -86t-83.5 -56.5t-99.5 -20.5q-47 0 -85 16t-65 43.5t-42 65t-15 80.5q0 60 21 110t57 86t83.5 56.5t99.5 20.5q47 0 85 -16t65 -43.5t42 -65t15 -80.5zM313 47q39 0 74 17t60.5 45.5t40.5 66.5t15 80q0 31 -10 58t-28.5 47t-46 32t-61.5 12
q-39 0 -74 -17t-60.5 -45.5t-40.5 -66.5t-15 -80q0 -31 10 -58t28.5 -47.5t45.5 -32t62 -11.5zM389 696h75l108 -171h-69l-81 123l-132 -123h-80z" />
    <glyph glyph-name="otilde" unicode="&#xf5;" horiz-adv-x="570" 
d="M569 260q0 -60 -21 -110t-57 -86t-83.5 -56.5t-99.5 -20.5q-47 0 -85 16t-65 43.5t-42 65t-15 80.5q0 60 21 110t57 86t83.5 56.5t99.5 20.5q47 0 85 -16t65 -43.5t42 -65t15 -80.5zM313 47q39 0 74 17t60.5 45.5t40.5 66.5t15 80q0 31 -10 58t-28.5 47t-46 32t-61.5 12
q-39 0 -74 -17t-60.5 -45.5t-40.5 -66.5t-15 -80q0 -31 10 -58t28.5 -47.5t45.5 -32t62 -11.5zM480 590q48 0 68 90h60q-14 -68 -46.5 -109.5t-83.5 -41.5q-27 0 -45.5 14t-34.5 31t-30 31t-32 14q-49 0 -68 -90h-60q14 68 46.5 109.5t83.5 41.5q27 0 45.5 -14t34.5 -31
t30 -31t32 -14z" />
    <glyph glyph-name="odieresis" unicode="&#xf6;" horiz-adv-x="570" 
d="M569 260q0 -60 -21 -110t-57 -86t-83.5 -56.5t-99.5 -20.5q-47 0 -85 16t-65 43.5t-42 65t-15 80.5q0 60 21 110t57 86t83.5 56.5t99.5 20.5q47 0 85 -16t65 -43.5t42 -65t15 -80.5zM313 47q39 0 74 17t60.5 45.5t40.5 66.5t15 80q0 31 -10 58t-28.5 47t-46 32t-61.5 12
q-39 0 -74 -17t-60.5 -45.5t-40.5 -66.5t-15 -80q0 -31 10 -58t28.5 -47.5t45.5 -32t62 -11.5zM460 657h80l-18 -86h-80zM299 657h80l-18 -86h-80z" />
    <glyph glyph-name="divide" unicode="&#xf7;" horiz-adv-x="535" 
d="M310 439h100l-21 -100h-100zM248 150h100l-21 -100h-100zM536 276l-13 -63h-422l13 63h422z" />
    <glyph glyph-name="oslash" unicode="&#xf8;" horiz-adv-x="570" 
d="M569 260q0 -60 -21 -110t-57 -86t-83.5 -56.5t-99.5 -20.5q-41 0 -74.5 12t-59.5 33l-47 -45h-81l89 86q-34 51 -34 119q0 60 21 110t57 86t83.5 56.5t99.5 20.5q40 0 74 -12t60 -33l47 45h81l-90 -87q17 -25 26 -55t9 -63zM167 196q0 -42 17 -76l265 255q-38 30 -92 30
q-39 0 -74 -17t-60.5 -45.5t-40.5 -66.5t-15 -80zM313 47q39 0 74 17t60.5 45.5t40.5 66.5t15 80t-18 75l-265 -254q38 -30 93 -30z" />
    <glyph glyph-name="ugrave" unicode="&#xf9;" horiz-adv-x="572" 
d="M281 -13q-36 0 -67 10.5t-54.5 30.5t-36.5 50.5t-13 71.5q0 27 6 54l53 248h66l-54 -254q-5 -23 -5 -43q0 -46 25.5 -77t85.5 -31q28 0 56.5 10t53 29t42 47t25.5 64l54 255h66l-96 -452h-66l11 51q-27 -26 -66 -45t-86 -19zM335 696l94 -171h-70l-94 171h70z" />
    <glyph glyph-name="uacute" unicode="&#xfa;" horiz-adv-x="572" 
d="M281 -13q-36 0 -67 10.5t-54.5 30.5t-36.5 50.5t-13 71.5q0 27 6 54l53 248h66l-54 -254q-5 -23 -5 -43q0 -46 25.5 -77t85.5 -31q28 0 56.5 10t53 29t42 47t25.5 64l54 255h66l-96 -452h-66l11 51q-27 -26 -66 -45t-86 -19zM587 696l-167 -171h-82l167 171h82z" />
    <glyph glyph-name="ucircumflex" unicode="&#xfb;" horiz-adv-x="572" 
d="M281 -13q-36 0 -67 10.5t-54.5 30.5t-36.5 50.5t-13 71.5q0 27 6 54l53 248h66l-54 -254q-5 -23 -5 -43q0 -46 25.5 -77t85.5 -31q28 0 56.5 10t53 29t42 47t25.5 64l54 255h66l-96 -452h-66l11 51q-27 -26 -66 -45t-86 -19zM389 696h75l108 -171h-69l-81 123l-132 -123
h-80z" />
    <glyph glyph-name="udieresis" unicode="&#xfc;" horiz-adv-x="572" 
d="M281 -13q-36 0 -67 10.5t-54.5 30.5t-36.5 50.5t-13 71.5q0 27 6 54l53 248h66l-54 -254q-5 -23 -5 -43q0 -46 25.5 -77t85.5 -31q28 0 56.5 10t53 29t42 47t25.5 64l54 255h66l-96 -452h-66l11 51q-27 -26 -66 -45t-86 -19zM449 657h80l-18 -86h-80zM288 657h80l-18 -86
h-80z" />
    <glyph glyph-name="yacute" unicode="&#xfd;" horiz-adv-x="501" 
d="M172 452l90 -374l250 374h75l-305 -455q-33 -49 -56 -86.5t-46 -63t-49 -38.5t-65 -13h-37l13 60h16q21 0 36.5 5t29.5 17t28.5 32t32.5 50l27 45l-107 447h67zM540 696l-167 -171h-82l167 171h82z" />
    <glyph glyph-name="thorn" unicode="&#xfe;" horiz-adv-x="593" 
d="M40 -204l186 873h66l-57 -268q23 24 64.5 44t91.5 20q51 0 89.5 -17t64.5 -45t39 -65t13 -76q0 -54 -18.5 -103.5t-52.5 -88t-81.5 -61t-105.5 -22.5q-33 0 -61 8t-49.5 20.5t-37.5 29t-25 33.5l-60 -282h-66zM531 258q0 36 -11.5 63.5t-31 46t-45.5 28t-56 9.5
q-41 0 -76 -17.5t-61 -47t-41 -67.5t-15 -79q0 -36 11 -63.5t30.5 -46t46 -28t56.5 -9.5q40 0 75.5 17.5t61.5 46.5t41 67.5t15 79.5z" />
    <glyph glyph-name="ydieresis" unicode="&#xff;" horiz-adv-x="501" 
d="M172 452l90 -374l250 374h75l-305 -455q-33 -49 -56 -86.5t-46 -63t-49 -38.5t-65 -13h-37l13 60h16q21 0 36.5 5t29.5 17t28.5 32t32.5 50l27 45l-107 447h67zM420 657h80l-18 -86h-80zM259 657h80l-18 -86h-80z" />
    <glyph glyph-name="Amacron" unicode="&#x100;" horiz-adv-x="668" 
d="M561 159h-381l-104 -159h-76l433 664h85l150 -664h-70zM221 222h326l-84 370zM672 800l-13 -61h-336l13 61h336z" />
    <glyph glyph-name="amacron" unicode="&#x101;" horiz-adv-x="542" 
d="M331 465q36 0 71.5 -8.5t64 -26.5t46 -47.5t17.5 -71.5q0 -20 -5 -43l-57 -268h-66l12 52q-32 -29 -76.5 -47t-91.5 -18q-76 0 -120.5 38t-44.5 97q0 43 16.5 73.5t43.5 49.5t61.5 27.5t70.5 8.5h188q2 8 3 16t1 14q0 24 -11 42t-30 29.5t-45.5 17t-56.5 5.5
q-54 0 -93 -21.5t-59 -54.5h-71q27 65 89.5 100.5t142.5 35.5zM449 221h-180q-52 0 -87 -23.5t-35 -70.5q0 -35 28 -57.5t80 -22.5q35 0 67 12t56.5 31.5t41.5 45t22 51.5zM562 632l-13 -61h-336l13 61h336z" />
    <glyph glyph-name="Abreve" unicode="&#x102;" horiz-adv-x="668" 
d="M561 159h-381l-104 -159h-76l433 664h85l150 -664h-70zM221 222h326l-84 370zM690 869q-20 -68 -70 -109.5t-119 -41.5q-39 0 -68.5 13t-50 34.5t-30.5 48.5t-8 55h61q-1 -16 4.5 -32t18 -29t31 -21t43.5 -8q46 0 78.5 26t47.5 64h62z" />
    <glyph glyph-name="abreve" unicode="&#x103;" horiz-adv-x="542" 
d="M331 465q36 0 71.5 -8.5t64 -26.5t46 -47.5t17.5 -71.5q0 -20 -5 -43l-57 -268h-66l12 52q-32 -29 -76.5 -47t-91.5 -18q-76 0 -120.5 38t-44.5 97q0 43 16.5 73.5t43.5 49.5t61.5 27.5t70.5 8.5h188q2 8 3 16t1 14q0 24 -11 42t-30 29.5t-45.5 17t-56.5 5.5
q-54 0 -93 -21.5t-59 -54.5h-71q27 65 89.5 100.5t142.5 35.5zM449 221h-180q-52 0 -87 -23.5t-35 -70.5q0 -35 28 -57.5t80 -22.5q35 0 67 12t56.5 31.5t41.5 45t22 51.5zM292 696q-1 -5 -1 -10v-9q0 -16 6 -32.5t18 -29.5t30.5 -21t43.5 -8q52 0 85.5 32.5t45.5 77.5h61
q-8 -38 -25.5 -69t-42.5 -54t-57 -35.5t-68 -12.5q-39 0 -68.5 12.5t-49.5 33t-30 47.5t-10 56q0 4 0.5 11t1.5 11h60z" />
    <glyph glyph-name="Aogonek" unicode="&#x104;" horiz-adv-x="668" 
d="M221 222h326l-85 369zM561 159h-381l-104 -159h-76l433 664h85l150 -664q-15 -12 -35 -26.5t-38 -30t-30 -31t-12 -28.5q0 -25 44 -25h41l-14 -63h-40q-51 0 -74.5 17.5t-23.5 48.5q0 39 32 73.5t80 64.5z" />
    <glyph glyph-name="aogonek" unicode="&#x105;" horiz-adv-x="542" 
d="M331 465q36 0 71.5 -8.5t64 -26.5t46 -47.5t17.5 -71.5q0 -20 -5 -43l-57 -268q-15 -12 -35 -26.5t-38 -30t-30 -31t-12 -28.5q0 -25 44 -25h41l-14 -63h-40q-51 0 -74.5 17.5t-23.5 48.5q0 39 33 74.5t83 63.5l12 52q-32 -29 -76.5 -47t-91.5 -18q-76 0 -120.5 38
t-44.5 97q0 43 16.5 73.5t43.5 49.5t61.5 27.5t70.5 8.5h188q2 8 3 16t1 14q0 24 -11 42t-30 29.5t-45.5 17t-56.5 5.5q-54 0 -93 -21.5t-59 -54.5h-71q27 65 89.5 100.5t142.5 35.5zM449 221h-180q-52 0 -87 -23.5t-35 -70.5q0 -35 28 -57.5t80 -22.5q35 0 67 12t56.5 31.5
t41.5 45t22 51.5z" />
    <glyph glyph-name="Cacute" unicode="&#x106;" horiz-adv-x="711" 
d="M498 614q-61 0 -117 -24.5t-98.5 -68t-68 -103.5t-25.5 -131q0 -51 17 -94t48.5 -75t76.5 -50t100 -18q66 0 117 29t89 77h76q-48 -80 -125 -124.5t-164 -44.5q-69 0 -125 23.5t-95.5 64t-61.5 95t-22 117.5q0 84 31.5 155.5t84.5 123.5t122.5 81.5t145.5 29.5
q104 0 171.5 -46.5t97.5 -122.5h-76q-29 53 -79.5 79.5t-119.5 26.5zM717 869l-163 -151h-82l163 151h82z" />
    <glyph glyph-name="cacute" unicode="&#x107;" horiz-adv-x="541" 
d="M487 331q-16 32 -50 53t-82 21q-39 0 -73.5 -16.5t-61 -45t-41.5 -66t-15 -79.5q0 -31 10.5 -58.5t29.5 -48t46 -32.5t60 -12q46 0 83 19.5t60 54.5h71q-33 -67 -91.5 -100.5t-125.5 -33.5q-47 0 -85.5 15.5t-66 43.5t-42.5 65.5t-15 81.5q0 58 21.5 108t58 86.5t84 57
t100.5 20.5q73 0 125 -36.5t71 -97.5h-71zM573 696l-167 -171h-82l167 171h82z" />
    <glyph glyph-name="Ccircumflex" unicode="&#x108;" horiz-adv-x="711" 
d="M498 614q-61 0 -117 -24.5t-98.5 -68t-68 -103.5t-25.5 -131q0 -51 17 -94t48.5 -75t76.5 -50t100 -18q66 0 117 29t89 77h76q-48 -80 -125 -124.5t-164 -44.5q-69 0 -125 23.5t-95.5 64t-61.5 95t-22 117.5q0 84 31.5 155.5t84.5 123.5t122.5 81.5t145.5 29.5
q104 0 171.5 -46.5t97.5 -122.5h-76q-29 53 -79.5 79.5t-119.5 26.5zM526 869h72l113 -151h-70l-83 103l-127 -103h-82z" />
    <glyph glyph-name="ccircumflex" unicode="&#x109;" horiz-adv-x="541" 
d="M487 331q-16 32 -50 53t-82 21q-39 0 -73.5 -16.5t-61 -45t-41.5 -66t-15 -79.5q0 -31 10.5 -58.5t29.5 -48t46 -32.5t60 -12q46 0 83 19.5t60 54.5h71q-33 -67 -91.5 -100.5t-125.5 -33.5q-47 0 -85.5 15.5t-66 43.5t-42.5 65.5t-15 81.5q0 58 21.5 108t58 86.5t84 57
t100.5 20.5q73 0 125 -36.5t71 -97.5h-71zM387 696h75l108 -171h-69l-81 123l-132 -123h-80z" />
    <glyph glyph-name="Cdotaccent" unicode="&#x10a;" horiz-adv-x="711" 
d="M498 614q-61 0 -117 -24.5t-98.5 -68t-68 -103.5t-25.5 -131q0 -51 17 -94t48.5 -75t76.5 -50t100 -18q66 0 117 29t89 77h76q-48 -80 -125 -124.5t-164 -44.5q-69 0 -125 23.5t-95.5 64t-61.5 95t-22 117.5q0 84 31.5 155.5t84.5 123.5t122.5 81.5t145.5 29.5
q104 0 171.5 -46.5t97.5 -122.5h-76q-29 53 -79.5 79.5t-119.5 26.5zM508 838h75l-18 -81h-75z" />
    <glyph glyph-name="cdotaccent" unicode="&#x10b;" horiz-adv-x="541" 
d="M487 331q-16 32 -50 53t-82 21q-39 0 -73.5 -16.5t-61 -45t-41.5 -66t-15 -79.5q0 -31 10.5 -58.5t29.5 -48t46 -32.5t60 -12q46 0 83 19.5t60 54.5h71q-33 -67 -91.5 -100.5t-125.5 -33.5q-47 0 -85.5 15.5t-66 43.5t-42.5 65.5t-15 81.5q0 58 21.5 108t58 86.5t84 57
t100.5 20.5q73 0 125 -36.5t71 -97.5h-71zM373 659h81l-19 -88h-81z" />
    <glyph glyph-name="Ccaron" unicode="&#x10c;" horiz-adv-x="711" 
d="M498 614q-61 0 -117 -24.5t-98.5 -68t-68 -103.5t-25.5 -131q0 -51 17 -94t48.5 -75t76.5 -50t100 -18q66 0 117 29t89 77h76q-48 -80 -125 -124.5t-164 -44.5q-69 0 -125 23.5t-95.5 64t-61.5 95t-22 117.5q0 84 31.5 155.5t84.5 123.5t122.5 81.5t145.5 29.5
q104 0 171.5 -46.5t97.5 -122.5h-76q-29 53 -79.5 79.5t-119.5 26.5zM565 718h-72l-113 151h70l83 -103l127 103h82z" />
    <glyph glyph-name="ccaron" unicode="&#x10d;" horiz-adv-x="541" 
d="M487 331q-16 32 -50 53t-82 21q-39 0 -73.5 -16.5t-61 -45t-41.5 -66t-15 -79.5q0 -31 10.5 -58.5t29.5 -48t46 -32.5t60 -12q46 0 83 19.5t60 54.5h71q-33 -67 -91.5 -100.5t-125.5 -33.5q-47 0 -85.5 15.5t-66 43.5t-42.5 65.5t-15 81.5q0 58 21.5 108t58 86.5t84 57
t100.5 20.5q73 0 125 -36.5t71 -97.5h-71zM420 525h-75l-108 171h69l81 -123l132 123h80z" />
    <glyph glyph-name="Dcaron" unicode="&#x10e;" horiz-adv-x="720" 
d="M451 664q76 0 132.5 -25t94.5 -66t57 -94t19 -108q0 -75 -29 -142.5t-81.5 -118.5t-125.5 -80.5t-161 -29.5h-268l141 664h221zM171 63h196q65 0 123 22t101.5 62.5t68.5 96.5t25 125q0 46 -15.5 88t-46.5 74t-76 51t-103 19h-159zM522 718h-72l-113 151h70l83 -103
l127 103h82z" />
    <glyph glyph-name="dcaron" unicode="&#x10f;" horiz-adv-x="706" 
d="M652 669l-142 -669h-66l11 52q-12 -12 -28.5 -23.5t-37 -21t-43.5 -15t-48 -5.5q-51 0 -89.5 17t-64.5 45t-39 65t-13 76q0 54 18.5 103.5t52.5 88t81.5 61t105.5 22.5q33 0 61 -8t49.5 -20.5t37.5 -29t25 -33.5l63 295h66zM158 194q0 -36 11 -63.5t30.5 -46t46 -28
t56.5 -9.5q40 0 75.5 17.5t61.5 46.5t41 67.5t15 79.5q0 36 -11.5 63.5t-31 46t-45.5 28t-56 9.5q-41 0 -76 -17.5t-61 -47t-41 -67.5t-15 -79zM694 465l87 107h-45l19 92h92l-21 -100l-81 -99h-51z" />
    <glyph glyph-name="Dcroat" unicode="&#x110;" horiz-adv-x="743" 
d="M474 664q76 0 132.5 -25t94.5 -66t57 -94t19 -108q0 -75 -29 -142.5t-81.5 -118.5t-125.5 -80.5t-161 -29.5h-268l63 300h-91l14 63h91l64 301h221zM257 363h235l-14 -63h-234l-50 -237h196q65 0 123 22t101.5 62.5t68.5 96.5t25 125q0 46 -15.5 88t-46.5 74t-76 51
t-103 19h-159z" />
    <glyph glyph-name="dcroat" unicode="&#x111;" horiz-adv-x="597" 
d="M651 669l-16 -75h79l-13 -60h-79l-113 -534h-66l11 52q-12 -12 -28.5 -23.5t-37 -21t-43.5 -15t-48 -5.5q-51 0 -89.5 17t-64.5 45t-39 65t-13 76q0 54 18.5 103.5t52.5 88t81.5 61t105.5 22.5q33 0 61 -8t49.5 -20.5t37.5 -29t25 -33.5l34 160h-152l13 60h152l16 75h66z
M157 194q0 -36 11 -63.5t30.5 -46t46 -28t56.5 -9.5q40 0 75.5 17.5t61.5 46.5t41 67.5t15 79.5q0 36 -11.5 63.5t-31 46t-45.5 28t-56 9.5q-41 0 -76 -17.5t-61 -47t-41 -67.5t-15 -79z" />
    <glyph glyph-name="Emacron" unicode="&#x112;" horiz-adv-x="599" 
d="M285 601l-50 -238h366l-14 -63h-365l-51 -237h373l-13 -63h-442l141 664h442l-14 -63h-373zM648 800l-13 -61h-336l13 61h336z" />
    <glyph glyph-name="emacron" unicode="&#x113;" horiz-adv-x="548" 
d="M165 202v-6q0 -68 40 -108.5t108 -40.5q42 0 77.5 17.5t60.5 56.5h71q-33 -69 -90 -101.5t-123 -32.5q-48 0 -87 15.5t-66.5 43t-42.5 65.5t-15 83q0 58 20 108t55 86t81.5 56.5t99.5 20.5q45 0 81.5 -15t62.5 -41t40 -62.5t14 -78.5q0 -14 -1.5 -29t-7.5 -37h-378z
M348 405q-30 0 -58 -10.5t-51.5 -29t-40 -45t-23.5 -58.5h309q2 8 2 16q0 26 -9 49t-26.5 40.5t-43 27.5t-59.5 10zM578 632l-13 -61h-336l13 61h336z" />
    <glyph glyph-name="Ebreve" unicode="&#x114;" horiz-adv-x="599" 
d="M285 601l-50 -238h366l-14 -63h-365l-51 -237h373l-13 -63h-442l141 664h442l-14 -63h-373zM655 869q-20 -68 -70 -109.5t-119 -41.5q-39 0 -68.5 13t-50 34.5t-30.5 48.5t-8 55h61q-1 -16 4.5 -32t18 -29t31 -21t43.5 -8q46 0 78.5 26t47.5 64h62z" />
    <glyph glyph-name="ebreve" unicode="&#x115;" horiz-adv-x="548" 
d="M165 202v-6q0 -68 40 -108.5t108 -40.5q42 0 77.5 17.5t60.5 56.5h71q-33 -69 -90 -101.5t-123 -32.5q-48 0 -87 15.5t-66.5 43t-42.5 65.5t-15 83q0 58 20 108t55 86t81.5 56.5t99.5 20.5q45 0 81.5 -15t62.5 -41t40 -62.5t14 -78.5q0 -14 -1.5 -29t-7.5 -37h-378z
M348 405q-30 0 -58 -10.5t-51.5 -29t-40 -45t-23.5 -58.5h309q2 8 2 16q0 26 -9 49t-26.5 40.5t-43 27.5t-59.5 10zM297 696q-1 -5 -1 -10v-9q0 -16 6 -32.5t18 -29.5t30.5 -21t43.5 -8q52 0 85.5 32.5t45.5 77.5h61q-8 -38 -25.5 -69t-42.5 -54t-57 -35.5t-68 -12.5
q-39 0 -68.5 12.5t-49.5 33t-30 47.5t-10 56q0 4 0.5 11t1.5 11h60z" />
    <glyph glyph-name="Edotaccent" unicode="&#x116;" horiz-adv-x="599" 
d="M285 601l-50 -238h366l-14 -63h-365l-51 -237h373l-13 -63h-442l141 664h442l-14 -63h-373zM446 838h75l-18 -81h-75z" />
    <glyph glyph-name="edotaccent" unicode="&#x117;" horiz-adv-x="548" 
d="M165 202v-6q0 -68 40 -108.5t108 -40.5q42 0 77.5 17.5t60.5 56.5h71q-33 -69 -90 -101.5t-123 -32.5q-48 0 -87 15.5t-66.5 43t-42.5 65.5t-15 83q0 58 20 108t55 86t81.5 56.5t99.5 20.5q45 0 81.5 -15t62.5 -41t40 -62.5t14 -78.5q0 -14 -1.5 -29t-7.5 -37h-378z
M348 405q-30 0 -58 -10.5t-51.5 -29t-40 -45t-23.5 -58.5h309q2 8 2 16q0 26 -9 49t-26.5 40.5t-43 27.5t-59.5 10zM362 659h81l-19 -88h-81z" />
    <glyph glyph-name="Eogonek" unicode="&#x118;" horiz-adv-x="599" 
d="M89 0l141 664h442l-14 -63h-373l-50 -238h366l-14 -63h-366l-50 -237h373l-13 -63q-15 -12 -35 -26.5t-38 -30t-30 -31t-12 -28.5q0 -25 44 -25h41l-14 -63h-40q-51 0 -74.5 17.5t-23.5 48.5q0 39 31 72.5t76 65.5h-367z" />
    <glyph glyph-name="eogonek" unicode="&#x119;" horiz-adv-x="548" 
d="M165 202v-6q0 -68 40 -108.5t108 -40.5q42 0 77.5 17.5t60.5 56.5h71q-24 -50 -60 -79.5t-84 -52.5q-18 -8 -37 -20.5t-34.5 -27t-25.5 -29.5t-10 -28q0 -25 44 -25h41l-14 -63h-40q-51 0 -74.5 17.5t-23.5 48.5q0 35 25.5 66t63.5 60q-42 1 -77.5 16.5t-61.5 42.5
t-41 64.5t-15 82.5q0 58 20 108t55 86t81.5 56.5t99.5 20.5q45 0 81.5 -15t62.5 -41t40 -62.5t14 -78.5q0 -14 -1.5 -29t-7.5 -37h-378zM348 405q-30 0 -58 -10.5t-51.5 -29t-40 -45t-23.5 -58.5h309q2 8 2 16q0 26 -9 49t-26.5 40.5t-43 27.5t-59.5 10z" />
    <glyph glyph-name="Ecaron" unicode="&#x11a;" horiz-adv-x="599" 
d="M285 601l-50 -238h366l-14 -63h-365l-51 -237h373l-13 -63h-442l141 664h442l-14 -63h-373zM489 718h-72l-113 151h70l83 -103l127 103h82z" />
    <glyph glyph-name="ecaron" unicode="&#x11b;" horiz-adv-x="548" 
d="M165 202v-6q0 -68 40 -108.5t108 -40.5q42 0 77.5 17.5t60.5 56.5h71q-33 -69 -90 -101.5t-123 -32.5q-48 0 -87 15.5t-66.5 43t-42.5 65.5t-15 83q0 58 20 108t55 86t81.5 56.5t99.5 20.5q45 0 81.5 -15t62.5 -41t40 -62.5t14 -78.5q0 -14 -1.5 -29t-7.5 -37h-378z
M348 405q-30 0 -58 -10.5t-51.5 -29t-40 -45t-23.5 -58.5h309q2 8 2 16q0 26 -9 49t-26.5 40.5t-43 27.5t-59.5 10zM407 525h-75l-108 171h69l81 -123l132 123h80z" />
    <glyph glyph-name="Gcircumflex" unicode="&#x11c;" horiz-adv-x="756" 
d="M705 508q-31 51 -86 78.5t-120 27.5q-61 0 -117 -24.5t-99 -68t-68.5 -102.5t-25.5 -129q0 -52 17 -96t49 -76t77 -50t101 -18q51 0 94 16.5t77.5 46t59.5 70.5t40 89h-252l14 63h323q-15 -81 -48 -145.5t-79.5 -109.5t-106 -69t-127.5 -24q-69 0 -125.5 23t-97 63
t-63 95t-22.5 120q0 85 32 156.5t85.5 123t123.5 80.5t146 29q49 0 92 -12.5t78 -35t61 -53.5t43 -68h-76zM519 869h72l113 -151h-70l-83 103l-127 -103h-82z" />
    <glyph glyph-name="gcircumflex" unicode="&#x11d;" horiz-adv-x="595" 
d="M607 452l-91 -430q-12 -54 -36 -98.5t-59 -75.5t-80 -48t-99 -17q-68 0 -122 34t-71 100h72q14 -35 46.5 -54.5t82.5 -19.5q40 0 72.5 13.5t58 38t43 58t26.5 73.5l6 26q-12 -12 -28.5 -23.5t-36.5 -21t-43 -15t-48 -5.5q-51 0 -89.5 17t-64.5 45t-39 65t-13 76
q0 54 18.5 103.5t52.5 88t81.5 61t105.5 22.5q33 0 61 -8t49.5 -20.5t37.5 -29t25 -33.5l16 78h66zM160 194q0 -36 11 -63.5t30.5 -46t46 -28t56.5 -9.5q40 0 75.5 17.5t61.5 46.5t41 67.5t15 79.5q0 36 -11.5 63.5t-31 46t-45.5 28t-56 9.5q-41 0 -76 -17.5t-61 -47
t-41 -67.5t-15 -79zM390 696h75l108 -171h-69l-81 123l-132 -123h-80z" />
    <glyph glyph-name="Gbreve" unicode="&#x11e;" horiz-adv-x="756" 
d="M705 508q-31 51 -86 78.5t-120 27.5q-61 0 -117 -24.5t-99 -68t-68.5 -102.5t-25.5 -129q0 -52 17 -96t49 -76t77 -50t101 -18q51 0 94 16.5t77.5 46t59.5 70.5t40 89h-252l14 63h323q-15 -81 -48 -145.5t-79.5 -109.5t-106 -69t-127.5 -24q-69 0 -125.5 23t-97 63
t-63 95t-22.5 120q0 85 32 156.5t85.5 123t123.5 80.5t146 29q49 0 92 -12.5t78 -35t61 -53.5t43 -68h-76zM730 869q-20 -68 -70 -109.5t-119 -41.5q-39 0 -68.5 13t-50 34.5t-30.5 48.5t-8 55h61q-1 -16 4.5 -32t18 -29t31 -21t43.5 -8q46 0 78.5 26t47.5 64h62z" />
    <glyph glyph-name="gbreve" unicode="&#x11f;" horiz-adv-x="595" 
d="M607 452l-91 -430q-12 -54 -36 -98.5t-59 -75.5t-80 -48t-99 -17q-68 0 -122 34t-71 100h72q14 -35 46.5 -54.5t82.5 -19.5q40 0 72.5 13.5t58 38t43 58t26.5 73.5l6 26q-12 -12 -28.5 -23.5t-36.5 -21t-43 -15t-48 -5.5q-51 0 -89.5 17t-64.5 45t-39 65t-13 76
q0 54 18.5 103.5t52.5 88t81.5 61t105.5 22.5q33 0 61 -8t49.5 -20.5t37.5 -29t25 -33.5l16 78h66zM160 194q0 -36 11 -63.5t30.5 -46t46 -28t56.5 -9.5q40 0 75.5 17.5t61.5 46.5t41 67.5t15 79.5q0 36 -11.5 63.5t-31 46t-45.5 28t-56 9.5q-41 0 -76 -17.5t-61 -47
t-41 -67.5t-15 -79zM306 696q-1 -5 -1 -10v-9q0 -16 6 -32.5t18 -29.5t30.5 -21t43.5 -8q52 0 85.5 32.5t45.5 77.5h61q-8 -38 -25.5 -69t-42.5 -54t-57 -35.5t-68 -12.5q-39 0 -68.5 12.5t-49.5 33t-30 47.5t-10 56q0 4 0.5 11t1.5 11h60z" />
    <glyph glyph-name="Gdotaccent" unicode="&#x120;" horiz-adv-x="756" 
d="M705 508q-31 51 -86 78.5t-120 27.5q-61 0 -117 -24.5t-99 -68t-68.5 -102.5t-25.5 -129q0 -52 17 -96t49 -76t77 -50t101 -18q51 0 94 16.5t77.5 46t59.5 70.5t40 89h-252l14 63h323q-15 -81 -48 -145.5t-79.5 -109.5t-106 -69t-127.5 -24q-69 0 -125.5 23t-97 63
t-63 95t-22.5 120q0 85 32 156.5t85.5 123t123.5 80.5t146 29q49 0 92 -12.5t78 -35t61 -53.5t43 -68h-76zM508 838h75l-18 -81h-75z" />
    <glyph glyph-name="gdotaccent" unicode="&#x121;" horiz-adv-x="595" 
d="M607 452l-91 -430q-12 -54 -36 -98.5t-59 -75.5t-80 -48t-99 -17q-68 0 -122 34t-71 100h72q14 -35 46.5 -54.5t82.5 -19.5q40 0 72.5 13.5t58 38t43 58t26.5 73.5l6 26q-12 -12 -28.5 -23.5t-36.5 -21t-43 -15t-48 -5.5q-51 0 -89.5 17t-64.5 45t-39 65t-13 76
q0 54 18.5 103.5t52.5 88t81.5 61t105.5 22.5q33 0 61 -8t49.5 -20.5t37.5 -29t25 -33.5l16 78h66zM160 194q0 -36 11 -63.5t30.5 -46t46 -28t56.5 -9.5q40 0 75.5 17.5t61.5 46.5t41 67.5t15 79.5q0 36 -11.5 63.5t-31 46t-45.5 28t-56 9.5q-41 0 -76 -17.5t-61 -47
t-41 -67.5t-15 -79zM388 659h81l-19 -88h-81z" />
    <glyph glyph-name="uni0122" unicode="&#x122;" horiz-adv-x="756" 
d="M705 508q-31 51 -86 78.5t-120 27.5q-61 0 -117 -24.5t-99 -68t-68.5 -102.5t-25.5 -129q0 -52 17 -96t49 -76t77 -50t101 -18q51 0 94 16.5t77.5 46t59.5 70.5t40 89h-252l14 63h323q-15 -81 -48 -145.5t-79.5 -109.5t-106 -69t-127.5 -24q-69 0 -125.5 23t-97 63
t-63 95t-22.5 120q0 85 32 156.5t85.5 123t123.5 80.5t146 29q49 0 92 -12.5t78 -35t61 -53.5t43 -68h-76zM299 -223l69 86h-47l18 82h92l-19 -90l-64 -78h-49z" />
    <glyph glyph-name="uni0123" unicode="&#x123;" horiz-adv-x="595" 
d="M607 452l-91 -430q-12 -54 -36 -98.5t-59 -75.5t-80 -48t-99 -17q-68 0 -122 34t-71 100h72q14 -35 46.5 -54.5t82.5 -19.5q40 0 72.5 13.5t58 38t43 58t26.5 73.5l6 26q-12 -12 -28.5 -23.5t-36.5 -21t-43 -15t-48 -5.5q-51 0 -89.5 17t-64.5 45t-39 65t-13 76
q0 54 18.5 103.5t52.5 88t81.5 61t105.5 22.5q33 0 61 -8t49.5 -20.5t37.5 -29t25 -33.5l16 78h66zM160 194q0 -36 11 -63.5t30.5 -46t46 -28t56.5 -9.5q40 0 75.5 17.5t61.5 46.5t41 67.5t15 79.5q0 36 -11.5 63.5t-31 46t-45.5 28t-56 9.5q-41 0 -76 -17.5t-61 -47
t-41 -67.5t-15 -79zM483.005 688.975l-68.9912 -85.9893h46.9941l-17.998 -81.9893h-91.9883l18.9971 89.9883l63.9922 77.9902h48.9941z" />
    <glyph glyph-name="Hcircumflex" unicode="&#x124;" horiz-adv-x="738" 
d="M580 0l63 300h-422l-63 -300h-69l141 664h69l-64 -301h422l64 301h69l-141 -664h-69zM512 869h72l113 -151h-70l-83 103l-127 -103h-82z" />
    <glyph glyph-name="hcircumflex" unicode="&#x125;" horiz-adv-x="578" 
d="M390 465q36 0 68 -10.5t55.5 -31t37 -51.5t13.5 -71q0 -26 -6 -53l-53 -248h-66l54 254q5 23 5 42q0 46 -26.5 77.5t-87.5 31.5q-29 0 -58 -10t-53.5 -29t-43 -47t-25.5 -64l-54 -255h-66l142 669h66l-57 -268q27 26 67 45t88 19zM437 869h72l113 -151h-70l-83 103
l-127 -103h-82z" />
    <glyph glyph-name="Hbar" unicode="&#x126;" horiz-adv-x="754" 
d="M588 0l64 300h-423l-63 -300h-69l106 498h-88l13 63h88l22 103h69l-22 -103h422l22 103h69l-22 -103h86l-13 -63h-86l-106 -498h-69zM665 363l29 135h-423l-28 -135h422z" />
    <glyph glyph-name="hbar" unicode="&#x127;" horiz-adv-x="583" 
d="M395 465q36 0 68 -10.5t55.5 -31t37 -51.5t13.5 -71q0 -26 -6 -53l-53 -248h-66l54 254q5 23 5 42q0 46 -26.5 77.5t-87.5 31.5q-29 0 -58 -10t-53.5 -29t-43 -47t-25.5 -64l-54 -255h-66l113 534h-79l13 60h79l16 75h66l-16 -75h152l-13 -60h-152l-28 -133q27 26 67 45
t88 19z" />
    <glyph glyph-name="Itilde" unicode="&#x128;" horiz-adv-x="247" 
d="M158 0h-69l141 664h69zM364 779q48 0 68 90h60q-14 -68 -46.5 -109.5t-83.5 -41.5q-27 0 -45.5 14t-34.5 31t-30 31t-32 14q-49 0 -68 -90h-60q14 68 46.5 109.5t83.5 41.5q27 0 45.5 -14t34.5 -31t30 -31t32 -14z" />
    <glyph glyph-name="itilde" unicode="&#x129;" horiz-adv-x="238" 
d="M320 590q48 0 68 90h60q-14 -68 -46.5 -109.5t-83.5 -41.5q-27 0 -45.5 14t-34.5 31t-30 31t-32 14q-49 0 -68 -90h-60q14 68 46.5 109.5t83.5 41.5q27 0 45.5 -14t34.5 -31t30 -31t32 -14zM251 452l-96 -452h-66l96 452h66z" />
    <glyph glyph-name="Imacron" unicode="&#x12a;" horiz-adv-x="247" 
d="M158 0h-69l141 664h69zM463 800l-13 -61h-336l13 61h336z" />
    <glyph glyph-name="imacron" unicode="&#x12b;" horiz-adv-x="238" 
d="M372 632l-13 -61h-238l13 61h238zM251 452l-96 -452h-66l96 452h66z" />
    <glyph glyph-name="Ibreve" unicode="&#x12c;" horiz-adv-x="247" 
d="M158 0h-69l141 664h69zM480 869q-20 -68 -70 -109.5t-119 -41.5q-39 0 -68.5 13t-50 34.5t-30.5 48.5t-8 55h61q-1 -16 4.5 -32t18 -29t31 -21t43.5 -8q46 0 78.5 26t47.5 64h62z" />
    <glyph glyph-name="ibreve" unicode="&#x12d;" horiz-adv-x="238" 
d="M150 696q-1 -5 -1 -10v-9q0 -16 6 -32.5t18 -29.5t30.5 -21t43.5 -8q52 0 85.5 32.5t45.5 77.5h61q-8 -38 -25.5 -69t-42.5 -54t-57 -35.5t-68 -12.5q-39 0 -68.5 12.5t-49.5 33t-30 47.5t-10 56q0 4 0.5 11t1.5 11h60zM251 452l-96 -452h-66l96 452h66z" />
    <glyph glyph-name="Iogonek" unicode="&#x12e;" horiz-adv-x="247" 
d="M230 664h69l-141 -664q-15 -12 -35 -26.5t-38 -30t-30 -31t-12 -28.5q0 -25 44 -25h41l-14 -63h-40q-51 0 -74.5 17.5t-23.5 48.5q0 39 32 73.5t81 64.5z" />
    <glyph glyph-name="iogonek" unicode="&#x12f;" horiz-adv-x="238" 
d="M182 452h66l-96 -452q-15 -12 -35 -26.5t-38 -30t-30 -31t-12 -28.5q0 -25 44 -25h41l-14 -63h-40q-51 0 -74.5 17.5t-23.5 48.5q0 39 32.5 74t83.5 64zM218 659h81l-19 -88h-81z" />
    <glyph glyph-name="Idotaccent" unicode="&#x130;" horiz-adv-x="247" 
d="M158 0h-69l141 664h69zM264 838h75l-18 -81h-75z" />
    <glyph glyph-name="dotlessi" unicode="&#x131;" horiz-adv-x="238" 
d="M248 452l-96 -452h-66l96 452h66z" />
    <glyph glyph-name="IJ" unicode="&#x132;" horiz-adv-x="634" 
d="M158 0h-69l141 664h69zM691 664l-105 -490q-18 -85 -79.5 -129.5t-146.5 -44.5h-125l13 63h112q28 0 53.5 7t46.5 21t36 35t21 48l105 490h69z" />
    <glyph glyph-name="ij" unicode="&#x133;" horiz-adv-x="489" 
d="M248 452l-96 -452h-66l96 452h66zM218 659h81l-19 -88h-81zM469 659h81l-19 -88h-81zM499 452l-111 -522q-14 -67 -59.5 -100.5t-130.5 -33.5h-63l13 60h62q49 0 76.5 19.5t38.5 68.5l108 508h66z" />
    <glyph glyph-name="Jcircumflex" unicode="&#x134;" horiz-adv-x="404" 
d="M461 664l-105 -490q-18 -85 -79.5 -129.5t-146.5 -44.5h-125l13 63h112q28 0 53.5 7t46.5 21t36 35t21 48l105 490h69zM428 869h72l113 -151h-70l-83 103l-127 -103h-82z" />
    <glyph glyph-name="jcircumflex" unicode="&#x135;" horiz-adv-x="254" 
d="M264 452l-102 -480q-10 -45 -25 -78t-38 -54.5t-55.5 -32.5t-76.5 -11h-59l13 60h57q55 0 80.5 30t37.5 86l102 480h66zM240 696h75l108 -171h-69l-81 123l-132 -123h-80z" />
    <glyph glyph-name="uni0136" unicode="&#x136;" horiz-adv-x="597" 
d="M592 0h-92l-278 301l-64 -301h-69l141 664h69l-63 -296l394 296h103l-442 -337zM216 -204l69 86h-47l18 82h92l-19 -90l-64 -78h-49z" />
    <glyph glyph-name="uni0137" unicode="&#x137;" horiz-adv-x="475" 
d="M292 669l-90 -424l271 207h92l-302 -234l207 -218h-85l-193 202l-42 -202h-66l142 669h66zM166 -204l69 86h-47l18 82h92l-19 -90l-64 -78h-49z" />
    <glyph glyph-name="kgreenlandic" unicode="&#x138;" horiz-adv-x="482" 
d="M246 452l-44 -207l271 207h92l-302 -234l207 -218h-85l-193 202l-42 -202h-66l96 452h66z" />
    <glyph glyph-name="Lacute" unicode="&#x139;" horiz-adv-x="562" 
d="M171 63h373l-13 -63h-442l141 664h69zM480 869l-163 -151h-82l163 151h82z" />
    <glyph glyph-name="lacute" unicode="&#x13a;" horiz-adv-x="234" 
d="M292 669l-142 -669h-66l142 669h66zM476 869l-163 -151h-82l163 151h82z" />
    <glyph glyph-name="uni013B" unicode="&#x13b;" horiz-adv-x="562" 
d="M171 63h373l-13 -63h-442l141 664h69zM217 -204l69 86h-47l18 82h92l-19 -90l-64 -78h-49z" />
    <glyph glyph-name="uni013C" unicode="&#x13c;" horiz-adv-x="234" 
d="M292 669l-142 -669h-66l142 669h66zM24 -204l69 86h-47l18 82h92l-19 -90l-64 -78h-49z" />
    <glyph glyph-name="Lcaron" unicode="&#x13d;" horiz-adv-x="562" 
d="M518 465l87 107h-45l19 92h92l-21 -100l-81 -99h-51zM171 63h373l-13 -63h-442l141 664h69z" />
    <glyph glyph-name="lcaron" unicode="&#x13e;" horiz-adv-x="347" 
d="M292 669l-142 -669h-66l142 669h66zM335 465l87 107h-45l19 92h92l-21 -100l-81 -99h-51z" />
    <glyph glyph-name="Ldot" unicode="&#x13f;" horiz-adv-x="562" 
d="M171 63h373l-13 -63h-442l141 664h69zM463 388h92l-19 -92h-92z" />
    <glyph glyph-name="ldot" unicode="&#x140;" horiz-adv-x="330" 
d="M292 669l-142 -669h-66l142 669h66zM296 394h92l-19 -92h-92z" />
    <glyph glyph-name="Lslash" unicode="&#x141;" horiz-adv-x="619" 
d="M298 399l230 111l-15 -70l-230 -112l-56 -265h373l-13 -63h-442l61 291l-150 -73l15 71l150 73l65 302h69z" />
    <glyph glyph-name="lslash" unicode="&#x142;" horiz-adv-x="329" 
d="M339 669l-58 -270l145 72l-15 -69l-144 -72l-70 -330h-66l62 293l-145 -72l15 70l144 71l66 307h66z" />
    <glyph glyph-name="Nacute" unicode="&#x143;" horiz-adv-x="770" 
d="M822 664l-141 -664h-78l-324 574l-121 -574h-69l141 664h78l323 -574l122 574h69zM724 869l-163 -151h-82l163 151h82z" />
    <glyph glyph-name="nacute" unicode="&#x144;" horiz-adv-x="578" 
d="M390 465q36 0 68 -10.5t55.5 -31t37 -51.5t13.5 -71q0 -26 -6 -53l-53 -248h-66l54 254q5 23 5 42q0 46 -26.5 77.5t-87.5 31.5q-29 0 -58 -10t-53.5 -29t-43 -47t-25.5 -64l-54 -255h-66l96 452h66l-11 -51q27 26 67 45t88 19zM599 696l-167 -171h-82l167 171h82z" />
    <glyph glyph-name="uni0145" unicode="&#x145;" horiz-adv-x="770" 
d="M822 664l-141 -664h-78l-324 574l-121 -574h-69l141 664h78l323 -574l122 574h69zM293 -204l69 86h-47l18 82h92l-19 -90l-64 -78h-49z" />
    <glyph glyph-name="uni0146" unicode="&#x146;" horiz-adv-x="578" 
d="M390 465q36 0 68 -10.5t55.5 -31t37 -51.5t13.5 -71q0 -26 -6 -53l-53 -248h-66l54 254q5 23 5 42q0 46 -26.5 77.5t-87.5 31.5q-29 0 -58 -10t-53.5 -29t-43 -47t-25.5 -64l-54 -255h-66l96 452h66l-11 -51q27 26 67 45t88 19zM203 -204l69 86h-47l18 82h92l-19 -90
l-64 -78h-49z" />
    <glyph glyph-name="Ncaron" unicode="&#x147;" horiz-adv-x="770" 
d="M822 664l-141 -664h-78l-324 574l-121 -574h-69l141 664h78l323 -574l122 574h69zM571 718h-72l-113 151h70l83 -103l127 103h82z" />
    <glyph glyph-name="ncaron" unicode="&#x148;" horiz-adv-x="578" 
d="M390 465q36 0 68 -10.5t55.5 -31t37 -51.5t13.5 -71q0 -26 -6 -53l-53 -248h-66l54 254q5 23 5 42q0 46 -26.5 77.5t-87.5 31.5q-29 0 -58 -10t-53.5 -29t-43 -47t-25.5 -64l-54 -255h-66l96 452h66l-11 -51q27 26 67 45t88 19zM437 525h-75l-108 171h69l81 -123l132 123
h80z" />
    <glyph glyph-name="napostrophe" unicode="&#x149;" horiz-adv-x="578" 
d="M390 465q36 0 68 -10.5t55.5 -31t37 -51.5t13.5 -71q0 -26 -6 -53l-53 -248h-66l54 254q5 23 5 42q0 46 -26.5 77.5t-87.5 31.5q-29 0 -58 -10t-53.5 -29t-43 -47t-25.5 -64l-54 -255h-66l96 452h66l-11 -51q27 26 67 45t88 19zM201 555l87 107h-45l19 92h92l-21 -100
l-81 -99h-51z" />
    <glyph glyph-name="Eng" unicode="&#x14a;" horiz-adv-x="770" 
d="M279 574l-121 -574h-69l141 664h78l325 -566l120 566h69l-147 -694q-9 -42 -29.5 -74.5t-50.5 -54.5t-67.5 -33.5t-79.5 -11.5h-125l13 63h119q58 0 97 27t53 84l7 30z" />
    <glyph glyph-name="eng" unicode="&#x14b;" horiz-adv-x="578" 
d="M246 452l-11 -51q27 26 67 45t88 19q36 0 68 -10.5t55.5 -31t37 -51.5t13.5 -71q0 -26 -6 -53l-68 -318q-14 -67 -59.5 -100.5t-130.5 -33.5h-63l13 60h62q49 0 76.5 19.5t38.5 68.5l66 310q5 23 5 42q0 46 -26.5 77.5t-87.5 31.5q-29 0 -58 -10t-53.5 -29t-43 -47
t-25.5 -64l-54 -255h-66l96 452h66z" />
    <glyph glyph-name="Omacron" unicode="&#x14c;" horiz-adv-x="772" 
d="M811 376q0 -85 -32.5 -156.5t-86.5 -123t-124 -80.5t-144 -29q-60 0 -115 21.5t-97 61.5t-67 95t-25 123q0 85 32.5 156.5t86.5 123t124 80.5t144 29q60 0 115 -21.5t97 -61.5t67 -95.5t25 -122.5zM433 50q60 0 116 24t98.5 67.5t68.5 103t26 131.5q0 51 -17.5 95
t-49.5 75.5t-77 49.5t-100 18q-60 0 -116 -24t-98.5 -67.5t-68.5 -103t-26 -131.5q0 -51 17.5 -95t49.5 -75.5t77 -49.5t100 -18zM718 800l-13 -61h-336l13 61h336z" />
    <glyph glyph-name="omacron" unicode="&#x14d;" horiz-adv-x="570" 
d="M569 260q0 -60 -21 -110t-57 -86t-83.5 -56.5t-99.5 -20.5q-47 0 -85 16t-65 43.5t-42 65t-15 80.5q0 60 21 110t57 86t83.5 56.5t99.5 20.5q47 0 85 -16t65 -43.5t42 -65t15 -80.5zM313 47q39 0 74 17t60.5 45.5t40.5 66.5t15 80q0 31 -10 58t-28.5 47t-46 32t-61.5 12
q-39 0 -74 -17t-60.5 -45.5t-40.5 -66.5t-15 -80q0 -31 10 -58t28.5 -47.5t45.5 -32t62 -11.5zM582 632l-13 -61h-336l13 61h336z" />
    <glyph glyph-name="Obreve" unicode="&#x14e;" horiz-adv-x="772" 
d="M811 376q0 -85 -32.5 -156.5t-86.5 -123t-124 -80.5t-144 -29q-60 0 -115 21.5t-97 61.5t-67 95t-25 123q0 85 32.5 156.5t86.5 123t124 80.5t144 29q60 0 115 -21.5t97 -61.5t67 -95.5t25 -122.5zM433 50q60 0 116 24t98.5 67.5t68.5 103t26 131.5q0 51 -17.5 95
t-49.5 75.5t-77 49.5t-100 18q-60 0 -116 -24t-98.5 -67.5t-68.5 -103t-26 -131.5q0 -51 17.5 -95t49.5 -75.5t77 -49.5t100 -18zM735 869q-20 -68 -70 -109.5t-119 -41.5q-39 0 -68.5 13t-50 34.5t-30.5 48.5t-8 55h61q-1 -16 4.5 -32t18 -29t31 -21t43.5 -8q46 0 78.5 26
t47.5 64h62z" />
    <glyph glyph-name="obreve" unicode="&#x14f;" horiz-adv-x="570" 
d="M569 260q0 -60 -21 -110t-57 -86t-83.5 -56.5t-99.5 -20.5q-47 0 -85 16t-65 43.5t-42 65t-15 80.5q0 60 21 110t57 86t83.5 56.5t99.5 20.5q47 0 85 -16t65 -43.5t42 -65t15 -80.5zM313 47q39 0 74 17t60.5 45.5t40.5 66.5t15 80q0 31 -10 58t-28.5 47t-46 32t-61.5 12
q-39 0 -74 -17t-60.5 -45.5t-40.5 -66.5t-15 -80q0 -31 10 -58t28.5 -47.5t45.5 -32t62 -11.5zM310 696q-1 -5 -1 -10v-9q0 -16 6 -32.5t18 -29.5t30.5 -21t43.5 -8q52 0 85.5 32.5t45.5 77.5h61q-8 -38 -25.5 -69t-42.5 -54t-57 -35.5t-68 -12.5q-39 0 -68.5 12.5t-49.5 33
t-30 47.5t-10 56q0 4 0.5 11t1.5 11h60z" />
    <glyph glyph-name="Ohungarumlaut" unicode="&#x150;" horiz-adv-x="772" 
d="M811 376q0 -85 -32.5 -156.5t-86.5 -123t-124 -80.5t-144 -29q-60 0 -115 21.5t-97 61.5t-67 95t-25 123q0 85 32.5 156.5t86.5 123t124 80.5t144 29q60 0 115 -21.5t97 -61.5t67 -95.5t25 -122.5zM433 50q60 0 116 24t98.5 67.5t68.5 103t26 131.5q0 51 -17.5 95
t-49.5 75.5t-77 49.5t-100 18q-60 0 -116 -24t-98.5 -67.5t-68.5 -103t-26 -131.5q0 -51 17.5 -95t49.5 -75.5t77 -49.5t100 -18zM789 869l-163 -151h-76l163 151h76zM651 869l-163 -151h-76l163 151h76z" />
    <glyph glyph-name="ohungarumlaut" unicode="&#x151;" horiz-adv-x="570" 
d="M569 260q0 -60 -21 -110t-57 -86t-83.5 -56.5t-99.5 -20.5q-47 0 -85 16t-65 43.5t-42 65t-15 80.5q0 60 21 110t57 86t83.5 56.5t99.5 20.5q47 0 85 -16t65 -43.5t42 -65t15 -80.5zM313 47q39 0 74 17t60.5 45.5t40.5 66.5t15 80q0 31 -10 58t-28.5 47t-46 32t-61.5 12
q-39 0 -74 -17t-60.5 -45.5t-40.5 -66.5t-15 -80q0 -31 10 -58t28.5 -47.5t45.5 -32t62 -11.5zM637 696l-167 -171h-76l167 171h76zM499 696l-167 -171h-76l167 171h76z" />
    <glyph glyph-name="OE" unicode="&#x152;" horiz-adv-x="1181" 
d="M867 601l-50 -238h366l-14 -63h-365l-51 -237h373l-13 -63h-442l20 96q-54 -52 -123 -80.5t-144 -28.5q-60 0 -115 21.5t-97 61.5t-67 95t-25 123q0 85 32.5 156.5t86.5 123t124 80.5t144 29q43 0 83.5 -11.5t76.5 -33t65 -52t48 -68.5l32 152h442l-14 -63h-373zM433 50
q60 0 116 24t98.5 67.5t68.5 103t26 131.5q0 51 -17.5 95t-49.5 75.5t-77 49.5t-100 18q-60 0 -116 -24t-98.5 -67.5t-68.5 -103t-26 -131.5q0 -51 17.5 -95t49.5 -75.5t77 -49.5t100 -18z" />
    <glyph glyph-name="oe" unicode="&#x153;" horiz-adv-x="953" 
d="M567 196q0 -68 40 -108.5t108 -40.5q42 0 77.5 17.5t60.5 56.5h71q-33 -69 -90 -101.5t-123 -32.5q-69 0 -118 30.5t-73 81.5q-36 -53 -92 -82.5t-120 -29.5q-47 0 -85 16t-65 43.5t-42 65t-15 80.5q0 60 21 110t57 86t83.5 56.5t99.5 20.5q66 0 114 -30t72 -80
q35 51 89 80.5t119 29.5q45 0 81.5 -15t62.5 -41t40 -62.5t14 -78.5q0 -14 -1.5 -29t-7.5 -37h-378v-6zM313 47q39 0 74 17t60.5 45.5t40.5 66.5t15 80q0 31 -10 58t-28.5 47t-46 32t-61.5 12q-39 0 -74 -17t-60.5 -45.5t-40.5 -66.5t-15 -80q0 -31 10 -58t28.5 -47.5
t45.5 -32t62 -11.5zM750 405q-30 0 -58 -10.5t-51.5 -29t-40 -45t-23.5 -58.5h309q2 8 2 16q0 26 -9 49t-26.5 40.5t-43 27.5t-59.5 10z" />
    <glyph glyph-name="Racute" unicode="&#x154;" horiz-adv-x="648" 
d="M720 493q0 -46 -17 -84.5t-47.5 -66.5t-73 -43.5t-92.5 -15.5h-27l156 -283h-79l-156 283h-166l-60 -283h-69l141 664h304q48 0 83 -15t58 -39.5t34 -55t11 -61.5zM231 346h263q33 0 62 9.5t50 27.5t33 44.5t12 60.5q0 49 -33.5 81t-93.5 32h-238zM655 869l-163 -151h-82
l163 151h82z" />
    <glyph glyph-name="racute" unicode="&#x155;" horiz-adv-x="384" 
d="M246 452l-16 -73q13 14 31.5 28t42.5 25t54.5 17.5t67.5 6.5h12l-12 -60h-11q-42 0 -78 -13t-64.5 -36t-48 -55.5t-28.5 -72.5l-46 -219h-66l96 452h66zM527 696l-167 -171h-82l167 171h82z" />
    <glyph glyph-name="uni0156" unicode="&#x156;" horiz-adv-x="648" 
d="M720 493q0 -46 -17 -84.5t-47.5 -66.5t-73 -43.5t-92.5 -15.5h-27l156 -283h-79l-156 283h-166l-60 -283h-69l141 664h304q48 0 83 -15t58 -39.5t34 -55t11 -61.5zM231 346h263q33 0 62 9.5t50 27.5t33 44.5t12 60.5q0 49 -33.5 81t-93.5 32h-238zM229 -204l69 86h-47
l18 82h92l-19 -90l-64 -78h-49z" />
    <glyph glyph-name="uni0157" unicode="&#x157;" horiz-adv-x="384" 
d="M246 452l-16 -73q13 14 31.5 28t42.5 25t54.5 17.5t67.5 6.5h12l-12 -60h-11q-42 0 -78 -13t-64.5 -36t-48 -55.5t-28.5 -72.5l-46 -219h-66l96 452h66zM25 -204l69 86h-47l18 82h92l-19 -90l-64 -78h-49z" />
    <glyph glyph-name="Rcaron" unicode="&#x158;" horiz-adv-x="648" 
d="M720 493q0 -46 -17 -84.5t-47.5 -66.5t-73 -43.5t-92.5 -15.5h-27l156 -283h-79l-156 283h-166l-60 -283h-69l141 664h304q48 0 83 -15t58 -39.5t34 -55t11 -61.5zM231 346h263q33 0 62 9.5t50 27.5t33 44.5t12 60.5q0 49 -33.5 81t-93.5 32h-238zM516 718h-72l-113 151
h70l83 -103l127 103h82z" />
    <glyph glyph-name="rcaron" unicode="&#x159;" horiz-adv-x="384" 
d="M246 452l-16 -73q13 14 31.5 28t42.5 25t54.5 17.5t67.5 6.5h12l-12 -60h-11q-42 0 -78 -13t-64.5 -36t-48 -55.5t-28.5 -72.5l-46 -219h-66l96 452h66zM354 525h-75l-108 171h69l81 -123l132 123h80z" />
    <glyph glyph-name="Sacute" unicode="&#x15a;" horiz-adv-x="605" 
d="M137 155q9 -21 26.5 -40.5t42.5 -33.5t56.5 -22.5t67.5 -8.5q45 0 82.5 11t65 30.5t43 45.5t15.5 57q0 80 -134 100l-111 17q-39 6 -67.5 20t-46.5 34t-27 44.5t-9 51.5q0 48 20 88t56 68.5t85.5 44t108.5 15.5t103.5 -16t76 -41t51 -54.5t27.5 -57.5h-75
q-17 45 -66.5 75.5t-123.5 30.5q-45 0 -81 -12t-60.5 -32.5t-38 -47t-13.5 -55.5q0 -41 30 -63t86 -31l123 -19q75 -12 115 -54t40 -99q0 -39 -17.5 -77.5t-53 -69t-87.5 -49t-121 -18.5q-61 0 -106.5 16t-77.5 41t-51.5 54.5t-27.5 56.5h74zM626 869l-163 -151h-82l163 151
h82z" />
    <glyph glyph-name="sacute" unicode="&#x15b;" horiz-adv-x="507" 
d="M136 126q14 -35 48 -57t103 -22q26 0 49.5 6t41.5 17t29 27.5t11 36.5q0 28 -25 39t-70 17l-90 11q-63 8 -91 37.5t-28 71.5q0 32 14.5 60t41 49t64.5 33.5t86 12.5q49 0 85 -12.5t61.5 -32t41 -44t21.5 -49.5h-73q-15 39 -48.5 58.5t-92.5 19.5q-27 0 -51.5 -6.5
t-43 -18t-29.5 -28t-11 -37.5q0 -28 25 -39.5t69 -16.5l88 -11q62 -8 92.5 -37t30.5 -72q0 -32 -14 -59.5t-41 -48t-66 -32.5t-90 -12q-50 0 -87 12.5t-62.5 32t-40 44.5t-20.5 50h72zM558 696l-167 -171h-82l167 171h82z" />
    <glyph glyph-name="Scircumflex" unicode="&#x15c;" horiz-adv-x="605" 
d="M137 155q9 -21 26.5 -40.5t42.5 -33.5t56.5 -22.5t67.5 -8.5q45 0 82.5 11t65 30.5t43 45.5t15.5 57q0 80 -134 100l-111 17q-39 6 -67.5 20t-46.5 34t-27 44.5t-9 51.5q0 48 20 88t56 68.5t85.5 44t108.5 15.5t103.5 -16t76 -41t51 -54.5t27.5 -57.5h-75
q-17 45 -66.5 75.5t-123.5 30.5q-45 0 -81 -12t-60.5 -32.5t-38 -47t-13.5 -55.5q0 -41 30 -63t86 -31l123 -19q75 -12 115 -54t40 -99q0 -39 -17.5 -77.5t-53 -69t-87.5 -49t-121 -18.5q-61 0 -106.5 16t-77.5 41t-51.5 54.5t-27.5 56.5h74zM447 869h72l113 -151h-70
l-83 103l-127 -103h-82z" />
    <glyph glyph-name="scircumflex" unicode="&#x15d;" horiz-adv-x="507" 
d="M136 126q14 -35 48 -57t103 -22q26 0 49.5 6t41.5 17t29 27.5t11 36.5q0 28 -25 39t-70 17l-90 11q-63 8 -91 37.5t-28 71.5q0 32 14.5 60t41 49t64.5 33.5t86 12.5q49 0 85 -12.5t61.5 -32t41 -44t21.5 -49.5h-73q-15 39 -48.5 58.5t-92.5 19.5q-27 0 -51.5 -6.5
t-43 -18t-29.5 -28t-11 -37.5q0 -28 25 -39.5t69 -16.5l88 -11q62 -8 92.5 -37t30.5 -72q0 -32 -14 -59.5t-41 -48t-66 -32.5t-90 -12q-50 0 -87 12.5t-62.5 32t-40 44.5t-20.5 50h72zM359 696h75l108 -171h-69l-81 123l-132 -123h-80z" />
    <glyph glyph-name="Scedilla" unicode="&#x15e;" horiz-adv-x="605" 
d="M137 155q9 -21 26.5 -40.5t42.5 -33.5t56.5 -22.5t67.5 -8.5q45 0 82.5 11t65 30.5t43 45.5t15.5 57q0 80 -134 100l-111 17q-39 6 -67.5 20t-46.5 34t-27 44.5t-9 51.5q0 49 20.5 88.5t56.5 68t86 44t110 15.5q58 0 102 -16t75.5 -41t50.5 -54.5t27 -57.5h-75
q-17 45 -66 75.5t-122 30.5q-45 0 -81 -12t-61.5 -32.5t-39 -47t-13.5 -55.5q0 -41 30 -63t86 -31l123 -19q75 -12 115 -54t40 -99q0 -38 -16.5 -74.5t-48.5 -66t-80 -49t-111 -23.5l-167 -172h-82l170 175q-47 7 -82 24.5t-60.5 40.5t-41.5 49t-23 50h74z" />
    <glyph glyph-name="scedilla" unicode="&#x15f;" horiz-adv-x="507" 
d="M136 126q14 -35 48 -57t103 -22q26 0 49.5 6t41.5 17t29 27.5t11 36.5q0 28 -25 39t-70 17l-90 11q-63 8 -91 37.5t-28 71.5q0 32 14.5 60t41 49t64.5 33.5t86 12.5q49 0 85 -12.5t61.5 -32t41 -44t21.5 -49.5h-73q-15 39 -48.5 58.5t-92.5 19.5q-27 0 -51.5 -6.5
t-43 -18t-29.5 -28t-11 -37.5q0 -28 25 -39.5t69 -16.5l88 -11q62 -8 92.5 -37t30.5 -72q0 -30 -12.5 -56t-36 -46t-58 -33t-79.5 -16l-167 -172h-82l170 175q-36 6 -63.5 19.5t-46 32t-30 40t-16.5 43.5h72z" />
    <glyph glyph-name="Scaron" unicode="&#x160;" horiz-adv-x="605" 
d="M137 155q9 -21 26.5 -40.5t42.5 -33.5t56.5 -22.5t67.5 -8.5q45 0 82.5 11t65 30.5t43 45.5t15.5 57q0 80 -134 100l-111 17q-39 6 -67.5 20t-46.5 34t-27 44.5t-9 51.5q0 48 20 88t56 68.5t85.5 44t108.5 15.5t103.5 -16t76 -41t51 -54.5t27.5 -57.5h-75
q-17 45 -66.5 75.5t-123.5 30.5q-45 0 -81 -12t-60.5 -32.5t-38 -47t-13.5 -55.5q0 -41 30 -63t86 -31l123 -19q75 -12 115 -54t40 -99q0 -39 -17.5 -77.5t-53 -69t-87.5 -49t-121 -18.5q-61 0 -106.5 16t-77.5 41t-51.5 54.5t-27.5 56.5h74zM491 718h-72l-113 151h70
l83 -103l127 103h82z" />
    <glyph glyph-name="scaron" unicode="&#x161;" horiz-adv-x="507" 
d="M136 126q14 -35 48 -57t103 -22q26 0 49.5 6t41.5 17t29 27.5t11 36.5q0 28 -25 39t-70 17l-90 11q-63 8 -91 37.5t-28 71.5q0 32 14.5 60t41 49t64.5 33.5t86 12.5q49 0 85 -12.5t61.5 -32t41 -44t21.5 -49.5h-73q-15 39 -48.5 58.5t-92.5 19.5q-27 0 -51.5 -6.5
t-43 -18t-29.5 -28t-11 -37.5q0 -28 25 -39.5t69 -16.5l88 -11q62 -8 92.5 -37t30.5 -72q0 -32 -14 -59.5t-41 -48t-66 -32.5t-90 -12q-50 0 -87 12.5t-62.5 32t-40 44.5t-20.5 50h72zM392 525h-75l-108 171h69l81 -123l132 123h80z" />
    <glyph glyph-name="uni0162" unicode="&#x162;" horiz-adv-x="595" 
d="M710 664l-14 -63h-237l-128 -601l-178 -184h-82l195 201l124 584h-237l14 63h543z" />
    <glyph glyph-name="uni0163" unicode="&#x163;" horiz-adv-x="377" 
d="M306 588l-29 -136h159l-13 -60h-159l-49 -233q-2 -9 -4.5 -23t-2.5 -21q0 -29 20 -42t62 -13h62l-12 -60h-52l-179 -184h-82l187 191q-39 11 -56.5 35t-17.5 58q0 16 5 41l53 251h-94l13 60h94l29 136h66z" />
    <glyph glyph-name="Tcaron" unicode="&#x164;" horiz-adv-x="595" 
d="M710 664l-14 -63h-237l-127 -601h-69l127 601h-237l14 63h543zM486 718h-72l-113 151h70l83 -103l127 103h82z" />
    <glyph glyph-name="tcaron" unicode="&#x165;" horiz-adv-x="508" 
d="M316 588l-29 -136h159l-13 -60h-159l-49 -233q-2 -9 -4.5 -23t-2.5 -21q0 -29 20 -42t62 -13h62l-12 -60h-63q-72 0 -104.5 27.5t-32.5 72.5q0 16 5 41l53 251h-94l13 60h94l29 136h66zM496 465l87 107h-45l19 92h92l-21 -100l-81 -99h-51z" />
    <glyph glyph-name="Tbar" unicode="&#x166;" horiz-adv-x="595" 
d="M710 664l-14 -63h-237l-50 -238h173l-14 -63h-173l-63 -300h-69l63 300h-174l14 63h174l50 238h-237l14 63h543z" />
    <glyph glyph-name="tbar" unicode="&#x167;" horiz-adv-x="397" 
d="M316 588l-29 -136h159l-13 -60h-159l-18 -85h159l-13 -60h-159l-18 -88q-2 -9 -4.5 -23t-2.5 -21q0 -29 20 -42t62 -13h62l-12 -60h-63q-72 0 -104.5 27.5t-32.5 72.5q0 16 5 41l22 106h-94l13 60h94l18 85h-94l13 60h94l29 136h66z" />
    <glyph glyph-name="Utilde" unicode="&#x168;" horiz-adv-x="740" 
d="M225 664h69l-79 -373q-8 -38 -8 -66q0 -85 53 -130t150 -45q90 0 149.5 50t81.5 153l87 411h69l-88 -418q-27 -127 -107 -193t-196 -66q-127 0 -197.5 61t-70.5 169q0 37 9 79zM604 779q48 0 68 90h60q-14 -68 -46.5 -109.5t-83.5 -41.5q-27 0 -45.5 14t-34.5 31t-30 31
t-32 14q-49 0 -68 -90h-60q14 68 46.5 109.5t83.5 41.5q27 0 45.5 -14t34.5 -31t30 -31t32 -14z" />
    <glyph glyph-name="utilde" unicode="&#x169;" horiz-adv-x="572" 
d="M281 -13q-36 0 -67 10.5t-54.5 30.5t-36.5 50.5t-13 71.5q0 27 6 54l53 248h66l-54 -254q-5 -23 -5 -43q0 -46 25.5 -77t85.5 -31q28 0 56.5 10t53 29t42 47t25.5 64l54 255h66l-96 -452h-66l11 51q-27 -26 -66 -45t-86 -19zM479 590q48 0 68 90h60q-14 -68 -46.5 -109.5
t-83.5 -41.5q-27 0 -45.5 14t-34.5 31t-30 31t-32 14q-49 0 -68 -90h-60q14 68 46.5 109.5t83.5 41.5q27 0 45.5 -14t34.5 -31t30 -31t32 -14z" />
    <glyph glyph-name="Umacron" unicode="&#x16a;" horiz-adv-x="740" 
d="M225 664h69l-79 -373q-8 -38 -8 -66q0 -85 53 -130t150 -45q90 0 149.5 50t81.5 153l87 411h69l-88 -418q-27 -127 -107 -193t-196 -66q-127 0 -197.5 61t-70.5 169q0 37 9 79zM700 800l-13 -61h-336l13 61h336z" />
    <glyph glyph-name="umacron" unicode="&#x16b;" horiz-adv-x="572" 
d="M281 -13q-36 0 -67 10.5t-54.5 30.5t-36.5 50.5t-13 71.5q0 27 6 54l53 248h66l-54 -254q-5 -23 -5 -43q0 -46 25.5 -77t85.5 -31q28 0 56.5 10t53 29t42 47t25.5 64l54 255h66l-96 -452h-66l11 51q-27 -26 -66 -45t-86 -19zM579 632l-13 -61h-336l13 61h336z" />
    <glyph glyph-name="Ubreve" unicode="&#x16c;" horiz-adv-x="740" 
d="M225 664h69l-79 -373q-8 -38 -8 -66q0 -85 53 -130t150 -45q90 0 149.5 50t81.5 153l87 411h69l-88 -418q-27 -127 -107 -193t-196 -66q-127 0 -197.5 61t-70.5 169q0 37 9 79zM713 869q-20 -68 -70 -109.5t-119 -41.5q-39 0 -68.5 13t-50 34.5t-30.5 48.5t-8 55h61
q-1 -16 4.5 -32t18 -29t31 -21t43.5 -8q46 0 78.5 26t47.5 64h62z" />
    <glyph glyph-name="ubreve" unicode="&#x16d;" horiz-adv-x="572" 
d="M281 -13q-36 0 -67 10.5t-54.5 30.5t-36.5 50.5t-13 71.5q0 27 6 54l53 248h66l-54 -254q-5 -23 -5 -43q0 -46 25.5 -77t85.5 -31q28 0 56.5 10t53 29t42 47t25.5 64l54 255h66l-96 -452h-66l11 51q-27 -26 -66 -45t-86 -19zM298 696q-1 -5 -1 -10v-9q0 -16 6 -32.5
t18 -29.5t30.5 -21t43.5 -8q52 0 85.5 32.5t45.5 77.5h61q-8 -38 -25.5 -69t-42.5 -54t-57 -35.5t-68 -12.5q-39 0 -68.5 12.5t-49.5 33t-30 47.5t-10 56q0 4 0.5 11t1.5 11h60z" />
    <glyph glyph-name="Uring" unicode="&#x16e;" horiz-adv-x="740" 
d="M225 664h69l-79 -373q-8 -38 -8 -66q0 -85 53 -130t150 -45q90 0 149.5 50t81.5 153l87 411h69l-88 -418q-27 -127 -107 -193t-196 -66q-127 0 -197.5 61t-70.5 169q0 37 9 79zM512 702q-26 0 -47 9.5t-36 25.5t-23.5 37t-8.5 45q0 30 12 55t32.5 44t46.5 29.5t54 10.5
q26 0 47 -9.5t36 -25t23.5 -36.5t8.5 -45q0 -30 -12.5 -55.5t-32.5 -44t-46 -29.5t-54 -11zM518 760q15 0 29.5 6t26 16.5t18.5 24.5t7 31q0 26 -17 44t-46 18q-15 0 -29.5 -5.5t-26 -16t-18.5 -24.5t-7 -31q0 -26 17 -44.5t46 -18.5z" />
    <glyph glyph-name="uring" unicode="&#x16f;" horiz-adv-x="572" 
d="M281 -13q-36 0 -67 10.5t-54.5 30.5t-36.5 50.5t-13 71.5q0 27 6 54l53 248h66l-54 -254q-5 -23 -5 -43q0 -46 25.5 -77t85.5 -31q28 0 56.5 10t53 29t42 47t25.5 64l54 255h66l-96 -452h-66l11 51q-27 -26 -66 -45t-86 -19zM387 513q-26 0 -47 9.5t-36 25.5t-23.5 37
t-8.5 45q0 30 12 55t32.5 44t46.5 29.5t54 10.5q26 0 47 -9.5t36 -25t23.5 -36.5t8.5 -45q0 -30 -12.5 -55.5t-32.5 -44t-46 -29.5t-54 -11zM393 571q15 0 29.5 6t26 16.5t18.5 24.5t7 31q0 26 -17 44t-46 18q-15 0 -29.5 -5.5t-26 -16t-18.5 -24.5t-7 -31q0 -26 17 -44.5
t46 -18.5z" />
    <glyph glyph-name="Uhungarumlaut" unicode="&#x170;" horiz-adv-x="740" 
d="M225 664h69l-79 -373q-8 -38 -8 -66q0 -85 53 -130t150 -45q90 0 149.5 50t81.5 153l87 411h69l-88 -418q-27 -127 -107 -193t-196 -66q-127 0 -197.5 61t-70.5 169q0 37 9 79zM750 869l-163 -151h-76l163 151h76zM612 869l-163 -151h-76l163 151h76z" />
    <glyph glyph-name="uhungarumlaut" unicode="&#x171;" horiz-adv-x="572" 
d="M281 -13q-36 0 -67 10.5t-54.5 30.5t-36.5 50.5t-13 71.5q0 27 6 54l53 248h66l-54 -254q-5 -23 -5 -43q0 -46 25.5 -77t85.5 -31q28 0 56.5 10t53 29t42 47t25.5 64l54 255h66l-96 -452h-66l11 51q-27 -26 -66 -45t-86 -19zM637 696l-167 -171h-76l167 171h76zM499 696
l-167 -171h-76l167 171h76z" />
    <glyph glyph-name="Uogonek" unicode="&#x172;" horiz-adv-x="740" 
d="M225 664h69l-79 -373q-8 -38 -8 -66q0 -85 53 -130t150 -45q90 0 149.5 50t81.5 153l87 411h69l-88 -418q-22 -102 -77.5 -162t-142.5 -99q-18 -8 -37.5 -20t-35.5 -25.5t-26.5 -28t-10.5 -27.5q0 -25 44 -25h41l-14 -63h-40q-51 0 -74.5 17.5t-23.5 48.5q0 35 25.5 65.5
t63.5 59.5q-62 1 -111 17t-82.5 45.5t-51.5 72t-18 95.5q0 37 9 79z" />
    <glyph glyph-name="uogonek" unicode="&#x173;" horiz-adv-x="572" 
d="M235 452l-54 -254q-5 -23 -5 -42q0 -46 25.5 -77.5t85.5 -31.5q28 0 56.5 10t53 29t42 47t25.5 64l54 255h66l-96 -452q-15 -12 -35 -26.5t-38 -30t-30 -31t-12 -28.5q0 -25 44 -25h41l-14 -63h-40q-51 0 -74.5 17.5t-23.5 48.5q0 39 33 74.5t83 63.5l11 51
q-27 -26 -66 -45t-86 -19q-36 0 -67 10.5t-54.5 31t-36.5 51t-13 71.5q0 26 6 53l53 248h66z" />
    <glyph glyph-name="Wcircumflex" unicode="&#x174;" horiz-adv-x="1061" 
d="M221 664l79 -582l322 582h88l80 -582l322 582h78l-369 -664h-88l-81 584l-321 -584h-88l-92 664h70zM672 869h72l113 -151h-70l-83 103l-127 -103h-82z" />
    <glyph glyph-name="wcircumflex" unicode="&#x175;" horiz-adv-x="821" 
d="M543 452l62 -372l220 372h72l-267 -452h-76l-65 369l-221 -369h-76l-75 452h67l61 -372l222 372h76zM514 696h75l108 -171h-69l-81 123l-132 -123h-80z" />
    <glyph glyph-name="Ycircumflex" unicode="&#x176;" horiz-adv-x="560" 
d="M624 664h78l-335 -412l-53 -252h-69l53 252l-158 412h69l132 -349zM415 869h72l113 -151h-70l-83 103l-127 -103h-82z" />
    <glyph glyph-name="ycircumflex" unicode="&#x177;" horiz-adv-x="501" 
d="M172 452l90 -374l250 374h75l-305 -455q-33 -49 -56 -86.5t-46 -63t-49 -38.5t-65 -13h-37l13 60h16q21 0 36.5 5t29.5 17t28.5 32t32.5 50l27 45l-107 447h67zM352 696h75l108 -171h-69l-81 123l-132 -123h-80z" />
    <glyph glyph-name="Ydieresis" unicode="&#x178;" horiz-adv-x="560" 
d="M624 664h78l-335 -412l-53 -252h-69l53 252l-158 412h69l132 -349zM479 828h80l-18 -86h-80zM318 828h80l-18 -86h-80z" />
    <glyph glyph-name="Zacute" unicode="&#x179;" horiz-adv-x="638" 
d="M707 601l-549 -538h435l-13 -63h-522l13 63l548 538h-435l14 63h523zM642 869l-163 -151h-82l163 151h82z" />
    <glyph glyph-name="zacute" unicode="&#x17a;" horiz-adv-x="469" 
d="M40 0l12 60l364 332h-293l13 60h382l-13 -60l-365 -332h301l-12 -60h-389zM522 696l-167 -171h-82l167 171h82z" />
    <glyph glyph-name="Zdotaccent" unicode="&#x17b;" horiz-adv-x="638" 
d="M707 601l-549 -538h435l-13 -63h-522l13 63l548 538h-435l14 63h523zM450 838h75l-18 -81h-75z" />
    <glyph glyph-name="zdotaccent" unicode="&#x17c;" horiz-adv-x="469" 
d="M40 0l12 60l364 332h-293l13 60h382l-13 -60l-365 -332h301l-12 -60h-389zM320 659h81l-19 -88h-81z" />
    <glyph glyph-name="Zcaron" unicode="&#x17d;" horiz-adv-x="638" 
d="M707 601l-549 -538h435l-13 -63h-522l13 63l548 538h-435l14 63h523zM496 718h-72l-113 151h70l83 -103l127 103h82z" />
    <glyph glyph-name="zcaron" unicode="&#x17e;" horiz-adv-x="469" 
d="M40 0l12 60l364 332h-293l13 60h382l-13 -60l-365 -332h301l-12 -60h-389zM375 525h-75l-108 171h69l81 -123l132 123h80z" />
    <glyph glyph-name="longs" unicode="&#x17f;" horiz-adv-x="303" 
d="M84 0l112 530q14 62 63 100.5t134 38.5h48l-13 -60h-46q-49 0 -81.5 -24.5t-40.5 -63.5l-110 -521h-66z" />
    <glyph glyph-name="uni018F" unicode="&#x18f;" horiz-adv-x="752" 
d="M480 677q72 0 129.5 -23t98 -62.5t62 -94t21.5 -117.5q0 -84 -32 -155.5t-85 -124.5t-122 -83t-144 -30q-69 0 -122.5 20.5t-91 57t-57 86t-19.5 108.5q0 20 1.5 44t9.5 56h592q1 5 1.5 10t0.5 15q0 50 -18.5 92t-51.5 73t-78.5 48t-99.5 17q-30 0 -62 -7.5t-62 -21
t-56.5 -33t-44.5 -44.5h-76q24 39 58 70.5t74 53.5t84.5 33.5t89.5 11.5zM410 50q57 0 107 19.5t90 52.5t67 78t38 96h-523q-2 -11 -2 -18v-18q0 -51 16.5 -90.5t46.5 -66t71 -40t89 -13.5z" />
    <glyph glyph-name="florin" unicode="&#x192;" horiz-adv-x="457" 
d="M527 609h-46q-50 0 -81 -26t-40 -66l-36 -164h150l-13 -60h-148l-76 -356q-14 -68 -62.5 -104.5t-136.5 -36.5h-45l12 60h45q50 0 82.5 25t40.5 66l72 346h-150l13 60h150l37 175q14 67 62.5 104t136.5 37h46z" />
    <glyph glyph-name="uni01B5" unicode="&#x1b5;" horiz-adv-x="638" 
d="M707 601l-243 -238h165l-14 -63h-215l-242 -237h435l-13 -63h-522l13 63l241 237h-156l14 63h206l243 238h-435l14 63h523z" />
    <glyph glyph-name="uni01B6" unicode="&#x1b6;" horiz-adv-x="469" 
d="M40 0l12 60l147 134h-86l12 60h140l151 138h-293l13 60h382l-13 -60l-152 -138h101l-12 -60h-155l-147 -134h301l-12 -60h-389z" />
    <glyph glyph-name="Icaron" unicode="&#x1cf;" horiz-adv-x="247" 
d="M158 0h-69l141 664h69zM312 718h-72l-113 151h70l83 -103l127 103h82z" />
    <glyph glyph-name="icaron" unicode="&#x1d0;" horiz-adv-x="238" 
d="M268 525h-75l-108 171h69l81 -123l132 123h80zM248 452l-96 -452h-66l96 452h66z" />
    <glyph glyph-name="Aringacute" unicode="&#x1fa;" horiz-adv-x="668" 
d="M561 159h-381l-104 -159h-76l403 619q-17 16 -27 39t-10 49q0 30 12 55t32.5 44t46.5 29.5t54 10.5q26 0 47 -9.5t36 -25t23.5 -36.5t8.5 -45q0 -45 -27 -80t-67 -50l136 -600h-70zM221 222h326l-84 370zM487 648q15 0 29.5 6t26 16.5t18.5 24.5t7 31q0 26 -17 44t-46 18
q-15 0 -29.5 -5.5t-26 -16t-18.5 -24.5t-7 -31q0 -26 17 -44.5t46 -18.5zM684 1006l-126 -129h-82l126 129h82z" />
    <glyph glyph-name="aringacute" unicode="&#x1fb;" horiz-adv-x="542" 
d="M376 513q-26 0 -47 9.5t-36 25.5t-23.5 37t-8.5 45q0 30 12 55t32.5 44t46.5 29.5t54 10.5q26 0 47 -9.5t36 -25t23.5 -36.5t8.5 -45q0 -30 -12.5 -55.5t-32.5 -44t-46 -29.5t-54 -11zM382 571q15 0 29.5 6t26 16.5t18.5 24.5t7 31q0 26 -17 44t-46 18q-15 0 -29.5 -5.5
t-26 -16t-18.5 -24.5t-7 -31q0 -26 17 -44.5t46 -18.5zM598 953l-126 -129h-82l126 129h82zM331 465q36 0 71.5 -8.5t64 -26.5t46 -47.5t17.5 -71.5q0 -20 -5 -43l-57 -268h-66l12 52q-32 -29 -76.5 -47t-91.5 -18q-76 0 -120.5 38t-44.5 97q0 43 16.5 73.5t43.5 49.5
t61.5 27.5t70.5 8.5h188q2 8 3 16t1 14q0 24 -11 42t-30 29.5t-45.5 17t-56.5 5.5q-54 0 -93 -21.5t-59 -54.5h-71q27 65 89.5 100.5t142.5 35.5zM449 221h-180q-52 0 -87 -23.5t-35 -70.5q0 -35 28 -57.5t80 -22.5q35 0 67 12t56.5 31.5t41.5 45t22 51.5z" />
    <glyph glyph-name="AEacute" unicode="&#x1fc;" horiz-adv-x="979" 
d="M503 159h-287l-145 -159h-81l612 664h450l-14 -63h-373l-50 -238h366l-14 -63h-365l-51 -237h373l-13 -63h-442zM275 222h241l71 337zM929 869l-163 -151h-82l163 151h82z" />
    <glyph glyph-name="aeacute" unicode="&#x1fd;" horiz-adv-x="897" 
d="M515 202v-6q0 -68 40 -108.5t108 -40.5q42 0 77.5 17.5t60.5 56.5h71q-33 -69 -90 -101.5t-123 -32.5q-60 0 -111.5 26t-80.5 86q-27 -33 -56 -54.5t-58 -34.5t-56.5 -18t-50.5 -5q-76 0 -120.5 38t-44.5 97q0 43 16.5 73.5t43.5 49.5t61.5 27.5t70.5 8.5h188q2 8 3 16
t1 14q0 24 -11 42t-30 29.5t-45.5 17t-56.5 5.5q-54 0 -93 -21.5t-59 -54.5h-71q27 65 89.5 100.5t142.5 35.5q27 0 54.5 -5t52 -15.5t44.5 -27t32 -39.5q35 41 84 64t106 23q45 0 81.5 -15t62.5 -41t40 -62.5t14 -78.5q0 -14 -1.5 -29t-7.5 -37h-378zM449 221h-180
q-52 0 -87 -23.5t-35 -70.5q0 -35 28 -57.5t80 -22.5q35 0 67 12t56.5 31.5t41.5 45t22 51.5zM698 405q-30 0 -58 -10.5t-51.5 -29t-40 -45t-23.5 -58.5h309q2 8 2 16q0 26 -9 49t-26.5 40.5t-43 27.5t-59.5 10zM746 696l-167 -171h-82l167 171h82z" />
    <glyph glyph-name="Oslashacute" unicode="&#x1fe;" horiz-adv-x="784" 
d="M811 376q0 -85 -32.5 -156.5t-86.5 -123t-124 -80.5t-144 -29q-58 0 -111.5 20t-95.5 58l-86 -78h-89l135 123q-27 36 -42 81t-15 97q0 85 32.5 156.5t86.5 123t124 80.5t144 29q58 0 111 -20.5t95 -58.5l87 79h89l-135 -123q26 -37 41.5 -81.5t15.5 -96.5zM189 288
q0 -75 37 -134l440 401q-32 28 -74.5 43.5t-93.5 15.5q-60 0 -116 -24t-98.5 -67.5t-68.5 -103t-26 -131.5zM433 50q60 0 116 24t98.5 67.5t68.5 103t26 131.5q0 76 -37 133l-440 -400q32 -28 74 -43.5t94 -15.5zM738 869l-163 -151h-82l163 151h82z" />
    <glyph glyph-name="oslashacute" unicode="&#x1ff;" horiz-adv-x="570" 
d="M580 696l-167 -171h-82l167 171h82zM569 260q0 -60 -21 -110t-57 -86t-83.5 -56.5t-99.5 -20.5q-41 0 -74.5 12t-59.5 33l-47 -45h-81l89 86q-34 51 -34 119q0 60 21 110t57 86t83.5 56.5t99.5 20.5q40 0 74 -12t60 -33l47 45h81l-90 -87q17 -25 26 -55t9 -63zM167 196
q0 -42 17 -76l265 255q-38 30 -92 30q-39 0 -74 -17t-60.5 -45.5t-40.5 -66.5t-15 -80zM313 47q39 0 74 17t60.5 45.5t40.5 66.5t15 80t-18 75l-265 -254q38 -30 93 -30z" />
    <glyph glyph-name="uni0218" unicode="&#x218;" horiz-adv-x="605" 
d="M137 155q9 -21 26.5 -40.5t42.5 -33.5t56.5 -22.5t67.5 -8.5q45 0 82.5 11t65 30.5t43 45.5t15.5 57q0 80 -134 100l-111 17q-39 6 -67.5 20t-46.5 34t-27 44.5t-9 51.5q0 48 20 88t56 68.5t85.5 44t108.5 15.5t103.5 -16t76 -41t51 -54.5t27.5 -57.5h-75
q-17 45 -66.5 75.5t-123.5 30.5q-45 0 -81 -12t-60.5 -32.5t-38 -47t-13.5 -55.5q0 -41 30 -63t86 -31l123 -19q75 -12 115 -54t40 -99q0 -39 -17.5 -77.5t-53 -69t-87.5 -49t-121 -18.5q-61 0 -106.5 16t-77.5 41t-51.5 54.5t-27.5 56.5h74zM206 -223l69 86h-47l18 82h92
l-19 -90l-64 -78h-49z" />
    <glyph glyph-name="uni0219" unicode="&#x219;" horiz-adv-x="507" 
d="M136 126q14 -35 48 -57t103 -22q26 0 49.5 6t41.5 17t29 27.5t11 36.5q0 28 -25 39t-70 17l-90 11q-63 8 -91 37.5t-28 71.5q0 32 14.5 60t41 49t64.5 33.5t86 12.5q49 0 85 -12.5t61.5 -32t41 -44t21.5 -49.5h-73q-15 39 -48.5 58.5t-92.5 19.5q-27 0 -51.5 -6.5
t-43 -18t-29.5 -28t-11 -37.5q0 -28 25 -39.5t69 -16.5l88 -11q62 -8 92.5 -37t30.5 -72q0 -32 -14 -59.5t-41 -48t-66 -32.5t-90 -12q-50 0 -87 12.5t-62.5 32t-40 44.5t-20.5 50h72zM161 -223l69 86h-47l18 82h92l-19 -90l-64 -78h-49z" />
    <glyph glyph-name="uni021A" unicode="&#x21a;" horiz-adv-x="595" 
d="M710 664l-14 -63h-237l-127 -601h-69l127 601h-237l14 63h543zM202 -204l69 86h-47l18 82h92l-19 -90l-64 -78h-49z" />
    <glyph glyph-name="uni021B" unicode="&#x21b;" horiz-adv-x="397" 
d="M316 588l-29 -136h159l-13 -60h-159l-49 -233q-2 -9 -4.5 -23t-2.5 -21q0 -29 20 -42t62 -13h62l-12 -60h-63q-72 0 -104.5 27.5t-32.5 72.5q0 16 5 41l53 251h-94l13 60h94l29 136h66zM165 -204l69 86h-47l18 82h92l-19 -90l-64 -78h-49z" />
    <glyph glyph-name="uni0259" unicode="&#x259;" horiz-adv-x="548" 
d="M482 250q2 33 -8 61.5t-29.5 49.5t-48 32.5t-63.5 11.5q-42 0 -77.5 -17.5t-59.5 -56.5h-71q32 69 89.5 101.5t122.5 32.5q48 0 87.5 -15.5t67 -43t42.5 -65.5t15 -83q0 -59 -20 -108.5t-55 -85.5t-81.5 -56.5t-99.5 -20.5q-45 0 -81.5 15t-62.5 41t-40 62.5t-14 78.5
q0 14 2 29t7 37h378zM163 190q-2 -8 -2 -16q0 -26 9 -49.5t26.5 -40.5t43 -27t59.5 -10q30 0 58 10t51.5 29t40 45.5t23.5 58.5h-309z" />
    <glyph glyph-name="circumflex" unicode="&#x2c6;" horiz-adv-x="488" 
d="M353 696h75l108 -171h-69l-81 123l-132 -123h-80z" />
    <glyph glyph-name="caron" unicode="&#x2c7;" horiz-adv-x="488" 
d="M392 525h-75l-108 171h69l81 -123l132 123h80z" />
    <glyph glyph-name="uni02C9" unicode="&#x2c9;" horiz-adv-x="462" 
d="M533 632l-13 -61h-336l13 61h336z" />
    <glyph glyph-name="breve" unicode="&#x2d8;" horiz-adv-x="472" 
d="M266 696q-1 -5 -1 -10v-9q0 -16 6 -32.5t18 -29.5t30.5 -21t43.5 -8q52 0 85.5 32.5t45.5 77.5h61q-8 -38 -25.5 -69t-42.5 -54t-57 -35.5t-68 -12.5q-39 0 -68.5 12.5t-49.5 33t-30 47.5t-10 56q0 4 0.5 11t1.5 11h60z" />
    <glyph glyph-name="dotaccent" unicode="&#x2d9;" horiz-adv-x="201" 
d="M199 659h81l-19 -88h-81z" />
    <glyph glyph-name="ring" unicode="&#x2da;" horiz-adv-x="381" 
d="M310 513q-26 0 -47 9.5t-36 25.5t-23.5 37t-8.5 45q0 30 12 55t32.5 44t46.5 29.5t54 10.5q26 0 47 -9.5t36 -25t23.5 -36.5t8.5 -45q0 -30 -12.5 -55.5t-32.5 -44t-46 -29.5t-54 -11zM316 571q15 0 29.5 6t26 16.5t18.5 24.5t7 31q0 26 -17 44t-46 18q-15 0 -29.5 -5.5
t-26 -16t-18.5 -24.5t-7 -31q0 -26 17 -44.5t46 -18.5z" />
    <glyph glyph-name="ogonek" unicode="&#x2db;" horiz-adv-x="285" 
d="M221 0q-15 -12 -35 -26.5t-38 -30t-30 -31t-12 -28.5q0 -25 44 -25h41l-14 -63h-40q-51 0 -74.5 17.5t-23.5 48.5q0 39 31 72.5t76 65.5h75z" />
    <glyph glyph-name="tilde" unicode="&#x2dc;" horiz-adv-x="494" 
d="M447 590q48 0 68 90h60q-14 -68 -46.5 -109.5t-83.5 -41.5q-27 0 -45.5 14t-34.5 31t-30 31t-32 14q-49 0 -68 -90h-60q14 68 46.5 109.5t83.5 41.5q27 0 45.5 -14t34.5 -31t30 -31t32 -14z" />
    <glyph glyph-name="hungarumlaut" unicode="&#x2dd;" horiz-adv-x="471" 
d="M555 696l-167 -171h-76l167 171h76zM417 696l-167 -171h-76l167 171h76z" />
    <glyph glyph-name="accent" unicode="&#x301;" horiz-adv-x="2" 
d="M12 696l-167 -171h-82l167 171h82z" />
    <glyph glyph-name="pi" unicode="&#x3c0;" horiz-adv-x="548" 
d="M114 0l83 392h-92l13 60h504l-13 -60h-92l-83 -392h-66l83 392h-188l-83 -392h-66z" />
    <glyph glyph-name="uni0401" unicode="&#x401;" horiz-adv-x="599" 
d="M285 601l-50 -238h366l-14 -63h-365l-51 -237h373l-13 -63h-442l141 664h442l-14 -63h-373zM523 828h80l-18 -86h-80zM362 828h80l-18 -86h-80z" />
    <glyph glyph-name="uni0402" unicode="&#x402;" horiz-adv-x="793" 
d="M562 407q51 0 94.5 -11.5t75 -34t49 -54.5t17.5 -72q0 -60 -24 -104.5t-64.5 -73.5t-95 -43t-115.5 -14h-60l13 63h48q45 0 86.5 9.5t73 30t50.5 52.5t19 77q0 56 -47.5 84t-130.5 28q-45 0 -93 -6t-98 -15l-68 -323h-70l127 601h-207l14 63h513l-14 -63h-236l-45 -215
q45 10 92.5 15.5t95.5 5.5z" />
    <glyph glyph-name="uni0403" unicode="&#x403;" horiz-adv-x="572" 
d="M687 664l-14 -63h-388l-127 -601h-69l141 664h457zM664 869l-163 -151h-82l163 151h82z" />
    <glyph glyph-name="uni0404" unicode="&#x404;" horiz-adv-x="711" 
d="M497 614q-53 0 -102 -18.5t-89.5 -51.5t-69 -79t-40.5 -102h379l-14 -63h-373v-14q0 -51 17 -94t48.5 -74.5t76.5 -49.5t100 -18q66 0 117 29t89 77h76q-48 -80 -125 -124.5t-164 -44.5q-69 0 -125 23.5t-95.5 64t-61.5 95t-22 117.5q0 84 31.5 155.5t84.5 123.5
t122.5 81.5t145.5 29.5q104 0 172 -46.5t97 -122.5h-76q-29 53 -79.5 79.5t-119.5 26.5z" />
    <glyph glyph-name="uni0405" unicode="&#x405;" horiz-adv-x="605" 
d="M137 155q9 -21 26.5 -40.5t42.5 -33.5t56.5 -22.5t67.5 -8.5q45 0 82.5 11t65 30.5t43 45.5t15.5 57q0 80 -134 100l-111 17q-39 6 -67.5 20t-46.5 34t-27 44.5t-9 51.5q0 48 20 88t56 68.5t85.5 44t108.5 15.5t103.5 -16t76 -41t51 -54.5t27.5 -57.5h-75
q-17 45 -66.5 75.5t-123.5 30.5q-45 0 -81 -12t-60.5 -32.5t-38 -47t-13.5 -55.5q0 -41 30 -63t86 -31l123 -19q75 -12 115 -54t40 -99q0 -39 -17.5 -77.5t-53 -69t-87.5 -49t-121 -18.5q-61 0 -106.5 16t-77.5 41t-51.5 54.5t-27.5 56.5h74z" />
    <glyph glyph-name="uni0406" unicode="&#x406;" horiz-adv-x="247" 
d="M158 0h-69l141 664h69z" />
    <glyph glyph-name="uni0407" unicode="&#x407;" horiz-adv-x="247" 
d="M158 0h-69l141 664h69zM340 828h80l-18 -86h-80zM179 828h80l-18 -86h-80z" />
    <glyph glyph-name="uni0408" unicode="&#x408;" horiz-adv-x="404" 
d="M461 664l-105 -490q-18 -85 -79.5 -129.5t-146.5 -44.5h-125l13 63h112q28 0 53.5 7t46.5 21t36 35t21 48l105 490h69z" />
    <glyph glyph-name="uni0409" unicode="&#x409;" horiz-adv-x="1102" 
d="M1108 210q0 -46 -17 -84.5t-47.5 -66.5t-73 -43.5t-92.5 -15.5h-341l127 600h-316l-51 -238q-13 -63 -29.5 -127t-43.5 -116.5t-68 -85.5t-104 -33h-37l13 63h23q38 0 65 19t46.5 56t34.5 91t30 124l66 311h454l-60 -283h235q48 0 83 -15t58 -39.5t34 -55t11 -61.5z
M1039 205q0 49 -33.5 81t-93.5 32h-239l-54 -255h263q33 0 62 9.5t50 27.5t33 44.5t12 60.5z" />
    <glyph glyph-name="uni040A" unicode="&#x40a;" horiz-adv-x="1145" 
d="M1151 210q0 -46 -17 -84.5t-47.5 -66.5t-73 -43.5t-92.5 -15.5h-341l63 300h-422l-63 -300h-69l141 664h69l-64 -301h422l64 301h69l-60 -283h235q48 0 83 -15t58 -39.5t34 -55t11 -61.5zM1082 205q0 49 -33.5 81t-93.5 32h-239l-54 -255h263q33 0 62 9.5t50 27.5
t33 44.5t12 60.5z" />
    <glyph glyph-name="uni040B" unicode="&#x40b;" horiz-adv-x="809" 
d="M292 0h-70l127 601h-207l14 63h513l-14 -63h-236l-47 -221q18 4 43.5 8t53 7t55 4.5t49.5 1.5q120 0 173.5 -38.5t53.5 -115.5q0 -16 -2 -30.5t-7 -34.5l-39 -182h-69l40 185q3 14 4.5 28.5t1.5 25.5q0 56 -39.5 77.5t-127.5 21.5q-42 0 -94 -4.5t-109 -17.5z" />
    <glyph glyph-name="uni040C" unicode="&#x40c;" horiz-adv-x="597" 
d="M592 0h-92l-278 301l-64 -301h-69l141 664h69l-63 -296l394 296h103l-442 -337zM647 869l-163 -151h-82l163 151h82z" />
    <glyph glyph-name="uni040E" unicode="&#x40e;" horiz-adv-x="585" 
d="M232 664l129 -414l284 414h79l-352 -511q-30 -44 -53 -73.5t-45 -47t-46.5 -25t-58.5 -7.5h-57l13 63h40q37 0 65.5 18t59.5 63l23 34l-149 486h68zM336 872q-2 -42 25.5 -73t74.5 -31q23 0 45.5 8.5t42 22.5t34 33t22.5 40h65q-9 -33 -29 -63t-48 -52.5t-62.5 -36
t-72.5 -13.5q-37 0 -67.5 13.5t-52 36t-31.5 52.5t-7 63h61z" />
    <glyph glyph-name="uni040F" unicode="&#x40f;" horiz-adv-x="715" 
d="M767 664l-141 -664h-235l-32 -147h-69l32 147h-233l141 664h69l-128 -601h399l128 601h69z" />
    <glyph glyph-name="uni0410" unicode="&#x410;" horiz-adv-x="668" 
d="M561 159h-381l-104 -159h-76l433 664h85l150 -664h-70zM221 222h326l-84 370z" />
    <glyph glyph-name="uni0411" unicode="&#x411;" horiz-adv-x="655" 
d="M660 210q0 -46 -17 -84.5t-47.5 -66.5t-73 -43.5t-92.5 -15.5h-341l141 664h490l-14 -63h-420l-47 -220h235q48 0 83 -15t58 -39.5t34 -55t11 -61.5zM591 205q0 49 -33.5 81t-93.5 32h-239l-54 -255h263q33 0 62 9.5t50 27.5t33 44.5t12 60.5z" />
    <glyph glyph-name="uni0412" unicode="&#x412;" horiz-adv-x="656" 
d="M709 503q0 -20 -4.5 -45t-18 -50.5t-39 -49.5t-67.5 -42q37 -24 50.5 -55.5t13.5 -60.5q0 -40 -14 -76.5t-41 -64t-67.5 -43.5t-94.5 -16h-338l141 664h305q45 0 78 -14.5t54.5 -37.5t31.5 -51.5t10 -57.5zM640 496q0 45 -31.5 75t-87.5 30h-236l-50 -238h258
q63 0 103.5 34.5t43.5 98.5zM575 195q0 45 -31.5 75t-87.5 30h-234l-51 -237h257q63 0 103.5 34t43.5 98z" />
    <glyph glyph-name="uni0413" unicode="&#x413;" horiz-adv-x="572" 
d="M687 664l-14 -63h-388l-127 -601h-69l141 664h457z" />
    <glyph glyph-name="uni0414" unicode="&#x414;" horiz-adv-x="749" 
d="M612 -147l32 147h-555l-32 -147h-68l44 210h65q29 22 52.5 55.5t41.5 73t32 84t23 88.5l64 300h453l-128 -601h90l-45 -210h-69zM316 364q-8 -39 -19.5 -81.5t-27 -83t-36 -76t-46.5 -60.5h380l114 538h-315z" />
    <glyph glyph-name="uni0415" unicode="&#x415;" horiz-adv-x="599" 
d="M285 601l-50 -238h366l-14 -63h-365l-51 -237h373l-13 -63h-442l141 664h442l-14 -63h-373z" />
    <glyph glyph-name="uni0416" unicode="&#x416;" horiz-adv-x="889" 
d="M419 339l-262 325h84l246 -301l64 301h69l-64 -297l365 297h99l-409 -336l268 -328h-86l-251 301l-63 -301h-69l63 299l-367 -299h-96z" />
    <glyph glyph-name="uni0417" unicode="&#x417;" horiz-adv-x="626" 
d="M152 155q20 -47 72.5 -76t130.5 -29q34 0 67.5 8.5t60 26.5t43 46t16.5 67q0 43 -30.5 72.5t-84.5 29.5h-173l12 63h190q32 0 58.5 9.5t45.5 27t29.5 41t10.5 51.5q0 30 -13.5 52.5t-37 38t-55.5 23.5t-70 8q-68 0 -124.5 -27.5t-87.5 -78.5h-75q13 29 37.5 59t60 54.5
t82 40t104.5 15.5q50 0 95 -11.5t79 -34.5t54 -57t20 -79q0 -21 -5 -44.5t-18.5 -46.5t-38 -45.5t-64.5 -40.5q39 -25 53 -57.5t14 -62.5q0 -59 -25.5 -99.5t-64.5 -65t-85.5 -35.5t-89.5 -11q-60 0 -106.5 15.5t-79.5 40t-53 54.5t-28 58h74z" />
    <glyph glyph-name="uni0418" unicode="&#x418;" horiz-adv-x="746" 
d="M299 664l-121 -569l535 569h85l-141 -664h-69l120 569l-533 -569h-86l141 664h69z" />
    <glyph glyph-name="uni0419" unicode="&#x419;" horiz-adv-x="746" 
d="M299 664l-121 -569l535 569h85l-141 -664h-69l120 569l-533 -569h-86l141 664h69zM409 872q-2 -42 25.5 -73t74.5 -31q23 0 45.5 8.5t42 22.5t34 33t22.5 40h65q-9 -33 -29 -63t-48 -52.5t-62.5 -36t-72.5 -13.5q-37 0 -67.5 13.5t-52 36t-31.5 52.5t-7 63h61z" />
    <glyph glyph-name="uni041A" unicode="&#x41a;" horiz-adv-x="597" 
d="M592 0h-92l-278 301l-64 -301h-69l141 664h69l-63 -296l394 296h103l-442 -337z" />
    <glyph glyph-name="uni041B" unicode="&#x41b;" horiz-adv-x="695" 
d="M747 664l-141 -664h-69l127 600h-316l-51 -238q-13 -63 -29.5 -127t-43.5 -116.5t-68 -85.5t-104 -33h-37l13 63h23q38 0 65 19t46.5 56t34.5 91t30 124l66 311h454z" />
    <glyph glyph-name="uni041C" unicode="&#x41c;" horiz-adv-x="968" 
d="M498 69l422 595h100l-141 -664h-69l120 565l-397 -565h-88l-167 565l-120 -565h-69l141 664h92z" />
    <glyph glyph-name="uni041D" unicode="&#x41d;" horiz-adv-x="738" 
d="M580 0l63 300h-422l-63 -300h-69l141 664h69l-64 -301h422l64 301h69l-141 -664h-69z" />
    <glyph glyph-name="uni041E" unicode="&#x41e;" horiz-adv-x="772" 
d="M811 376q0 -85 -32.5 -156.5t-86.5 -123t-124 -80.5t-144 -29q-60 0 -115 21.5t-97 61.5t-67 95t-25 123q0 85 32.5 156.5t86.5 123t124 80.5t144 29q60 0 115 -21.5t97 -61.5t67 -95.5t25 -122.5zM433 50q60 0 116 24t98.5 67.5t68.5 103t26 131.5q0 51 -17.5 95
t-49.5 75.5t-77 49.5t-100 18q-60 0 -116 -24t-98.5 -67.5t-68.5 -103t-26 -131.5q0 -51 17.5 -95t49.5 -75.5t77 -49.5t100 -18z" />
    <glyph glyph-name="uni041F" unicode="&#x41f;" horiz-adv-x="726" 
d="M568 0l127 601h-410l-127 -601h-69l141 664h548l-141 -664h-69z" />
    <glyph glyph-name="uni0420" unicode="&#x420;" horiz-adv-x="654" 
d="M720 493q0 -46 -17 -84.5t-47.5 -66.5t-73 -43.5t-92.5 -15.5h-272l-60 -283h-69l141 664h304q48 0 83 -15t58 -39.5t34 -55t11 -61.5zM231 346h263q33 0 62 9.5t50 27.5t33 44.5t12 60.5q0 49 -33.5 81t-93.5 32h-238z" />
    <glyph glyph-name="uni0421" unicode="&#x421;" horiz-adv-x="711" 
d="M498 614q-61 0 -117 -24.5t-98.5 -68t-68 -103.5t-25.5 -131q0 -51 17 -94t48.5 -75t76.5 -50t100 -18q66 0 117 29t89 77h76q-48 -80 -125 -124.5t-164 -44.5q-69 0 -125 23.5t-95.5 64t-61.5 95t-22 117.5q0 84 31.5 155.5t84.5 123.5t122.5 81.5t145.5 29.5
q104 0 171.5 -46.5t97.5 -122.5h-76q-29 53 -79.5 79.5t-119.5 26.5z" />
    <glyph glyph-name="uni0422" unicode="&#x422;" horiz-adv-x="595" 
d="M710 664l-14 -63h-237l-127 -601h-69l127 601h-237l14 63h543z" />
    <glyph glyph-name="uni0423" unicode="&#x423;" horiz-adv-x="585" 
d="M232 664l129 -414l284 414h79l-352 -511q-30 -44 -53 -73.5t-45 -47t-46.5 -25t-58.5 -7.5h-57l13 63h40q37 0 65.5 18t59.5 63l23 34l-149 486h68z" />
    <glyph glyph-name="uni0424" unicode="&#x424;" horiz-adv-x="881" 
d="M656 604q55 0 101.5 -16t80 -46t52.5 -72.5t19 -94.5q0 -71 -26.5 -126.5t-71 -93.5t-101.5 -57.5t-118 -19.5h-100l-20 -96h-70l21 96h-53q-55 0 -101.5 16t-80 46t-52.5 72t-19 95q0 71 26.5 126.5t71 93.5t101.5 57.5t118 19.5h100l18 82h69l-17 -82h52zM505 141h81
q41 0 85.5 12.5t82 40t62 71.5t24.5 107q0 40 -15 71.5t-42 53t-63 33t-78 11.5h-52zM521 541h-81q-41 0 -85.5 -12.5t-82 -40t-62 -71.5t-24.5 -107q0 -40 15 -71.5t42 -53t63 -33t78 -11.5h52z" />
    <glyph glyph-name="uni0425" unicode="&#x425;" horiz-adv-x="590" 
d="M357 277l-256 -277h-86l311 337l-170 327h74l143 -276l256 276h87l-312 -336l171 -328h-73z" />
    <glyph glyph-name="uni0426" unicode="&#x426;" horiz-adv-x="752" 
d="M767 664l-128 -601h90l-45 -210h-69l32 147h-558l141 664h69l-128 -601h399l128 601h69z" />
    <glyph glyph-name="uni0427" unicode="&#x427;" horiz-adv-x="676" 
d="M267 664l-40 -185q-3 -14 -4.5 -28.5t-1.5 -25.5q0 -56 39.5 -77.5t127.5 -21.5q42 0 94 4.5t109 17.5l68 316h69l-141 -664h-69l60 284q-18 -5 -43.5 -8.5t-53 -6.5t-55 -4.5t-49.5 -1.5q-120 0 -173.5 38.5t-53.5 115.5q0 16 2 30.5t7 34.5l39 182h69z" />
    <glyph glyph-name="uni0428" unicode="&#x428;" horiz-adv-x="1001" 
d="M89 0l141 664h69l-128 -601h308l128 601h69l-128 -601h308l128 601h69l-141 -664h-823z" />
    <glyph glyph-name="uni0429" unicode="&#x429;" horiz-adv-x="1039" 
d="M1053 664l-128 -601h90l-45 -210h-69l32 147h-844l141 664h69l-128 -601h308l128 601h69l-128 -601h308l128 601h69z" />
    <glyph glyph-name="uni042A" unicode="&#x42a;" horiz-adv-x="743" 
d="M749 210q0 -46 -17 -84.5t-47.5 -66.5t-73 -43.5t-92.5 -15.5h-341l128 601h-164l14 63h232l-60 -283h235q48 0 83 -15t58 -39.5t34 -55t11 -61.5zM680 205q0 49 -33.5 81t-93.5 32h-239l-54 -255h263q33 0 62 9.5t50 27.5t33 44.5t12 60.5z" />
    <glyph glyph-name="uni042B" unicode="&#x42b;" horiz-adv-x="855" 
d="M766 0h-69l141 664h69zM640 210q0 -46 -17 -84.5t-47.5 -66.5t-73 -43.5t-92.5 -15.5h-321l141 664h69l-60 -283h215q48 0 83 -15t58 -39.5t34 -55t11 -61.5zM571 205q0 49 -33.5 81t-93.5 32h-219l-54 -255h243q33 0 62 9.5t50 27.5t33 44.5t12 60.5z" />
    <glyph glyph-name="uni042C" unicode="&#x42c;" horiz-adv-x="654" 
d="M660 210q0 -46 -17 -84.5t-47.5 -66.5t-73 -43.5t-92.5 -15.5h-341l141 664h69l-60 -283h235q48 0 83 -15t58 -39.5t34 -55t11 -61.5zM591 205q0 49 -33.5 81t-93.5 32h-239l-54 -255h263q33 0 62 9.5t50 27.5t33 44.5t12 60.5z" />
    <glyph glyph-name="uni042D" unicode="&#x42d;" horiz-adv-x="704" 
d="M355 50q52 0 101 18t89 51t68.5 79t40.5 102h-386l14 63h380q0 3 0.5 7.5t0.5 8.5q0 51 -16.5 94t-47.5 74.5t-75.5 49t-99.5 17.5q-67 0 -119 -29t-90 -77h-76q48 80 125 124.5t167 44.5q69 0 124.5 -23.5t94.5 -64t60.5 -95t21.5 -117.5q0 -84 -31 -155.5t-83.5 -123.5
t-122 -81.5t-146.5 -29.5q-104 0 -172.5 46.5t-97.5 122.5h76q29 -53 80 -79.5t120 -26.5z" />
    <glyph glyph-name="uni042E" unicode="&#x42e;" horiz-adv-x="1020" 
d="M679 -13q-67 0 -122.5 22.5t-95 62.5t-61.5 94.5t-22 118.5v15h-157l-63 -300h-69l141 664h69l-64 -301h150q14 69 49.5 127t85 99.5t110 64.5t125.5 23q68 0 124 -22.5t95.5 -62.5t61.5 -94.5t22 -118.5q0 -86 -32 -158t-85.5 -124t-121.5 -81t-140 -29zM684 50
q58 0 113 24.5t98 68t68.5 103.5t25.5 132q0 49 -17 92t-48 75t-74.5 50.5t-97.5 18.5q-59 0 -113.5 -24.5t-97.5 -68t-68.5 -104t-25.5 -131.5q0 -49 17 -92t48 -75t74.5 -50.5t97.5 -18.5z" />
    <glyph glyph-name="uni042F" unicode="&#x42f;" horiz-adv-x="648" 
d="M128 454q0 46 17 84.5t47.5 66.5t73 43.5t92.5 15.5h342l-141 -664h-69l59 283h-160l-275 -283h-89l276 284q-83 8 -128 54.5t-45 115.5zM197 459q0 -56 42.5 -84.5t114.5 -28.5h209l54 255h-263q-33 0 -62 -9.5t-50 -27.5t-33 -44.5t-12 -60.5z" />
    <glyph glyph-name="uni0430" unicode="&#x430;" horiz-adv-x="542" 
d="M331 465q36 0 71.5 -8.5t64 -26.5t46 -47.5t17.5 -71.5q0 -20 -5 -43l-57 -268h-66l12 52q-32 -29 -76.5 -47t-91.5 -18q-76 0 -120.5 38t-44.5 97q0 43 16.5 73.5t43.5 49.5t61.5 27.5t70.5 8.5h188q2 8 3 16t1 14q0 24 -11 42t-30 29.5t-45.5 17t-56.5 5.5
q-54 0 -93 -21.5t-59 -54.5h-71q27 65 89.5 100.5t142.5 35.5zM449 221h-180q-52 0 -87 -23.5t-35 -70.5q0 -35 28 -57.5t80 -22.5q35 0 67 12t56.5 31.5t41.5 45t22 51.5z" />
    <glyph glyph-name="uni0431" unicode="&#x431;" horiz-adv-x="583" 
d="M380 453q40 0 77 -15t64.5 -42.5t44 -65t16.5 -82.5q0 -53 -21 -100.5t-57.5 -83t-85 -56.5t-102.5 -21q-55 0 -94 17t-64 45.5t-36.5 67t-11.5 80.5q0 65 14 134t44 127t77 97t114 44l137 11q39 3 62.5 15.5t33.5 43.5h70q-6 -21 -16.5 -41t-27.5 -36t-44 -27t-66 -14
l-131 -10q-45 -3 -75.5 -20.5t-50 -41t-31 -49t-17.5 -46.5q26 26 69 47.5t108 21.5zM516 244q0 30 -10.5 57t-30 47.5t-47.5 32.5t-63 12q-39 0 -73.5 -15.5t-60 -42.5t-40.5 -63t-15 -76q0 -30 9.5 -57t28 -47.5t45.5 -32.5t62 -12q39 0 74.5 15.5t62 42.5t42.5 63t16 76z
" />
    <glyph glyph-name="uni0432" unicode="&#x432;" horiz-adv-x="548" 
d="M480 212q24 -12 34.5 -34.5t10.5 -47.5q0 -54 -37.5 -92t-109.5 -38h-294l96 452h269q31 0 53.5 -10t37 -26t21.5 -36t7 -40t-5.5 -39.5t-17 -37t-28 -31t-37.5 -20.5zM377 60q35 0 58.5 19t23.5 57q0 24 -17 42t-49 18h-201l-29 -136h214zM420 256q35 0 58.5 19t23.5 57
q0 24 -17 42t-49 18h-203l-29 -136h216z" />
    <glyph glyph-name="uni0433" unicode="&#x433;" horiz-adv-x="462" 
d="M527 452l-13 -60h-281l-83 -392h-66l96 452h347z" />
    <glyph glyph-name="uni0434" unicode="&#x434;" horiz-adv-x="595" 
d="M460 -126l27 126h-406l-27 -126h-65l38 186h49q21 15 38 37.5t30 49.5t22.5 57t16.5 61l40 187h353l-84 -392h73l-39 -186h-66zM249 265q-6 -26 -13.5 -54.5t-18 -56t-25 -52t-33.5 -42.5h267l71 332h-221z" />
    <glyph glyph-name="uni0435" unicode="&#x435;" horiz-adv-x="548" 
d="M165 202v-6q0 -68 40 -108.5t108 -40.5q42 0 77.5 17.5t60.5 56.5h71q-33 -69 -90 -101.5t-123 -32.5q-48 0 -87 15.5t-66.5 43t-42.5 65.5t-15 83q0 58 20 108t55 86t81.5 56.5t99.5 20.5q45 0 81.5 -15t62.5 -41t40 -62.5t14 -78.5q0 -14 -1.5 -29t-7.5 -37h-378z
M348 405q-30 0 -58 -10.5t-51.5 -29t-40 -45t-23.5 -58.5h309q2 8 2 16q0 26 -9 49t-26.5 40.5t-43 27.5t-59.5 10z" />
    <glyph glyph-name="uni0436" unicode="&#x436;" horiz-adv-x="665" 
d="M461 452l-42 -196l243 196h91l-284 -230l185 -222h-85l-163 195l-41 -195h-66l40 188l-237 -188h-94l282 224l-184 228h81l165 -203l43 203h66z" />
    <glyph glyph-name="uni0437" unicode="&#x437;" horiz-adv-x="522" 
d="M150 126q11 -35 45.5 -57t100.5 -22q25 0 48 5.5t41 16.5t28.5 27.5t10.5 38.5q0 26 -16.5 43.5t-48.5 17.5h-110l12 60h122q14 0 28 3.5t25.5 12t19 21.5t7.5 31q0 38 -37 59.5t-94 21.5q-53 0 -91.5 -20t-59.5 -56h-71q10 25 29.5 49.5t48.5 43.5t66.5 30.5t82.5 11.5
q35 0 69.5 -8.5t61.5 -25.5t44 -42.5t17 -59.5q0 -80 -76 -113q17 -11 27 -30t10 -45q0 -31 -14 -59t-40 -49t-63 -33t-83 -12q-51 0 -88.5 12.5t-63 32t-40.5 44.5t-20 50h72z" />
    <glyph glyph-name="uni0438" unicode="&#x438;" horiz-adv-x="589" 
d="M84 0l96 452h66l-75 -350l364 350h66l-96 -452h-66l74 350l-363 -350h-66z" />
    <glyph glyph-name="uni0439" unicode="&#x439;" horiz-adv-x="589" 
d="M84 0l96 452h66l-75 -350l364 350h66l-96 -452h-66l74 350l-363 -350h-66zM602 674q-10 -34 -28.5 -61.5t-44 -47.5t-56 -31t-64.5 -11q-39 0 -69.5 13t-51.5 34.5t-31.5 48.5t-8.5 55h61q-2 -16 4.5 -32t19.5 -29t32.5 -21t44.5 -8q46 0 80.5 26t49.5 64h62z" />
    <glyph glyph-name="uni043A" unicode="&#x43a;" horiz-adv-x="479" 
d="M246 452l-44 -207l271 207h92l-302 -234l207 -218h-85l-193 202l-42 -202h-66l96 452h66z" />
    <glyph glyph-name="uni043B" unicode="&#x43b;" horiz-adv-x="561" 
d="M568 452l-96 -452h-66l83 392h-216l-28 -133q-9 -43 -21.5 -89t-35 -83.5t-58 -62t-90.5 -24.5h-19l13 63h9q34 0 57 18t38 46t24 62.5t16 67.5l42 195h348z" />
    <glyph glyph-name="uni043C" unicode="&#x43c;" horiz-adv-x="707" 
d="M389 0h-75l-94 331l-70 -331h-66l96 452h74l108 -383l272 383h81l-96 -452h-66l70 331z" />
    <glyph glyph-name="uni043D" unicode="&#x43d;" horiz-adv-x="589" 
d="M601 452l-96 -452h-66l41 197h-289l-41 -197h-66l96 452h66l-42 -195h289l42 195h66z" />
    <glyph glyph-name="uni043E" unicode="&#x43e;" horiz-adv-x="570" 
d="M569 260q0 -60 -21 -110t-57 -86t-83.5 -56.5t-99.5 -20.5q-47 0 -85 16t-65 43.5t-42 65t-15 80.5q0 60 21 110t57 86t83.5 56.5t99.5 20.5q47 0 85 -16t65 -43.5t42 -65t15 -80.5zM313 47q39 0 74 17t60.5 45.5t40.5 66.5t15 80q0 31 -10 58t-28.5 47t-46 32t-61.5 12
q-39 0 -74 -17t-60.5 -45.5t-40.5 -66.5t-15 -80q0 -31 10 -58t28.5 -47.5t45.5 -32t62 -11.5z" />
    <glyph glyph-name="uni043F" unicode="&#x43f;" horiz-adv-x="580" 
d="M592 452l-96 -452h-66l83 392h-280l-83 -392h-66l96 452h412z" />
    <glyph glyph-name="uni0440" unicode="&#x440;" horiz-adv-x="593" 
d="M40 -204l140 656h66l-11 -51q23 24 64.5 44t91.5 20q51 0 89.5 -17t64.5 -45t39 -65t13 -76q0 -54 -18.5 -103.5t-52.5 -88t-81.5 -61t-105.5 -22.5q-33 0 -61 8t-49.5 20.5t-37.5 29t-25 33.5l-60 -282h-66zM531 258q0 36 -11.5 63.5t-31 46t-45.5 28t-56 9.5
q-41 0 -76 -17.5t-61 -47t-41 -67.5t-15 -79q0 -36 11 -63.5t30.5 -46t46 -28t56.5 -9.5q40 0 75.5 17.5t61.5 46.5t41 67.5t15 79.5z" />
    <glyph glyph-name="uni0441" unicode="&#x441;" horiz-adv-x="541" 
d="M487 331q-16 32 -50 53t-82 21q-39 0 -73.5 -16.5t-61 -45t-41.5 -66t-15 -79.5q0 -31 10.5 -58.5t29.5 -48t46 -32.5t60 -12q46 0 83 19.5t60 54.5h71q-33 -67 -91.5 -100.5t-125.5 -33.5q-47 0 -85.5 15.5t-66 43.5t-42.5 65.5t-15 81.5q0 58 21.5 108t58 86.5t84 57
t100.5 20.5q73 0 125 -36.5t71 -97.5h-71z" />
    <glyph glyph-name="uni0442" unicode="&#x442;" horiz-adv-x="464" 
d="M117 452h422l-13 -60h-178l-83 -392h-66l83 392h-178z" />
    <glyph glyph-name="uni0443" unicode="&#x443;" horiz-adv-x="501" 
d="M172 452l90 -374l250 374h75l-305 -455q-33 -49 -56 -86.5t-46 -63t-49 -38.5t-65 -13h-37l13 60h16q21 0 36.5 5t29.5 17t28.5 32t32.5 50l27 45l-107 447h67z" />
    <glyph glyph-name="uni0444" unicode="&#x444;" horiz-adv-x="746" 
d="M311 0q-46 0 -85.5 13.5t-68.5 38.5t-45.5 61.5t-16.5 83.5q0 63 23 110.5t62 80t91 48.5t110 16h55l46 217h66l-46 -217h28q46 0 85.5 -13.5t69 -38.5t46 -62t16.5 -83q0 -63 -23 -110.5t-62 -80t-91 -48.5t-110 -16h-55l-44 -204h-66l44 204h-29zM418 60h56
q45 0 83 13.5t65 39t42.5 61t15.5 80.5q0 36 -13 62t-35 43t-51.5 25t-63.5 8h-28zM423 392h-56q-45 0 -83 -13.5t-65 -39t-42.5 -61t-15.5 -80.5q0 -36 12.5 -62t34.5 -43t51.5 -25t63.5 -8h29z" />
    <glyph glyph-name="uni0445" unicode="&#x445;" horiz-adv-x="491" 
d="M334 223l140 -223h-74l-112 178l-181 -178h-86l235 231l-138 221h74l109 -176l179 176h87z" />
    <glyph glyph-name="uni0446" unicode="&#x446;" horiz-adv-x="613" 
d="M479 -126l27 126h-422l96 452h66l-84 -392h283l84 392h66l-84 -392h73l-39 -186h-66z" />
    <glyph glyph-name="uni0447" unicode="&#x447;" horiz-adv-x="552" 
d="M153 452h66l-30 -137q-3 -15 -3 -28q0 -33 25 -48.5t88 -15.5q32 0 70 3.5t83 10.5l46 215h66l-96 -452h-66l37 178q-10 -3 -29 -5.5t-41 -4.5t-43 -3.5t-35 -1.5q-172 0 -172 110q0 19 4 38z" />
    <glyph glyph-name="uni0448" unicode="&#x448;" horiz-adv-x="798" 
d="M84 0l96 452h66l-84 -392h216l84 392h66l-84 -392h216l84 392h66l-96 -452h-630z" />
    <glyph glyph-name="uni0449" unicode="&#x449;" horiz-adv-x="829" 
d="M810 452l-84 -392h73l-39 -186h-66l27 126h-637l96 452h66l-84 -392h216l84 392h66l-84 -392h216l84 392h66z" />
    <glyph glyph-name="uni044A" unicode="&#x44a;" horiz-adv-x="593" 
d="M321 452l-34 -159h170q37 0 64 -11.5t44.5 -30.5t26 -42.5t8.5 -47.5q0 -35 -13 -64.5t-36.5 -51t-56 -33.5t-71.5 -12h-264l83 392h-144l13 60h210zM238 60h189q46 0 76.5 25t30.5 71q0 34 -22.5 55.5t-64.5 21.5h-173z" />
    <glyph glyph-name="uni044B" unicode="&#x44b;" horiz-adv-x="690" 
d="M702 452l-96 -452h-66l96 452h66zM83 0l96 452h66l-34 -159h145q37 0 64 -11.5t44.5 -30.5t26 -42.5t8.5 -47.5q0 -35 -13 -64.5t-36.5 -51t-56 -33.5t-71.5 -12h-239zM162 60h164q46 0 76.5 25t30.5 71q0 34 -22.5 55.5t-64.5 21.5h-148z" />
    <glyph glyph-name="uni044C" unicode="&#x44c;" horiz-adv-x="517" 
d="M83 0l96 452h66l-34 -159h170q37 0 64 -11.5t44.5 -30.5t26 -42.5t8.5 -47.5q0 -35 -13 -64.5t-36.5 -51t-56 -33.5t-71.5 -12h-264zM162 60h189q46 0 76.5 25t30.5 71q0 34 -22.5 55.5t-64.5 21.5h-173z" />
    <glyph glyph-name="uni044D" unicode="&#x44d;" horiz-adv-x="543" 
d="M151 121q16 -32 50 -53t82 -21q32 0 62 11t54.5 31t41.5 47.5t25 60.5h-247l13 60h242q0 30 -10.5 57t-29.5 47.5t-46 32t-60 11.5q-46 0 -83 -19.5t-60 -54.5h-71q33 67 91.5 100.5t125.5 33.5q48 0 86.5 -15.5t65.5 -43.5t42 -65.5t15 -81.5q0 -58 -21.5 -108
t-57.5 -86.5t-84 -57t-101 -20.5q-73 0 -125 36.5t-71 97.5h71z" />
    <glyph glyph-name="uni044E" unicode="&#x44e;" horiz-adv-x="755" 
d="M493 -13q-47 0 -85 15.5t-65 43.5t-41.5 65t-14.5 81v5h-96l-41 -197h-66l96 452h66l-42 -195h91q11 43 34 81t56 66t74.5 44.5t88.5 16.5t85 -16t65 -43.5t41.5 -65.5t14.5 -81q0 -51 -20 -100t-55 -87t-82.5 -61.5t-103.5 -23.5zM500 47q40 0 74.5 17.5t59.5 47
t39.5 67t14.5 76.5q0 31 -10 58.5t-28.5 47.5t-46 32t-61.5 12q-40 0 -74.5 -18t-60 -47t-40 -67t-14.5 -77q0 -31 10 -58t29 -47.5t46 -32t62 -11.5z" />
    <glyph glyph-name="uni044F" unicode="&#x44f;" horiz-adv-x="520" 
d="M290 159l-170 -159h-87l175 163q-27 6 -46.5 19t-32.5 30t-19 37.5t-6 41.5q0 35 13 64.5t36.5 51t56 33.5t71.5 12h251l-96 -452h-66l34 159h-114zM453 392h-176q-46 0 -76.5 -25t-30.5 -71q0 -40 28 -58.5t70 -18.5h149z" />
    <glyph glyph-name="uni0451" unicode="&#x451;" horiz-adv-x="548" 
d="M165 202v-6q0 -68 40 -108.5t108 -40.5q42 0 77.5 17.5t60.5 56.5h71q-33 -69 -90 -101.5t-123 -32.5q-48 0 -87 15.5t-66.5 43t-42.5 65.5t-15 83q0 58 20 108t55 86t81.5 56.5t99.5 20.5q45 0 81.5 -15t62.5 -41t40 -62.5t14 -78.5q0 -14 -1.5 -29t-7.5 -37h-378z
M348 405q-30 0 -58 -10.5t-51.5 -29t-40 -45t-23.5 -58.5h309q2 8 2 16q0 26 -9 49t-26.5 40.5t-43 27.5t-59.5 10zM444 657h80l-18 -86h-80zM283 657h80l-18 -86h-80z" />
    <glyph glyph-name="uni0452" unicode="&#x452;" horiz-adv-x="583" 
d="M495 -70q-14 -67 -59.5 -100.5t-130.5 -33.5h-63l13 60h62q49 0 76.5 19.5t38.5 68.5l66 310q5 23 5 42q0 46 -26.5 77.5t-87.5 31.5q-29 0 -58 -10t-53.5 -29t-43 -47t-25.5 -64l-54 -255h-66l113 534h-79l13 60h79l16 75h66l-16 -75h152l-13 -60h-152l-28 -133
q27 26 67 45t88 19q36 0 68 -10.5t55.5 -31t37 -51.5t13.5 -71q0 -26 -6 -53z" />
    <glyph glyph-name="uni0453" unicode="&#x453;" horiz-adv-x="462" 
d="M552 696l-167 -171h-82l167 171h82zM527 452l-13 -60h-281l-83 -392h-66l96 452h347z" />
    <glyph glyph-name="uni0454" unicode="&#x454;" horiz-adv-x="541" 
d="M487 331q-16 32 -50 53t-82 21q-32 0 -61.5 -11t-54 -31t-42 -47t-25.5 -59h247l-13 -60h-242q0 -32 10.5 -59.5t29.5 -47.5t46 -31.5t60 -11.5q46 0 83 19.5t60 54.5h71q-33 -67 -91.5 -100.5t-125.5 -33.5q-47 0 -85.5 16t-66 43.5t-42.5 65.5t-15 82q0 58 21.5 108
t57.5 86t84 56.5t101 20.5q73 0 125 -36.5t71 -97.5h-71z" />
    <glyph glyph-name="uni0455" unicode="&#x455;" horiz-adv-x="507" 
d="M136 126q14 -35 48 -57t103 -22q26 0 49.5 6t41.5 17t29 27.5t11 36.5q0 28 -25 39t-70 17l-90 11q-63 8 -91 37.5t-28 71.5q0 32 14.5 60t41 49t64.5 33.5t86 12.5q49 0 85 -12.5t61.5 -32t41 -44t21.5 -49.5h-73q-15 39 -48.5 58.5t-92.5 19.5q-27 0 -51.5 -6.5
t-43 -18t-29.5 -28t-11 -37.5q0 -28 25 -39.5t69 -16.5l88 -11q62 -8 92.5 -37t30.5 -72q0 -32 -14 -59.5t-41 -48t-66 -32.5t-90 -12q-50 0 -87 12.5t-62.5 32t-40 44.5t-20.5 50h72z" />
    <glyph glyph-name="uni0456" unicode="&#x456;" horiz-adv-x="238" 
d="M248 452l-96 -452h-66l96 452h66zM218 659h81l-19 -88h-81z" />
    <glyph glyph-name="uni0457" unicode="&#x457;" horiz-adv-x="238" 
d="M300 657h80l-18 -86h-80zM139 657h80l-18 -86h-80zM248 452l-96 -452h-66l96 452h66z" />
    <glyph glyph-name="uni0458" unicode="&#x458;" horiz-adv-x="254" 
d="M242 659h81l-19 -88h-81zM272 452l-111 -522q-14 -67 -59.5 -100.5t-130.5 -33.5h-63l13 60h62q49 0 76.5 19.5t38.5 68.5l108 508h66z" />
    <glyph glyph-name="uni0459" unicode="&#x459;" horiz-adv-x="839" 
d="M406 0l83 392h-216l-28 -133q-9 -43 -21.5 -89t-35 -83.5t-58 -62t-90.5 -24.5h-19l13 63h9q34 0 57 18t38 46t24 62.5t16 67.5l42 195h348l-34 -159h170q37 0 64 -11.5t44.5 -30.5t26 -42.5t8.5 -47.5q0 -35 -13 -64.5t-36.5 -51t-56 -33.5t-71.5 -12h-264zM485 60h189
q46 0 76.5 25t30.5 71q0 34 -22.5 55.5t-64.5 21.5h-173z" />
    <glyph glyph-name="uni045A" unicode="&#x45a;" horiz-adv-x="872" 
d="M880 161q0 -35 -13 -64.5t-36.5 -51t-56 -33.5t-71.5 -12h-264l41 197h-289l-41 -197h-66l96 452h66l-42 -195h289l42 195h66l-34 -159h170q37 0 64 -11.5t44.5 -30.5t26 -42.5t8.5 -47.5zM518 60h189q46 0 76.5 25t30.5 71q0 34 -22.5 55.5t-64.5 21.5h-173z" />
    <glyph glyph-name="uni045B" unicode="&#x45b;" horiz-adv-x="583" 
d="M395 465q36 0 68 -10.5t55.5 -31t37 -51.5t13.5 -71q0 -26 -6 -53l-53 -248h-66l54 254q5 23 5 42q0 46 -26.5 77.5t-87.5 31.5q-29 0 -58 -10t-53.5 -29t-43 -47t-25.5 -64l-54 -255h-66l113 534h-79l13 60h79l16 75h66l-16 -75h152l-13 -60h-152l-28 -133q27 26 67 45
t88 19z" />
    <glyph glyph-name="uni045C" unicode="&#x45c;" horiz-adv-x="479" 
d="M565 696l-167 -171h-82l167 171h82zM246 452l-44 -207l271 207h92l-302 -234l207 -218h-85l-193 202l-42 -202h-66l96 452h66z" />
    <glyph glyph-name="uni045E" unicode="&#x45e;" horiz-adv-x="501" 
d="M172 452l90 -374l250 374h75l-305 -455q-33 -49 -56 -86.5t-46 -63t-49 -38.5t-65 -13h-37l13 60h16q21 0 36.5 5t29.5 17t28.5 32t32.5 50l27 45l-107 447h67zM552 674q-10 -34 -28.5 -61.5t-44 -47.5t-56 -31t-64.5 -11q-39 0 -69.5 13t-51.5 34.5t-31.5 48.5t-8.5 55
h61q-2 -16 4.5 -32t19.5 -29t32.5 -21t44.5 -8q46 0 80.5 26t49.5 64h62z" />
    <glyph glyph-name="uni045F" unicode="&#x45f;" horiz-adv-x="583" 
d="M232 -126l27 126h-175l96 452h66l-84 -392h283l84 392h66l-96 -452h-174l-27 -126h-66z" />
    <glyph glyph-name="uni0490" unicode="&#x490;" horiz-adv-x="572" 
d="M618 664l29 140h69l-43 -203h-388l-127 -601h-69l141 664h388z" />
    <glyph glyph-name="uni0491" unicode="&#x491;" horiz-adv-x="462" 
d="M551 568l-37 -176h-281l-83 -392h-66l96 452h281l24 116h66z" />
    <glyph glyph-name="uni0492" unicode="&#x492;" horiz-adv-x="610" 
d="M490 300h-231l-63 -300h-69l63 300h-106l14 63h106l64 301h457l-14 -63h-388l-50 -238h231z" />
    <glyph glyph-name="uni0493" unicode="&#x493;" horiz-adv-x="478" 
d="M151 247l44 205h347l-13 -60h-281l-31 -145h180l-13 -60h-180l-39 -187h-66l39 187h-78l13 60h78z" />
    <glyph glyph-name="uni049A" unicode="&#x49a;" 
d="M534 63h75l-45 -210h-69l32 147h-27l-278 301l-64 -301h-69l141 664h69l-63 -296l394 296h103l-442 -337z" />
    <glyph glyph-name="uni049B" unicode="&#x49b;" horiz-adv-x="501" 
d="M246 452l-44 -207l271 207h92l-302 -234l150 -158h70l-39 -186h-66l27 126h-20l-193 202l-42 -202h-66l96 452h66z" />
    <glyph glyph-name="uni04A2" unicode="&#x4a2;" horiz-adv-x="775" 
d="M580 0l63 300h-422l-63 -300h-69l141 664h69l-64 -301h422l64 301h69l-128 -601h90l-45 -210h-69l32 147h-90z" />
    <glyph glyph-name="uni04A3" unicode="&#x4a3;" horiz-adv-x="619" 
d="M480 197h-289l-41 -197h-66l96 452h66l-42 -195h289l42 195h66l-84 -392h73l-39 -186h-66l27 126h-73z" />
    <glyph glyph-name="uni04AE" unicode="&#x4ae;" horiz-adv-x="560" 
d="M624 664h78l-335 -412l-53 -252h-69l53 252l-158 412h69l132 -349z" />
    <glyph glyph-name="uni04AF" unicode="&#x4af;" horiz-adv-x="500" 
d="M282 -2l-43 -202h-66l43 202l-110 454h68l89 -374l249 374h74z" />
    <glyph glyph-name="uni04B0" unicode="&#x4b0;" horiz-adv-x="560" 
d="M624 664h78l-303 -372h143l-14 -63h-166l-48 -229h-69l48 229h-161l14 63h136l-142 372h69l132 -349z" />
    <glyph glyph-name="uni04B1" unicode="&#x4b1;" horiz-adv-x="500" 
d="M313 45h144l-13 -60h-165l-40 -189h-66l40 189h-165l13 60h143l-98 407h68l89 -374l249 374h74z" />
    <glyph glyph-name="uni04BA" unicode="&#x4ba;" horiz-adv-x="676" 
d="M550.032 0.0810547l39.9951 184.978q3 13.998 4.5 28.4961t1.5 25.4971q0 55.9932 -39.4951 77.4902q-39.4951 21.498 -127.485 21.498q-41.9941 0 -93.9883 -4.5q-51.9932 -4.49902 -108.986 -17.4971l-67.9922 -315.962h-68.9912l140.982 663.919h68.9922
l-59.9932 -283.965q17.998 4.99902 43.4951 8.49805q25.4971 3.5 52.9932 6.5q27.4971 2.99902 54.9932 4.49902q27.4971 1.5 49.4941 1.5q119.985 0 173.479 -38.4951q53.4941 -38.4961 53.4941 -115.486q0 -15.998 -2 -30.4961t-6.99902 -34.4961l-38.9951 -181.978
h-68.9922z" />
    <glyph glyph-name="uni04BB" unicode="&#x4bb;" horiz-adv-x="578" 
d="M390 465q36 0 68 -10.5t55.5 -31t37 -51.5t13.5 -71q0 -26 -6 -53l-53 -248h-66l54 254q5 23 5 42q0 46 -26.5 77.5t-87.5 31.5q-29 0 -58 -10t-53.5 -29t-43 -47t-25.5 -64l-54 -255h-66l142 669h66l-57 -268q27 26 67 45t88 19z" />
    <glyph glyph-name="uni04D8" unicode="&#x4d8;" horiz-adv-x="752" 
d="M480 677q72 0 129.5 -23t98 -62.5t62 -94t21.5 -117.5q0 -84 -32 -155.5t-85 -124.5t-122 -83t-144 -30q-69 0 -122.5 20.5t-91 57t-57 86t-19.5 108.5q0 20 1.5 44t9.5 56h592q1 5 1.5 10t0.5 15q0 50 -18.5 92t-51.5 73t-78.5 48t-99.5 17q-30 0 -62 -7.5t-62 -21
t-56.5 -33t-44.5 -44.5h-76q24 39 58 70.5t74 53.5t84.5 33.5t89.5 11.5zM410 50q57 0 107 19.5t90 52.5t67 78t38 96h-523q-2 -11 -2 -18v-18q0 -51 16.5 -90.5t46.5 -66t71 -40t89 -13.5z" />
    <glyph glyph-name="uni04D9" unicode="&#x4d9;" horiz-adv-x="548" 
d="M482 250q2 33 -8 61.5t-29.5 49.5t-48 32.5t-63.5 11.5q-42 0 -77.5 -17.5t-59.5 -56.5h-71q32 69 89.5 101.5t122.5 32.5q48 0 87.5 -15.5t67 -43t42.5 -65.5t15 -83q0 -59 -20 -108.5t-55 -85.5t-81.5 -56.5t-99.5 -20.5q-45 0 -81.5 15t-62.5 41t-40 62.5t-14 78.5
q0 14 1.5 29t7.5 37h378zM299 47q30 0 58 10t51.5 29t40 45.5t23.5 58.5h-309q-2 -8 -2 -16q0 -26 9 -49.5t26.5 -40.5t43 -27t59.5 -10z" />
    <glyph glyph-name="uni04E8" unicode="&#x4e8;" horiz-adv-x="772" 
d="M811 376q0 -85 -32.5 -156.5t-86.5 -123t-124 -80.5t-144 -29q-60 0 -115 21.5t-97 61.5t-67 95t-25 123q0 85 32.5 156.5t86.5 123t124 80.5t144 29q60 0 115 -21.5t97 -61.5t67 -95.5t25 -122.5zM498 614q-52 0 -100.5 -18t-89 -51t-70 -79.5t-41.5 -102.5h544
q0 3 0.5 6t0.5 7q0 51 -17.5 95t-49.5 75.5t-77 49.5t-100 18zM433 50q52 0 100.5 18t89 51t69.5 79t42 102h-545v-12q0 -51 17.5 -95t49.5 -75.5t77 -49.5t100 -18z" />
    <glyph glyph-name="uni04E9" unicode="&#x4e9;" horiz-adv-x="570" 
d="M569 260q0 -60 -21 -110t-56.5 -86t-83 -56.5t-100.5 -20.5q-47 0 -85 16t-65 43.5t-42 65t-15 80.5q0 60 21 110t56.5 86t83 56.5t100.5 20.5q47 0 85 -16t65 -43.5t42 -65t15 -80.5zM313 47q32 0 61.5 11.5t53.5 31.5t41.5 47.5t25.5 59.5h-328v-1q0 -31 9.5 -58
t28.5 -47.5t46 -32t62 -11.5zM357 405q-32 0 -61.5 -11.5t-53.5 -31t-41.5 -47t-25.5 -58.5h328q0 30 -10 57t-29 47.5t-46 32t-61 11.5z" />
    <glyph glyph-name="uni1E02" unicode="&#x1e02;" horiz-adv-x="656" 
d="M709 503q0 -20 -4.5 -45t-18 -50.5t-39 -49.5t-67.5 -42q37 -24 50.5 -55.5t13.5 -60.5q0 -40 -14 -76.5t-41 -64t-67.5 -43.5t-94.5 -16h-338l141 664h305q45 0 78 -14.5t54.5 -37.5t31.5 -51.5t10 -57.5zM640 496q0 45 -31.5 75t-87.5 30h-236l-50 -238h258
q63 0 103.5 34.5t43.5 98.5zM575 195q0 45 -31.5 75t-87.5 30h-234l-51 -237h257q63 0 103.5 34t43.5 98zM456 838h75l-18 -81h-75z" />
    <glyph glyph-name="uni1E03" unicode="&#x1e03;" horiz-adv-x="593" 
d="M84 0l142 669h66l-57 -268q23 24 64.5 44t91.5 20q51 0 89.5 -17t64.5 -45t39 -65t13 -76q0 -54 -18.5 -103.5t-52.5 -88t-81.5 -61t-105.5 -22.5q-33 0 -61 8t-49.5 20.5t-37.5 29t-25 33.5l-16 -78h-66zM531 258q0 36 -11.5 63.5t-31 46t-45.5 28t-56 9.5
q-41 0 -76 -17.5t-61 -47t-41 -67.5t-15 -79q0 -36 11 -63.5t30.5 -46t46 -28t56.5 -9.5q40 0 75.5 17.5t61.5 46.5t41 67.5t15 79.5zM460 838h75l-18 -81h-75z" />
    <glyph glyph-name="uni1E0A" unicode="&#x1e0a;" horiz-adv-x="720" 
d="M451 664q76 0 132.5 -25t94.5 -66t57 -94t19 -108q0 -75 -29 -142.5t-81.5 -118.5t-125.5 -80.5t-161 -29.5h-268l141 664h221zM171 63h196q65 0 123 22t101.5 62.5t68.5 96.5t25 125q0 46 -15.5 88t-46.5 74t-76 51t-103 19h-159zM490 838h75l-18 -81h-75z" />
    <glyph glyph-name="uni1E0B" unicode="&#x1e0b;" horiz-adv-x="593" 
d="M652 669l-142 -669h-66l11 52q-12 -12 -28.5 -23.5t-37 -21t-43.5 -15t-48 -5.5q-51 0 -89.5 17t-64.5 45t-39 65t-13 76q0 54 18.5 103.5t52.5 88t81.5 61t105.5 22.5q33 0 61 -8t49.5 -20.5t37.5 -29t25 -33.5l63 295h66zM158 194q0 -36 11 -63.5t30.5 -46t46 -28
t56.5 -9.5q40 0 75.5 17.5t61.5 46.5t41 67.5t15 79.5q0 36 -11.5 63.5t-31 46t-45.5 28t-56 9.5q-41 0 -76 -17.5t-61 -47t-41 -67.5t-15 -79zM428 838h75l-18 -81h-75z" />
    <glyph glyph-name="uni1E1E" unicode="&#x1e1e;" horiz-adv-x="578" 
d="M285 601l-50 -238h366l-14 -63h-365l-64 -300h-69l141 664h442l-14 -63h-373zM458 838h75l-18 -81h-75z" />
    <glyph glyph-name="uni1E1F" unicode="&#x1e1f;" horiz-adv-x="349" 
d="M109 0l83 392h-94l13 60h94l17 83q14 67 59.5 100.5t131.5 33.5h63l-13 -60h-62q-50 0 -77.5 -19.5t-38.5 -68.5l-14 -69h159l-13 -60h-159l-83 -392h-66zM336 838h75l-18 -81h-75z" />
    <glyph glyph-name="uni1E40" unicode="&#x1e40;" horiz-adv-x="968" 
d="M498 69l422 595h100l-141 -664h-69l120 565l-397 -565h-88l-167 565l-120 -565h-69l141 664h92zM607 838h75l-18 -81h-75z" />
    <glyph glyph-name="uni1E41" unicode="&#x1e41;" horiz-adv-x="924" 
d="M838 254q5 23 5 42q0 22 -6.5 41.5t-21 34.5t-36 24t-51.5 9q-33 0 -62 -12t-52 -33.5t-40 -51.5t-24 -67l-51 -241h-66l54 254q5 23 5 42q0 22 -6.5 42t-20 35t-35.5 23.5t-52 8.5q-27 0 -54.5 -9t-51 -26.5t-41.5 -44t-25 -61.5l-56 -264h-66l96 452h66l-10 -47
q23 24 59 42t83 18q69 0 108.5 -25t59.5 -67q27 38 76.5 65t108.5 27q45 0 78.5 -13t55.5 -35.5t33 -52t11 -63.5q0 -26 -6 -53l-53 -248h-66zM560 659h81l-19 -88h-81z" />
    <glyph glyph-name="uni1E56" unicode="&#x1e56;" horiz-adv-x="654" 
d="M720 493q0 -46 -17 -84.5t-47.5 -66.5t-73 -43.5t-92.5 -15.5h-272l-60 -283h-69l141 664h304q48 0 83 -15t58 -39.5t34 -55t11 -61.5zM231 346h263q33 0 62 9.5t50 27.5t33 44.5t12 60.5q0 49 -33.5 81t-93.5 32h-238zM470 838h75l-18 -81h-75z" />
    <glyph glyph-name="uni1E57" unicode="&#x1e57;" horiz-adv-x="593" 
d="M40 -204l140 656h66l-11 -51q23 24 64.5 44t91.5 20q51 0 89.5 -17t64.5 -45t39 -65t13 -76q0 -54 -18.5 -103.5t-52.5 -88t-81.5 -61t-105.5 -22.5q-33 0 -61 8t-49.5 20.5t-37.5 29t-25 33.5l-60 -282h-66zM531 258q0 36 -11.5 63.5t-31 46t-45.5 28t-56 9.5
q-41 0 -76 -17.5t-61 -47t-41 -67.5t-15 -79q0 -36 11 -63.5t30.5 -46t46 -28t56.5 -9.5q40 0 75.5 17.5t61.5 46.5t41 67.5t15 79.5zM403 659h81l-19 -88h-81z" />
    <glyph glyph-name="uni1E60" unicode="&#x1e60;" horiz-adv-x="605" 
d="M137 155q9 -21 26.5 -40.5t42.5 -33.5t56.5 -22.5t67.5 -8.5q45 0 82.5 11t65 30.5t43 45.5t15.5 57q0 80 -134 100l-111 17q-39 6 -67.5 20t-46.5 34t-27 44.5t-9 51.5q0 48 20 88t56 68.5t85.5 44t108.5 15.5t103.5 -16t76 -41t51 -54.5t27.5 -57.5h-75
q-17 45 -66.5 75.5t-123.5 30.5q-45 0 -81 -12t-60.5 -32.5t-38 -47t-13.5 -55.5q0 -41 30 -63t86 -31l123 -19q75 -12 115 -54t40 -99q0 -39 -17.5 -77.5t-53 -69t-87.5 -49t-121 -18.5q-61 0 -106.5 16t-77.5 41t-51.5 54.5t-27.5 56.5h74zM436 838h75l-18 -81h-75z" />
    <glyph glyph-name="uni1E61" unicode="&#x1e61;" horiz-adv-x="507" 
d="M136 126q14 -35 48 -57t103 -22q26 0 49.5 6t41.5 17t29 27.5t11 36.5q0 28 -25 39t-70 17l-90 11q-63 8 -91 37.5t-28 71.5q0 32 14.5 60t41 49t64.5 33.5t86 12.5q49 0 85 -12.5t61.5 -32t41 -44t21.5 -49.5h-73q-15 39 -48.5 58.5t-92.5 19.5q-27 0 -51.5 -6.5
t-43 -18t-29.5 -28t-11 -37.5q0 -28 25 -39.5t69 -16.5l88 -11q62 -8 92.5 -37t30.5 -72q0 -32 -14 -59.5t-41 -48t-66 -32.5t-90 -12q-50 0 -87 12.5t-62.5 32t-40 44.5t-20.5 50h72zM341 659h81l-19 -88h-81z" />
    <glyph glyph-name="uni1E6A" unicode="&#x1e6a;" horiz-adv-x="595" 
d="M710 664l-14 -63h-237l-127 -601h-69l127 601h-237l14 63h543zM437 838h75l-18 -81h-75z" />
    <glyph glyph-name="uni1E6B" unicode="&#x1e6b;" horiz-adv-x="397" 
d="M316 588l-29 -136h159l-13 -60h-159l-49 -233q-2 -9 -4.5 -23t-2.5 -21q0 -29 20 -42t62 -13h62l-12 -60h-63q-72 0 -104.5 27.5t-32.5 72.5q0 16 5 41l53 251h-94l13 60h94l29 136h66zM283 780h81l-19 -88h-81z" />
    <glyph glyph-name="Wgrave" unicode="&#x1e80;" horiz-adv-x="1061" 
d="M221 664l79 -582l322 582h88l80 -582l322 582h78l-369 -664h-88l-81 584l-321 -584h-88l-92 664h70zM611 869l99 -151h-73l-99 151h73z" />
    <glyph glyph-name="wgrave" unicode="&#x1e81;" horiz-adv-x="821" 
d="M543 452l62 -372l220 372h72l-267 -452h-76l-65 369l-221 -369h-76l-75 452h67l61 -372l222 372h76zM444 696l94 -171h-70l-94 171h70z" />
    <glyph glyph-name="Wacute" unicode="&#x1e82;" horiz-adv-x="1061" 
d="M221 664l79 -582l322 582h88l80 -582l322 582h78l-369 -664h-88l-81 584l-321 -584h-88l-92 664h70zM884 869l-163 -151h-82l163 151h82z" />
    <glyph glyph-name="wacute" unicode="&#x1e83;" horiz-adv-x="821" 
d="M543 452l62 -372l220 372h72l-267 -452h-76l-65 369l-221 -369h-76l-75 452h67l61 -372l222 372h76zM724 696l-167 -171h-82l167 171h82z" />
    <glyph glyph-name="Wdieresis" unicode="&#x1e84;" horiz-adv-x="1061" 
d="M221 664l79 -582l322 582h88l80 -582l322 582h78l-369 -664h-88l-81 584l-321 -584h-88l-92 664h70zM741 828h80l-18 -86h-80zM580 828h80l-18 -86h-80z" />
    <glyph glyph-name="wdieresis" unicode="&#x1e85;" horiz-adv-x="821" 
d="M543 452l62 -372l220 372h72l-267 -452h-76l-65 369l-221 -369h-76l-75 452h67l61 -372l222 372h76zM585 657h80l-18 -86h-80zM424 657h80l-18 -86h-80z" />
    <glyph glyph-name="uni1E9E" unicode="&#x1e9e;" horiz-adv-x="672" 
d="M637 601h-217q-28 0 -53.5 -7t-46.5 -21t-36 -35t-21 -48l-105 -490h-69l105 490q18 85 79.5 129.5t146.5 44.5h319l-13 -63l-251 -227h8q45 0 78.5 -15t55.5 -39t33 -54t11 -60q0 -45 -16.5 -83t-46.5 -65.5t-71.5 -42.5t-90.5 -15h-182l13 63h171q33 0 61 9t48.5 26.5
t32.5 43.5t12 59q0 48 -33 79t-92 31h-91l13 63z" />
    <glyph glyph-name="Ygrave" unicode="&#x1ef2;" horiz-adv-x="560" 
d="M624 664h78l-335 -412l-53 -252h-69l53 252l-158 412h69l132 -349zM373 869l99 -151h-73l-99 151h73z" />
    <glyph glyph-name="ygrave" unicode="&#x1ef3;" horiz-adv-x="501" 
d="M172 452l90 -374l250 374h75l-305 -455q-33 -49 -56 -86.5t-46 -63t-49 -38.5t-65 -13h-37l13 60h16q21 0 36.5 5t29.5 17t28.5 32t32.5 50l27 45l-107 447h67zM299 696l94 -171h-70l-94 171h70z" />
    <glyph glyph-name="uni2011" unicode="&#x2011;" horiz-adv-x="403" 
d="M392 287l-14 -63h-259l14 63h259z" />
    <glyph glyph-name="endash" unicode="&#x2013;" horiz-adv-x="586" 
d="M600 287l-14 -63h-492l14 63h492z" />
    <glyph glyph-name="emdash" unicode="&#x2014;" horiz-adv-x="902" 
d="M916 287l-14 -63h-808l14 63h808z" />
    <glyph glyph-name="quoteleft" unicode="&#x2018;" horiz-adv-x="217" 
d="M314.003 663.987l-86.9893 -106.987h44.9941l-18.998 -91.9883h-91.9883l20.9971 99.9873l80.9902 98.9883h50.9941z" />
    <glyph glyph-name="quoteright" unicode="&#x2019;" horiz-adv-x="217" 
d="M142 465l87 107h-45l19 92h92l-21 -100l-81 -99h-51z" />
    <glyph glyph-name="quotesinglbase" unicode="&#x201a;" horiz-adv-x="217" 
d="M21 -107l87 107h-45l19 92h92l-21 -100l-81 -99h-51z" />
    <glyph glyph-name="quotedblleft" unicode="&#x201c;" horiz-adv-x="400" 
d="M497.003 663.987l-86.9893 -106.987h44.9941l-18.998 -91.9883h-91.9883l20.9971 99.9873l80.9902 98.9883h50.9941zM314.003 663.987l-86.9893 -106.987h44.9941l-18.998 -91.9883h-91.9883l20.9971 99.9873l80.9902 98.9883h50.9941z" />
    <glyph glyph-name="quotedblright" unicode="&#x201d;" horiz-adv-x="400" 
d="M325 465l87 107h-45l19 92h92l-21 -100l-81 -99h-51zM142 465l87 107h-45l19 92h92l-21 -100l-81 -99h-51z" />
    <glyph glyph-name="quotedblbase" unicode="&#x201e;" horiz-adv-x="400" 
d="M204 -107l87 107h-45l19 92h92l-21 -100l-81 -99h-51zM21 -107l87 107h-45l19 92h92l-21 -100l-81 -99h-51z" />
    <glyph glyph-name="dagger" unicode="&#x2020;" horiz-adv-x="475" 
d="M300 452l45 212h66l-45 -212h152l-13 -60h-152l-116 -545h-66l116 545h-152l13 60h152z" />
    <glyph glyph-name="daggerdbl" unicode="&#x2021;" horiz-adv-x="475" 
d="M300 452l45 212h66l-45 -212h152l-13 -60h-152l-58 -274h152l-13 -60h-152l-45 -212h-66l45 212h-152l13 60h152l58 274h-152l13 60h152z" />
    <glyph glyph-name="bullet" unicode="&#x2022;" horiz-adv-x="553" 
d="M310 52q-35 0 -67.5 12.5t-57.5 35t-39.5 53.5t-14.5 69q0 47 17.5 86.5t47.5 68t69.5 44.5t83.5 16q36 0 68 -12.5t57 -35t39.5 -53.5t14.5 -69q0 -47 -18 -86.5t-48 -68t-69.5 -44.5t-82.5 -16z" />
    <glyph glyph-name="ellipsis" unicode="&#x2026;" horiz-adv-x="632" 
d="M496 92h92l-19 -92h-92zM82 92h92l-19 -92h-92zM289 92h92l-19 -92h-92z" />
    <glyph glyph-name="perthousand" unicode="&#x2030;" horiz-adv-x="1231" 
d="M201 0l531 664h76l-531 -664h-76zM346 671q34 0 62 -12t48 -32.5t30.5 -47.5t10.5 -56q0 -36 -15 -69t-40.5 -57.5t-59.5 -39t-73 -14.5q-35 0 -62.5 12t-47.5 32.5t-30.5 47.5t-10.5 56q0 36 14.5 69t40 57.5t60 39t73.5 14.5zM315 403q24 0 45 9.5t36.5 26t25 37
t9.5 43.5q0 36 -24 64t-67 28q-24 0 -45 -9.5t-36.5 -26t-25 -37.5t-9.5 -43q0 -36 24 -64t67 -28zM697 321q34 0 62 -12t48 -32.5t30.5 -47.5t10.5 -56q0 -36 -15 -69t-40.5 -57.5t-59.5 -39t-73 -14.5q-35 0 -62.5 12t-47.5 32.5t-30.5 47.5t-10.5 56q0 36 14.5 69
t40 57.5t60 39t73.5 14.5zM666 53q24 0 45 9.5t36.5 26t25 37t9.5 43.5q0 36 -24 64t-67 28q-24 0 -45 -9.5t-36.5 -26t-25 -37.5t-9.5 -43q0 -36 24 -64t67 -28zM1066 321q34 0 62 -12t48 -32.5t30.5 -47.5t10.5 -56q0 -36 -15 -69t-40.5 -57.5t-59.5 -39t-73 -14.5
q-35 0 -62.5 12t-47.5 32.5t-30.5 47.5t-10.5 56q0 36 14.5 69t40 57.5t60 39t73.5 14.5zM1035 53q24 0 45 9.5t36.5 26t25 37t9.5 43.5q0 36 -24 64t-67 28q-24 0 -45 -9.5t-36.5 -26t-25 -37.5t-9.5 -43q0 -36 24 -64t67 -28z" />
    <glyph glyph-name="guilsinglleft" unicode="&#x2039;" horiz-adv-x="305" 
d="M357 409l-195 -191l114 -173h-82l-99 147l15 70l154 147h93z" />
    <glyph glyph-name="guilsinglright" unicode="&#x203a;" horiz-adv-x="305" 
d="M43 45l195 191l-114 173h82l99 -147l-15 -70l-154 -147h-93z" />
    <glyph glyph-name="fraction" unicode="&#x2044;" horiz-adv-x="137" 
d="M366 664h70l-526 -664h-68z" />
    <glyph glyph-name="Euro" unicode="&#x20ac;" horiz-adv-x="654" 
d="M656 508q-22 51 -60.5 78t-98.5 27q-38 0 -73 -12t-66 -34.5t-56 -55t-42 -73.5h276l-36 -63h-262q-5 -20 -8 -40.5t-4 -41.5h238l-36 -63h-201q3 -40 17.5 -73t38.5 -57t57 -37t74 -13q110 0 180 106h74q-22 -39 -51 -70.5t-62.5 -53t-70.5 -33.5t-75 -12q-54 0 -98 18
t-76.5 50t-52 77t-24.5 98h-89l14 63h73q3 43 12 82h-68l14 63h73q20 55 53 99t75 75t91 48t101 17q44 0 79.5 -12.5t63 -35t47 -53.5t31.5 -68h-72z" />
    <glyph glyph-name="uni20B4" unicode="&#x20b4;" horiz-adv-x="666" 
d="M69 230l14 63h601l-14 -63h-454q-4 -8 -7 -18q-6 -21 -6 -42q0 -52 41.5 -86t112.5 -34q70 0 121 31.5t80 83.5h71q-15 -32 -38 -63.5t-56 -57t-76 -41.5t-96 -16q-59 0 -102.5 15t-71.5 39.5t-41.5 56.5t-13.5 66q0 20 4 45q2 11 6 21h-75zM715 438l-14 -63h-601l14 63
h471q9 11 14 23q9 21 9 44q0 46 -38.5 77.5t-110.5 31.5q-70 0 -117.5 -33.5t-72.5 -82.5h-75q11 29 33.5 60.5t55.5 58t76.5 43.5t97.5 17q51 0 91.5 -12.5t69 -35t44 -53t15.5 -66.5q0 -24 -9 -50q-4 -12 -9 -22h56z" />
    <glyph glyph-name="uni20B8" unicode="&#x20b8;" horiz-adv-x="535" 
d="M619 519l-14 -63h-207l-96 -456h-69l96 456h-207l14 63h483zM153 601l14 63h483l-14 -63h-483z" />
    <glyph glyph-name="uni20BD" unicode="&#x20bd;" horiz-adv-x="625" 
d="M694 493q0 -46 -17 -84.5t-47.5 -66.5t-73 -43.5t-92.5 -15.5h-212l-17 -82h282l-13 -63h-283l-29 -138h-69l29 138h-92l13 63h93l17 82h-92l13 63h93l67 318h244q48 0 83 -15t58 -39.5t34 -55t11 -61.5zM625 488q0 49 -33.5 81t-93.5 32h-178l-55 -255h203q33 0 62 9.5
t50 27.5t33 44.5t12 60.5z" />
    <glyph glyph-name="uni2113" unicode="&#x2113;" horiz-adv-x="400" 
d="M187 536q14 69 55.5 105t99.5 36q60 0 92 -32t32 -83q0 -42 -25 -91t-65.5 -97.5t-91 -92t-101.5 -74.5l-10 -48q-2 -9 -4.5 -23t-2.5 -21q0 -29 20 -42t62 -13h62l-12 -60h-63q-72 0 -104.5 27.5t-32.5 72.5q0 16 5 41l16 76zM202 287q43 33 79.5 68.5t62.5 70.5
t41 68.5t15 60.5q0 30 -16.5 46t-44.5 16q-32 0 -55 -23t-31 -63z" />
    <glyph glyph-name="uni2116" unicode="&#x2116;" horiz-adv-x="1146" 
d="M1149 283l-13 -60h-327l13 60h327zM822 664l-141 -664h-78l-324 574l-121 -574h-69l141 664h78l323 -574l122 574h69zM1055 671q34 0 62 -12t48 -32.5t30.5 -47.5t10.5 -56q0 -36 -15 -69t-40.5 -57.5t-59.5 -39t-73 -14.5q-35 0 -62.5 12t-47.5 32.5t-30.5 47.5
t-10.5 56q0 36 14.5 69t40 57.5t60 39t73.5 14.5zM1024 403q24 0 45 9.5t36.5 26t25 37t9.5 43.5q0 36 -24 64t-67 28q-24 0 -45 -9.5t-36.5 -26t-25 -37.5t-9.5 -43q0 -36 24 -64t67 -28z" />
    <glyph glyph-name="trademark" unicode="&#x2122;" horiz-adv-x="894" 
d="M474 664l-13 -59h-121l-64 -301h-62l64 301h-121l13 59h304zM715 302h-72l-65 256l-54 -256h-61l77 362h71l76 -305l206 305h78l-77 -362h-60l54 256z" />
    <glyph glyph-name="Omega" unicode="&#x2126;" horiz-adv-x="775" 
d="M796 388q0 -68 -21 -122.5t-48.5 -95.5t-55.5 -68t-42 -39h104l-13 -63h-231l10 48q43 21 84 56t73 79t51.5 95t19.5 103q0 48 -18 90.5t-49.5 74t-75 50t-94.5 18.5q-65 0 -120 -26.5t-96 -70.5t-64 -102t-23 -122q0 -50 12.5 -93t29 -75t31.5 -52t21 -25l-10 -48h-215
l13 63h121q-13 18 -26 43t-23 54.5t-16.5 64t-6.5 72.5q0 81 31 150.5t83 120.5t120 80t142 29q66 0 121.5 -22.5t95.5 -61.5t62.5 -91.5t22.5 -113.5z" />
    <glyph glyph-name="estimated" unicode="&#x212e;" horiz-adv-x="750" 
d="M429.059 -12.917q-71.9912 0 -129.484 22.9971t-97.9883 62.4922q-40.4941 39.4951 -61.9922 93.9883q-21.4971 54.4932 -21.4971 117.486q0 83.9893 31.9961 155.48t84.9893 124.484q52.9941 52.9941 121.985 82.9902t143.982 29.9961q68.9912 0 122.485 -20.4971
q53.4932 -20.4971 90.9883 -56.9932q37.4961 -36.4951 56.9932 -85.9893q19.498 -49.4941 19.498 -108.487q0 -19.9971 -1.5 -43.9941t-9.49902 -55.9932h-591.928q-1 -4.99902 -1.5 -9.99902q-0.5 -4.99902 -0.5 -14.998q0 -49.9941 18.498 -91.9883
q18.498 -41.9951 51.4941 -72.9912q32.9961 -30.9971 78.4902 -47.9941q45.4941 -16.998 99.4873 -16.998q29.9971 0 61.9932 7.49902t61.9922 20.9971q29.9961 13.499 56.4932 32.9961q26.4971 19.498 44.4941 44.4951h75.9912q-23.9971 -38.9961 -57.9932 -70.4922
t-73.9912 -53.4932t-84.4893 -33.4961q-44.4951 -11.498 -89.4893 -11.498zM499.05 614.006q-56.9932 0 -106.986 -19.4971q-49.9941 -19.498 -89.9893 -52.4941t-66.9922 -77.9902q-26.9961 -44.9941 -37.9951 -95.9883h522.937q1.99902 10.999 1.99902 17.998v17.9971
q0 50.9941 -16.498 90.4893q-16.4971 39.4951 -46.4941 65.9922q-29.9961 26.4971 -70.9912 39.9951t-88.9893 13.498z" />
    <glyph glyph-name="arrowleft" unicode="&#x2190;" horiz-adv-x="993" 
d="M215 328l188 -188h-89l-220 220l220 220h89l-188 -189h778v-63h-778z" />
    <glyph glyph-name="arrowup" unicode="&#x2191;" horiz-adv-x="535" 
d="M369 -118h-63v778l-189 -188v89l220 220l220 -220v-89l-188 188v-778z" />
    <glyph glyph-name="arrowright" unicode="&#x2192;" horiz-adv-x="993" 
d="M898.026 328l-187.978 -188h88.9893l219.974 220l-219.974 220h-88.9893l187.978 -189h-777.905v-63h777.905z" />
    <glyph glyph-name="arrowdown" unicode="&#x2193;" horiz-adv-x="535" 
d="M350 780.985h-63v-777.905l-189 187.978v-88.9893l220 -219.973l220 219.973v88.9893l-188 -187.978v777.905z" />
    <glyph glyph-name="uni2196" unicode="&#x2196;" horiz-adv-x="759" 
d="M190 554v-265l-63 64v311h311l62 -63h-265l555 -556l-45 -45z" />
    <glyph glyph-name="uni2197" unicode="&#x2197;" horiz-adv-x="759" 
d="M669.023 554v-265l62.9922 64v311h-310.962l-61.9932 -63h264.968l-554.932 -556l44.9941 -45z" />
    <glyph glyph-name="uni2198" unicode="&#x2198;" horiz-adv-x="759" 
d="M210 110.067v264.968l-63 -63.9922v-310.962h311l62 62.9922h-265l555 555.933l-45 44.9941z" />
    <glyph glyph-name="uni2199" unicode="&#x2199;" horiz-adv-x="759" 
d="M699.023 110.067v264.968l62.9922 -63.9922v-310.962h-310.962l-61.9932 62.9922h264.968l-554.932 555.933l44.9941 44.9941z" />
    <glyph glyph-name="partialdiff" unicode="&#x2202;" horiz-adv-x="562" 
d="M514 391q44 -80 44 -152q0 -54 -20.5 -100t-56 -79.5t-82.5 -53t-99 -19.5q-47 0 -85 16.5t-64.5 44.5t-41 64.5t-14.5 77.5q0 54 21 101t56.5 81.5t81 54t94.5 19.5q15 0 37 -2.5t37 -10.5l-131 231h70zM347 386q-38 0 -71.5 -15.5t-59 -41.5t-40.5 -61.5t-15 -74.5
q0 -30 9.5 -56.5t28.5 -46.5t45.5 -31.5t61.5 -11.5q38 0 71.5 15.5t59 41.5t40.5 61.5t15 74.5q0 30 -9.5 56.5t-28.5 46.5t-46 31.5t-61 11.5z" />
    <glyph glyph-name="Delta" unicode="&#x2206;" horiz-adv-x="594" 
d="M585 61l-12 -61h-552l12 61l365 603h80zM517 63l-93 524l-316 -524h409z" />
    <glyph glyph-name="product" unicode="&#x220f;" horiz-adv-x="597" 
d="M707 664l-14 -63h-107l-127 -601h-69l127 601h-183l-127 -601h-69l127 601h-107l14 63h535z" />
    <glyph glyph-name="summation" unicode="&#x2211;" horiz-adv-x="590" 
d="M474 298l-318 -235h407l-13 -63h-510l13 62l361 274l-246 267l13 61h510l-14 -63h-419l228 -246z" />
    <glyph glyph-name="minus" unicode="&#x2212;" horiz-adv-x="535" 
d="M536 276l-13 -63h-422l13 63h422z" />
    <glyph glyph-name="uni2215" unicode="&#x2215;" horiz-adv-x="451" 
d="M523 664h70l-526 -664h-68z" />
    <glyph glyph-name="radical" unicode="&#x221a;" horiz-adv-x="655" 
d="M777 664l-400 -664h-75l-82 389h-117l14 63h160l76 -369l349 581h75z" />
    <glyph glyph-name="infinity" unicode="&#x221e;" horiz-adv-x="784" 
d="M635 447q35 0 64.5 -11.5t51 -32t33.5 -48.5t12 -61q0 -45 -16.5 -81t-44 -61.5t-63 -39t-73.5 -13.5q-32 0 -57.5 10t-45 25t-32.5 33t-21 33q-9 -14 -26 -31.5t-40 -33t-51.5 -26t-61.5 -10.5q-35 0 -64.5 11.5t-51 32t-33.5 48.5t-12 61q0 45 16.5 81t44 61.5t63 39
t73.5 13.5q32 0 57.5 -10t45 -25t32.5 -32.5t21 -33.5q9 15 26 32.5t40 32.5t51.5 25.5t61.5 10.5zM272 162q24 0 45 9t39.5 24t33.5 35t27 42q-11 51 -41 81.5t-81 30.5q-27 0 -50 -10t-40 -27t-26.5 -40t-9.5 -49q0 -45 30.5 -70.5t72.5 -25.5zM604 162q27 0 50 10t40 27
t26.5 40t9.5 49q0 45 -30.5 70.5t-72.5 25.5q-24 0 -45 -9t-39.5 -24t-33.5 -35t-27 -42q11 -51 41 -81.5t81 -30.5z" />
    <glyph glyph-name="integral" unicode="&#x222b;" horiz-adv-x="396" 
d="M31 -144q49 0 81.5 24.5t40.5 63.5l124 586q14 62 63 100.5t134 38.5h48l-13 -60h-46q-49 0 -81.5 -24.5t-40.5 -63.5l-124 -586q-13 -62 -62.5 -100.5t-134.5 -38.5h-47l13 60h45z" />
    <glyph glyph-name="approxequal" unicode="&#x2248;" horiz-adv-x="535" 
d="M410 165q28 0 43 19.5t26 63.5h66q-17 -76 -53.5 -111t-87.5 -35q-30 0 -54 13t-44.5 28.5t-39 28.5t-39.5 13q-28 0 -43 -19.5t-26 -63.5h-66q17 76 53.5 111t87.5 35q30 0 54 -13t44.5 -28.5t39 -28.5t39.5 -13zM410 317q28 0 43 19.5t26 63.5h66q-17 -76 -53.5 -111
t-87.5 -35q-30 0 -54 13t-44.5 28.5t-39 28.5t-39.5 13q-28 0 -43 -19.5t-26 -63.5h-66q17 76 53.5 111t87.5 35q30 0 54 -13t44.5 -28.5t39 -28.5t39.5 -13z" />
    <glyph glyph-name="notequal" unicode="&#x2260;" horiz-adv-x="535" 
d="M368 353l87 110h75l-87 -110h110l-14 -63h-147l-72 -91h200l-14 -63h-237l-87 -110h-75l87 110h-110l14 63h147l72 91h-200l14 63h237z" />
    <glyph glyph-name="lessequal" unicode="&#x2264;" horiz-adv-x="535" 
d="M491 63l-13 -63h-422l13 63h422zM515 175l-14 -66l-391 147l15 71l453 147l-14 -72l-347 -114z" />
    <glyph glyph-name="greaterequal" unicode="&#x2265;" horiz-adv-x="535" 
d="M491 63l-13 -63h-422l13 63h422zM439 294l-297 114l14 66l391 -147l-15 -71l-453 -147l14 72z" />
    <glyph glyph-name="uni2460" unicode="&#x2460;" horiz-adv-x="837" 
d="M462 -13q-62 0 -119 22t-100.5 62.5t-69.5 96.5t-26 124q0 84 31.5 154.5t84.5 121.5t123.5 80t148.5 29q62 0 119 -22t100.5 -62.5t69.5 -96.5t26 -124q0 -84 -31.5 -154.5t-84.5 -121.5t-123.5 -80t-148.5 -29zM790 364q0 52 -19.5 98.5t-54.5 80.5t-83 54t-105 20
q-66 0 -124 -24t-102 -66.5t-69.5 -101t-25.5 -127.5q0 -53 19 -98.5t53.5 -79.5t82 -53.5t104.5 -19.5q65 0 123.5 23.5t103 65.5t71 100.5t26.5 127.5zM512 449l-90 -65l14 65l83 61h61l-72 -337h-55z" />
    <glyph glyph-name="uni2461" unicode="&#x2461;" horiz-adv-x="837" 
d="M462 -13q-62 0 -119 22t-100.5 62.5t-69.5 96.5t-26 124q0 84 31.5 154.5t84.5 121.5t123.5 80t148.5 29q62 0 119 -22t100.5 -62.5t69.5 -96.5t26 -124q0 -84 -31.5 -154.5t-84.5 -121.5t-123.5 -80t-148.5 -29zM790 364q0 52 -19.5 98.5t-54.5 80.5t-83 54t-105 20
q-66 0 -124 -24t-102 -66.5t-69.5 -101t-25.5 -127.5q0 -53 19 -98.5t53.5 -79.5t82 -53.5t104.5 -19.5q65 0 123.5 23.5t103 65.5t71 100.5t26.5 127.5zM535 346q23 16 38 32.5t15 38.5q0 23 -18 36t-44 13q-22 0 -44.5 -13t-31.5 -39h-58q7 22 21 41t32.5 33t40.5 21.5
t45 7.5q54 0 83 -26t29 -65q0 -64 -69 -113l-122 -88h159l-11 -52h-244l11 52z" />
    <glyph glyph-name="uni2462" unicode="&#x2462;" horiz-adv-x="837" 
d="M462 -13q-62 0 -119 22t-100.5 62.5t-69.5 96.5t-26 124q0 84 31.5 154.5t84.5 121.5t123.5 80t148.5 29q62 0 119 -22t100.5 -62.5t69.5 -96.5t26 -124q0 -84 -31.5 -154.5t-84.5 -121.5t-123.5 -80t-148.5 -29zM790 364q0 52 -19.5 98.5t-54.5 80.5t-83 54t-105 20
q-66 0 -124 -24t-102 -66.5t-69.5 -101t-25.5 -127.5q0 -53 19 -98.5t53.5 -79.5t82 -53.5t104.5 -19.5q65 0 123.5 23.5t103 65.5t71 100.5t26.5 127.5zM417 267q5 -25 24.5 -37.5t48.5 -12.5q34 0 53 17t19 40q0 19 -13.5 31.5t-40.5 12.5h-46l11 51h54q29 0 47.5 12.5
t18.5 38.5q0 19 -16 32.5t-50 13.5q-29 0 -51 -13t-31 -35h-56q17 47 56.5 73t85.5 26q58 0 87.5 -29t29.5 -65q0 -23 -14 -48t-44 -38q27 -24 27 -59q0 -22 -9 -42t-26.5 -35.5t-42 -25t-54.5 -9.5q-51 0 -84.5 25.5t-38.5 75.5h55z" />
    <glyph glyph-name="uni2463" unicode="&#x2463;" horiz-adv-x="837" 
d="M462 -13q-62 0 -119 22t-100.5 62.5t-69.5 96.5t-26 124q0 84 31.5 154.5t84.5 121.5t123.5 80t148.5 29q62 0 119 -22t100.5 -62.5t69.5 -96.5t26 -124q0 -84 -31.5 -154.5t-84.5 -121.5t-123.5 -80t-148.5 -29zM790 364q0 52 -19.5 98.5t-54.5 80.5t-83 54t-105 20
q-66 0 -124 -24t-102 -66.5t-69.5 -101t-25.5 -127.5q0 -53 19 -98.5t53.5 -79.5t82 -53.5t104.5 -19.5q65 0 123.5 23.5t103 65.5t71 100.5t26.5 127.5zM606 390l-19 -92h59l-11 -51h-59l-16 -74h-55l16 74h-185l11 51l215 212h69l-215 -212h116l19 92h55z" />
    <glyph glyph-name="uni2464" unicode="&#x2464;" horiz-adv-x="837" 
d="M462 -13q-62 0 -119 22t-100.5 62.5t-69.5 96.5t-26 124q0 84 31.5 154.5t84.5 121.5t123.5 80t148.5 29q62 0 119 -22t100.5 -62.5t69.5 -96.5t26 -124q0 -84 -31.5 -154.5t-84.5 -121.5t-123.5 -80t-148.5 -29zM790 364q0 52 -19.5 98.5t-54.5 80.5t-83 54t-105 20
q-66 0 -124 -24t-102 -66.5t-69.5 -101t-25.5 -127.5q0 -53 19 -98.5t53.5 -79.5t82 -53.5t104.5 -19.5q65 0 123.5 23.5t103 65.5t71 100.5t26.5 127.5zM409 267q4 -25 23 -37.5t47 -12.5q33 0 58 19.5t25 50.5q0 24 -18.5 41t-51.5 17q-19 0 -36 -6.5t-28 -16.5h-51
l59 188h209l-11 -51h-165l-24 -77q11 6 28.5 9.5t32.5 3.5q22 0 42 -7t35.5 -20t24.5 -31.5t9 -41.5q0 -26 -10 -49t-28.5 -41t-44.5 -28.5t-57 -10.5q-59 0 -89 29t-35 72h56z" />
    <glyph glyph-name="uni2465" unicode="&#x2465;" horiz-adv-x="837" 
d="M462 -13q-62 0 -119 22t-100.5 62.5t-69.5 96.5t-26 124q0 84 31.5 154.5t84.5 121.5t123.5 80t148.5 29q62 0 119 -22t100.5 -62.5t69.5 -96.5t26 -124q0 -84 -31.5 -154.5t-84.5 -121.5t-123.5 -80t-148.5 -29zM790 364q0 52 -19.5 98.5t-54.5 80.5t-83 54t-105 20
q-66 0 -124 -24t-102 -66.5t-69.5 -101t-25.5 -127.5q0 -53 19 -98.5t53.5 -79.5t82 -53.5t104.5 -19.5q65 0 123.5 23.5t103 65.5t71 100.5t26.5 127.5zM596 426q-5 18 -22 29t-41 11q-36 0 -62 -27.5t-40 -65.5q16 11 36 17t41 6q50 0 80 -26.5t30 -68.5
q0 -26 -10.5 -50.5t-29.5 -43.5t-45 -30t-57 -11q-49 0 -83 29t-34 88q0 39 11 80t33 75.5t55 56.5t77 22q48 0 79.5 -24.5t37.5 -66.5h-56zM498 345q-33 -1 -57.5 -20t-24.5 -52q0 -26 17.5 -41t44.5 -15q16 0 31.5 5t27.5 15t19 23t7 30q0 25 -18 40.5t-47 14.5z" />
    <glyph glyph-name="uni2466" unicode="&#x2466;" horiz-adv-x="837" 
d="M462 -13q-62 0 -119 22t-100.5 62.5t-69.5 96.5t-26 124q0 84 31.5 154.5t84.5 121.5t123.5 80t148.5 29q62 0 119 -22t100.5 -62.5t69.5 -96.5t26 -124q0 -84 -31.5 -154.5t-84.5 -121.5t-123.5 -80t-148.5 -29zM790 364q0 52 -19.5 98.5t-54.5 80.5t-83 54t-105 20
q-66 0 -124 -24t-102 -66.5t-69.5 -101t-25.5 -127.5q0 -53 19 -98.5t53.5 -79.5t82 -53.5t104.5 -19.5q65 0 123.5 23.5t103 65.5t71 100.5t26.5 127.5zM407 459l11 51h248l-11 -50l-224 -287h-63l224 286h-185z" />
    <glyph glyph-name="uni2467" unicode="&#x2467;" horiz-adv-x="837" 
d="M462 -13q-62 0 -119 22t-100.5 62.5t-69.5 96.5t-26 124q0 84 31.5 154.5t84.5 121.5t123.5 80t148.5 29q62 0 119 -22t100.5 -62.5t69.5 -96.5t26 -124q0 -84 -31.5 -154.5t-84.5 -121.5t-123.5 -80t-148.5 -29zM790 364q0 52 -19.5 98.5t-54.5 80.5t-83 54t-105 20
q-66 0 -124 -24t-102 -66.5t-69.5 -101t-25.5 -127.5q0 -53 19 -98.5t53.5 -79.5t82 -53.5t104.5 -19.5q65 0 123.5 23.5t103 65.5t71 100.5t26.5 127.5zM590 340q16 -13 23 -29t7 -33q0 -24 -11 -44.5t-30 -35.5t-45 -23.5t-56 -8.5q-23 0 -45 6t-39 17.5t-27 28t-10 38.5
q0 26 15 52t49 41q-15 11 -21.5 26.5t-6.5 31.5q0 23 10.5 43t29 35t43.5 23.5t55 8.5q56 0 86.5 -27t30.5 -63q0 -25 -14.5 -48.5t-43.5 -38.5zM525 466q-30 0 -53 -14t-23 -39q0 -17 18 -30t49 -13q30 0 53 14t23 39q0 17 -18 30t-49 13zM494 319q-14 0 -28.5 -3.5
t-26.5 -10.5t-19.5 -17.5t-7.5 -24.5q0 -20 19.5 -33t51.5 -13q14 0 28.5 3.5t26.5 10.5t19.5 18t7.5 25q0 20 -19.5 32.5t-51.5 12.5z" />
    <glyph glyph-name="uni2468" unicode="&#x2468;" horiz-adv-x="837" 
d="M462 -13q-62 0 -119 22t-100.5 62.5t-69.5 96.5t-26 124q0 84 31.5 154.5t84.5 121.5t123.5 80t148.5 29q62 0 119 -22t100.5 -62.5t69.5 -96.5t26 -124q0 -84 -31.5 -154.5t-84.5 -121.5t-123.5 -80t-148.5 -29zM790 364q0 52 -19.5 98.5t-54.5 80.5t-83 54t-105 20
q-66 0 -124 -24t-102 -66.5t-69.5 -101t-25.5 -127.5q0 -53 19 -98.5t53.5 -79.5t82 -53.5t104.5 -19.5q65 0 123.5 23.5t103 65.5t71 100.5t26.5 127.5zM414 257q5 -18 21 -29t40 -11q36 0 60.5 27.5t36.5 65.5q-16 -11 -36 -17t-41 -6q-50 0 -80 28t-30 70q0 26 10.5 50
t29.5 42t45 29t57 11q49 0 83 -29t34 -88q0 -39 -10.5 -80t-31.5 -75.5t-53 -56.5t-76 -22q-48 0 -78.5 24.5t-36.5 66.5h56zM505 338q33 1 57.5 20t24.5 52q0 26 -17.5 41t-44.5 15q-16 0 -31.5 -5t-27.5 -15t-19 -23.5t-7 -29.5q0 -25 18 -40.5t47 -14.5z" />
    <glyph glyph-name="lozenge" unicode="&#x25ca;" horiz-adv-x="551" 
d="M121 305l13 61l249 298h66l121 -304l-13 -61l-249 -299h-66zM505 338l-100 256l-220 -266l101 -257z" />
    <glyph glyph-name="circle" unicode="&#x25cb;" horiz-adv-x="837" 
d="M462 -13q-62 0 -119 22t-100.5 62.5t-69.5 96.5t-26 124q0 84 31.5 154.5t84.5 121.5t123.5 80t148.5 29q62 0 119 -22t100.5 -62.5t69.5 -96.5t26 -124q0 -84 -31.5 -154.5t-84.5 -121.5t-123.5 -80t-148.5 -29zM790 364q0 52 -19.5 98.5t-54.5 80.5t-83 54t-105 20
q-66 0 -124 -24t-102 -66.5t-69.5 -101t-25.5 -127.5q0 -53 19 -98.5t53.5 -79.5t82 -53.5t104.5 -19.5q65 0 123.5 23.5t103 65.5t71 100.5t26.5 127.5z" />
    <glyph glyph-name="H18533" unicode="&#x25cf;" horiz-adv-x="837" 
d="M462 -13q-62 0 -119 22t-100.5 62.5t-69.5 96.5t-26 124q0 84 31.5 154.5t84.5 121.5t123.5 80t148.5 29q62 0 119 -22t100.5 -62.5t69.5 -96.5t26 -124q0 -84 -31.5 -154.5t-84.5 -121.5t-123.5 -80t-148.5 -29z" />
    <glyph glyph-name="uni2776" unicode="&#x2776;" horiz-adv-x="837" 
d="M453 172h55l72 337h-61l-83 -61l-14 -65l90 65zM462 -13q-62 0 -119 22t-100.5 62.5t-69.5 96.5t-26 124q0 84 31.5 154.5t84.5 121.5t123.5 80t148.5 29q62 0 119 -22t100.5 -62.5t69.5 -96.5t26 -124q0 -84 -31.5 -154.5t-84.5 -121.5t-123.5 -80t-148.5 -29z" />
    <glyph glyph-name="uni2777" unicode="&#x2777;" horiz-adv-x="837" 
d="M367 224l-11 -52h244l11 52h-159l122 88q69 49 69 113q0 39 -29 65t-83 26q-23 0 -45 -7.5t-40.5 -21.5t-32.5 -33t-21 -41h58q9 26 31.5 39t44.5 13q26 0 44 -13t18 -36q0 -22 -15 -38.5t-38 -32.5zM462 -13q-62 0 -119 22t-100.5 62.5t-69.5 96.5t-26 124
q0 84 31.5 154.5t84.5 121.5t123.5 80t148.5 29q62 0 119 -22t100.5 -62.5t69.5 -96.5t26 -124q0 -84 -31.5 -154.5t-84.5 -121.5t-123.5 -80t-148.5 -29z" />
    <glyph glyph-name="uni2778" unicode="&#x2778;" horiz-adv-x="837" 
d="M362 266q5 -50 38.5 -75.5t84.5 -25.5q30 0 54.5 9.5t42 25t26.5 35.5t9 42q0 35 -27 59q30 13 44 38t14 48q0 36 -29.5 65t-87.5 29q-46 0 -85.5 -26t-56.5 -73h56q9 22 31 35t51 13q34 0 50 -13.5t16 -32.5q0 -26 -18.5 -38.5t-47.5 -12.5h-54l-11 -51h46
q27 0 40.5 -12.5t13.5 -31.5q0 -23 -19 -40t-53 -17q-29 0 -48.5 12.5t-24.5 37.5h-55zM462 -13q-62 0 -119 22t-100.5 62.5t-69.5 96.5t-26 124q0 84 31.5 154.5t84.5 121.5t123.5 80t148.5 29q62 0 119 -22t100.5 -62.5t69.5 -96.5t26 -124q0 -84 -31.5 -154.5
t-84.5 -121.5t-123.5 -80t-148.5 -29z" />
    <glyph glyph-name="uni2779" unicode="&#x2779;" horiz-adv-x="837" 
d="M551 389l-19 -92h-116l215 212h-69l-215 -212l-11 -51h185l-16 -74h55l16 74h59l11 51h-59l19 92h-55zM462 -13q-62 0 -119 22t-100.5 62.5t-69.5 96.5t-26 124q0 84 31.5 154.5t84.5 121.5t123.5 80t148.5 29q62 0 119 -22t100.5 -62.5t69.5 -96.5t26 -124
q0 -84 -31.5 -154.5t-84.5 -121.5t-123.5 -80t-148.5 -29z" />
    <glyph glyph-name="uni277A" unicode="&#x277a;" horiz-adv-x="837" 
d="M353 266q5 -43 35 -72t89 -29q31 0 56.5 10.5t44 28.5t29 41.5t10.5 48.5q0 23 -9 41.5t-24.5 31.5t-35.5 20t-42 7q-15 0 -32.5 -3.5t-28.5 -9.5l24 77h165l11 51h-209l-59 -188h51q11 10 28 16.5t34 6.5q33 0 52.5 -17t19.5 -41q0 -31 -25 -50.5t-58 -19.5
q-28 0 -47 12.5t-23 37.5h-56zM462 -13q-62 0 -119 22t-100.5 62.5t-69.5 96.5t-26 124q0 84 31.5 154.5t84.5 121.5t123.5 80t148.5 29q62 0 119 -22t100.5 -62.5t69.5 -96.5t26 -124q0 -84 -31.5 -154.5t-84.5 -121.5t-123.5 -80t-148.5 -29z" />
    <glyph glyph-name="uni277B" unicode="&#x277b;" horiz-adv-x="837" 
d="M652 425q-6 42 -37.5 66.5t-79.5 24.5q-44 0 -77 -22t-55 -56.5t-33 -75.5t-11 -80q0 -59 34 -88t83 -29q31 0 57 11t45 30t29.5 43.5t10.5 50.5q0 42 -30 68.5t-80 26.5q-21 0 -41 -6t-36 -17q14 38 40 65.5t62 27.5q24 0 41 -11t22 -29h56zM498 344q29 1 47 -14.5
t18 -40.5q0 -17 -7 -30t-19 -23t-27.5 -15t-31.5 -5q-27 0 -44.5 15t-17.5 41q0 33 24.5 52t57.5 20zM462 -13q-62 0 -119 22t-100.5 62.5t-69.5 96.5t-26 124q0 84 31.5 154.5t84.5 121.5t123.5 80t148.5 29q62 0 119 -22t100.5 -62.5t69.5 -96.5t26 -124
q0 -84 -31.5 -154.5t-84.5 -121.5t-123.5 -80t-148.5 -29z" />
    <glyph glyph-name="uni277C" unicode="&#x277c;" horiz-adv-x="837" 
d="M592 458l-224 -286h63l224 287l11 50h-248l-11 -51h185zM462 -13q-62 0 -119 22t-100.5 62.5t-69.5 96.5t-26 124q0 84 31.5 154.5t84.5 121.5t123.5 80t148.5 29q62 0 119 -22t100.5 -62.5t69.5 -96.5t26 -124q0 -84 -31.5 -154.5t-84.5 -121.5t-123.5 -80t-148.5 -29z
" />
    <glyph glyph-name="uni277D" unicode="&#x277d;" horiz-adv-x="837" 
d="M590 339q29 15 43.5 38.5t14.5 48.5q0 36 -30.5 63t-86.5 27q-30 0 -55 -8.5t-43.5 -23.5t-29 -35t-10.5 -43q0 -16 6.5 -31.5t21.5 -26.5q-34 -15 -49 -41t-15 -52q0 -22 10 -38.5t27 -28t39 -17.5t45 -6q30 0 56 8.5t45 23.5t30 35.5t11 44.5q0 17 -7 33t-23 29z
M525 465q31 0 49 -13t18 -30q0 -25 -23 -39t-53 -14q-31 0 -49 13t-18 30q0 25 23 39t53 14zM494 318q32 0 51.5 -12.5t19.5 -32.5q0 -14 -7.5 -25t-19.5 -18t-26.5 -10.5t-28.5 -3.5q-32 0 -51.5 13t-19.5 33q0 14 7.5 24.5t19.5 17.5t26.5 10.5t28.5 3.5zM462 -13
q-62 0 -119 22t-100.5 62.5t-69.5 96.5t-26 124q0 84 31.5 154.5t84.5 121.5t123.5 80t148.5 29q62 0 119 -22t100.5 -62.5t69.5 -96.5t26 -124q0 -84 -31.5 -154.5t-84.5 -121.5t-123.5 -80t-148.5 -29z" />
    <glyph glyph-name="uni277E" unicode="&#x277e;" horiz-adv-x="837" 
d="M358 256q6 -42 36.5 -66.5t78.5 -24.5q44 0 76 22t53 56.5t31.5 75.5t10.5 80q0 59 -34 88t-83 29q-31 0 -57 -11t-45 -29t-29.5 -42t-10.5 -50q0 -42 30 -70t80 -28q21 0 41 6t36 17q-12 -38 -36.5 -65.5t-60.5 -27.5q-24 0 -40 11t-21 29h-56zM505 337q-29 -1 -47 14.5
t-18 40.5q0 16 7 29.5t19 23.5t27.5 15t31.5 5q27 0 44.5 -15t17.5 -41q0 -33 -24.5 -52t-57.5 -20zM462 -13q-62 0 -119 22t-100.5 62.5t-69.5 96.5t-26 124q0 84 31.5 154.5t84.5 121.5t123.5 80t148.5 29q62 0 119 -22t100.5 -62.5t69.5 -96.5t26 -124
q0 -84 -31.5 -154.5t-84.5 -121.5t-123.5 -80t-148.5 -29z" />
    <glyph glyph-name="Udotaccent" unicode="&#xf47e;" horiz-adv-x="740" 
d="M225 664h69l-79 -373q-8 -38 -8 -66q0 -85 53 -130t150 -45q90 0 149.5 50t81.5 153l87 411h69l-88 -418q-27 -127 -107 -193t-196 -66q-127 0 -197.5 61t-70.5 169q0 37 9 79zM500 838h75l-18 -81h-75z" />
    <glyph glyph-name="udotaccent" unicode="&#xf47f;" horiz-adv-x="572" 
d="M281 -13q-36 0 -67 10.5t-54.5 30.5t-36.5 50.5t-13 71.5q0 27 6 54l53 248h66l-54 -254q-5 -23 -5 -43q0 -46 25.5 -77t85.5 -31q28 0 56.5 10t53 29t42 47t25.5 64l54 255h66l-96 -452h-66l11 51q-27 -26 -66 -45t-86 -19zM363 659h81l-19 -88h-81z" />
    <glyph glyph-name="Germandbls" unicode="&#xf485;" horiz-adv-x="1205" 
d="M137 155q9 -21 26.5 -40.5t42.5 -33.5t56.5 -22.5t67.5 -8.5q45 0 82.5 11t65 30.5t43 45.5t15.5 57q0 80 -134 100l-111 17q-39 6 -67.5 20t-46.5 34t-27 44.5t-9 51.5q0 48 20 88t56 68.5t85.5 44t108.5 15.5t103.5 -16t76 -41t51 -54.5t27.5 -57.5h-75
q-17 45 -66.5 75.5t-123.5 30.5q-45 0 -81 -12t-60.5 -32.5t-38 -47t-13.5 -55.5q0 -41 30 -63t86 -31l123 -19q75 -12 115 -54t40 -99q0 -39 -17.5 -77.5t-53 -69t-87.5 -49t-121 -18.5q-61 0 -106.5 16t-77.5 41t-51.5 54.5t-27.5 56.5h74zM736 155q9 -21 26.5 -40.5
t42.5 -33.5t56.5 -22.5t67.5 -8.5q45 0 82.5 11t65 30.5t43 45.5t15.5 57q0 80 -134 100l-111 17q-39 6 -67.5 20t-46.5 34t-27 44.5t-9 51.5q0 48 20 88t56 68.5t85.5 44t108.5 15.5t103.5 -16t76 -41t51 -54.5t27.5 -57.5h-75q-17 45 -66.5 75.5t-123.5 30.5
q-45 0 -81 -12t-60.5 -32.5t-38 -47t-13.5 -55.5q0 -41 30 -63t86 -31l123 -19q75 -12 115 -54t40 -99q0 -39 -17.5 -77.5t-53 -69t-87.5 -49t-121 -18.5q-61 0 -106.5 16t-77.5 41t-51.5 54.5t-27.5 56.5h74z" />
    <glyph glyph-name="commaaccent" unicode="&#xf6c3;" horiz-adv-x="243" 
d="M40 -204l69 86h-47l18 82h92l-19 -90l-64 -78h-49z" />
    <glyph glyph-name="cyrbreve" unicode="&#xf6d4;" horiz-adv-x="472" 
d="M553 674q-10 -34 -28.5 -61.5t-44 -47.5t-56 -31t-64.5 -11q-39 0 -69.5 13t-51.5 34.5t-31.5 48.5t-8.5 55h61q-2 -16 4.5 -32t19.5 -29t32.5 -21t44.5 -8q46 0 80.5 26t49.5 64h62z" />
    <glyph glyph-name="fi" unicode="&#xfb01;" horiz-adv-x="576" 
d="M109 0l83 392h-94l13 60h94l17 83q14 67 59.5 100.5t131.5 33.5h63l-13 -60h-62q-50 0 -77.5 -19.5t-38.5 -68.5l-14 -69h315l-96 -452h-66l83 392h-249l-83 -392h-66zM556 659h81l-19 -88h-81z" />
    <glyph glyph-name="fl" unicode="&#xfb02;" horiz-adv-x="571" 
d="M109 0l83 392h-94l13 60h94l17 83q14 67 59.5 100.5t131.5 33.5h63l-13 -60h-62q-50 0 -77.5 -19.5t-38.5 -68.5l-14 -69h249l46 217h66l-142 -669h-66l83 392h-249l-83 -392h-66z" />
    <glyph glyph-name="one.sup" horiz-adv-x="257" 
d="M256 651l-90 -65l14 65l83 61h61l-72 -337h-55z" />
    <glyph glyph-name="two.sup" horiz-adv-x="358" 
d="M320 548q23 16 38 32.5t15 38.5q0 23 -18 36t-44 13q-22 0 -44.5 -13t-31.5 -39h-58q7 22 21 41t32.5 33t40.5 21.5t45 7.5q54 0 83 -26t29 -65q0 -64 -69 -113l-122 -88h159l-11 -52h-244l11 52z" />
    <glyph glyph-name="three.sup" horiz-adv-x="358" 
d="M206 469q5 -25 24.5 -37.5t48.5 -12.5q34 0 53 17t19 40q0 19 -13.5 31.5t-40.5 12.5h-46l11 51h54q29 0 47.5 12.5t18.5 38.5q0 19 -16 32.5t-50 13.5q-29 0 -51 -13t-31 -35h-56q17 47 56.5 73t85.5 26q58 0 87.5 -29t29.5 -65q0 -23 -14 -48t-44 -38q27 -24 27 -59
q0 -22 -9 -42t-26.5 -35.5t-42 -25t-54.5 -9.5q-51 0 -84.5 25.5t-38.5 75.5h55z" />
    <glyph glyph-name="zero.sup" horiz-adv-x="383" 
d="M327 719q27 0 49 -10.5t37.5 -29t24 -43.5t8.5 -54q0 -21 -7 -57.5t-25.5 -71t-50.5 -60t-81 -25.5q-27 0 -49 10.5t-37.5 29t-24 43.5t-8.5 54q0 21 7 57.5t25.5 71t50.5 60t81 25.5zM284 419q27 0 47.5 16t33.5 40t19.5 51.5t6.5 49.5q0 16 -3.5 32.5t-11 30t-20 21.5
t-31.5 8q-27 0 -47.5 -16t-33.5 -40t-19.5 -51.5t-6.5 -49.5q0 -17 3.5 -33t11 -29.5t20 -21.5t31.5 -8z" />
    <glyph glyph-name="four.sup" horiz-adv-x="403" 
d="M417 592l-19 -92h59l-11 -51h-59l-16 -74h-55l16 74h-185l11 51l215 212h69l-215 -212h116l19 92h55z" />
    <glyph glyph-name="five.sup" horiz-adv-x="367" 
d="M211 469q4 -25 23 -37.5t47 -12.5q33 0 58 19.5t25 50.5q0 24 -18.5 41t-51.5 17q-19 0 -36 -6.5t-28 -16.5h-51l59 188h209l-11 -51h-165l-24 -77q11 6 28.5 9.5t32.5 3.5q22 0 42 -7t35.5 -20t24.5 -31.5t9 -41.5q0 -26 -10 -49t-28.5 -41t-44.5 -28.5t-57 -10.5
q-59 0 -89 29t-35 72h56z" />
    <glyph glyph-name="six.sup" horiz-adv-x="368" 
d="M393 628q-5 18 -22 29t-41 11q-36 0 -62 -27.5t-40 -65.5q16 11 36 17t41 6q50 0 80 -26.5t30 -68.5q0 -26 -10.5 -50.5t-29.5 -43.5t-45 -30t-57 -11q-49 0 -83 29t-34 88q0 39 11 80t33 75.5t55 56.5t77 22q48 0 79.5 -24.5t37.5 -66.5h-56zM295 547q-33 -1 -57.5 -20
t-24.5 -52q0 -26 17.5 -41t44.5 -15q16 0 31.5 5t27.5 15t19 23t7 30q0 25 -18 40.5t-47 14.5z" />
    <glyph glyph-name="seven.sup" horiz-adv-x="349" 
d="M188 661l11 51h248l-11 -50l-224 -287h-63l224 286h-185z" />
    <glyph glyph-name="eight.sup" horiz-adv-x="368" 
d="M385 542q16 -13 23 -29t7 -33q0 -24 -11 -44.5t-30 -35.5t-45 -23.5t-56 -8.5q-23 0 -45 6t-39 17.5t-27 28t-10 38.5q0 26 15 52t49 41q-15 11 -21.5 26.5t-6.5 31.5q0 23 10.5 43t29 35t43.5 23.5t55 8.5q56 0 86.5 -27t30.5 -63q0 -25 -14.5 -48.5t-43.5 -38.5z
M320 668q-30 0 -53 -14t-23 -39q0 -17 18 -30t49 -13q30 0 53 14t23 39q0 17 -18 30t-49 13zM289 521q-14 0 -28.5 -3.5t-26.5 -10.5t-19.5 -17.5t-7.5 -24.5q0 -20 19.5 -33t51.5 -13q14 0 28.5 3.5t26.5 10.5t19.5 18t7.5 25q0 20 -19.5 32.5t-51.5 12.5z" />
    <glyph glyph-name="nine.sup" horiz-adv-x="368" 
d="M209 459q5 -18 21 -29t40 -11q36 0 60.5 27.5t36.5 65.5q-16 -11 -36 -17t-41 -6q-50 0 -80 28t-30 70q0 26 10.5 50t29.5 42t45 29t57 11q49 0 83 -29t34 -88q0 -39 -10.5 -80t-31.5 -75.5t-53 -56.5t-76 -22q-48 0 -78.5 24.5t-36.5 66.5h56zM300 540q33 1 57.5 20
t24.5 52q0 26 -17.5 41t-44.5 15q-16 0 -31.5 -5t-27.5 -15t-19 -23.5t-7 -29.5q0 -25 18 -40.5t47 -14.5z" />
    <glyph glyph-name="zero.sub" horiz-adv-x="383" 
d="M242 310q27 0 49 -10.5t37.5 -29t24 -43.5t8.5 -54q0 -21 -7 -57.5t-25.5 -71t-50.5 -60t-81 -25.5q-27 0 -49 10.5t-37.5 29t-24 43.5t-8.5 54q0 21 7 57.5t25.5 71t50.5 60t81 25.5zM199 10q27 0 47.5 16t33.5 40t19.5 51.5t6.5 49.5q0 16 -3.5 32.5t-11 30t-20 21.5
t-31.5 8q-27 0 -47.5 -16t-33.5 -40t-19.5 -51.5t-6.5 -49.5q0 -17 3.5 -33t11 -29.5t20 -21.5t31.5 -8z" />
    <glyph glyph-name="one.sub" horiz-adv-x="257" 
d="M171 242l-90 -65l14 65l83 61h61l-72 -337h-55z" />
    <glyph glyph-name="two.sub" horiz-adv-x="358" 
d="M235 139q23 16 38 32.5t15 38.5q0 23 -18 36t-44 13q-22 0 -44.5 -13t-31.5 -39h-58q7 22 21 41t32.5 33t40.5 21.5t45 7.5q54 0 83 -26t29 -65q0 -64 -69 -113l-122 -88h159l-11 -52h-244l11 52z" />
    <glyph glyph-name="three.sub" horiz-adv-x="358" 
d="M121 60q5 -25 24.5 -37.5t48.5 -12.5q34 0 53 17t19 40q0 19 -13.5 31.5t-40.5 12.5h-46l11 51h54q29 0 47.5 12.5t18.5 38.5q0 19 -16 32.5t-50 13.5q-29 0 -51 -13t-31 -35h-56q17 47 56.5 73t85.5 26q58 0 87.5 -29t29.5 -65q0 -23 -14 -48t-44 -38q27 -24 27 -59
q0 -22 -9 -42t-26.5 -35.5t-42 -25t-54.5 -9.5q-51 0 -84.5 25.5t-38.5 75.5h55z" />
    <glyph glyph-name="four.sub" horiz-adv-x="403" 
d="M332 183l-19 -92h59l-11 -51h-59l-16 -74h-55l16 74h-185l11 51l215 212h69l-215 -212h116l19 92h55z" />
    <glyph glyph-name="five.sub" horiz-adv-x="367" 
d="M126 60q4 -25 23 -37.5t47 -12.5q33 0 58 19.5t25 50.5q0 24 -18.5 41t-51.5 17q-19 0 -36 -6.5t-28 -16.5h-51l59 188h209l-11 -51h-165l-24 -77q11 6 28.5 9.5t32.5 3.5q22 0 42 -7t35.5 -20t24.5 -31.5t9 -41.5q0 -26 -10 -49t-28.5 -41t-44.5 -28.5t-57 -10.5
q-59 0 -89 29t-35 72h56z" />
    <glyph glyph-name="six.sub" horiz-adv-x="368" 
d="M308 219q-5 18 -22 29t-41 11q-36 0 -62 -27.5t-40 -65.5q16 11 36 17t41 6q50 0 80 -26.5t30 -68.5q0 -26 -10.5 -50.5t-29.5 -43.5t-45 -30t-57 -11q-49 0 -83 29t-34 88q0 39 11 80t33 75.5t55 56.5t77 22q48 0 79.5 -24.5t37.5 -66.5h-56zM210 138q-33 -1 -57.5 -20
t-24.5 -52q0 -26 17.5 -41t44.5 -15q16 0 31.5 5t27.5 15t19 23t7 30q0 25 -18 40.5t-47 14.5z" />
    <glyph glyph-name="seven.sub" horiz-adv-x="353" 
d="M103 252l11 51h248l-11 -50l-224 -287h-63l224 286h-185z" />
    <glyph glyph-name="eight.sub" horiz-adv-x="368" 
d="M300 133q16 -13 23 -29t7 -33q0 -24 -11 -44.5t-30 -35.5t-45 -23.5t-56 -8.5q-23 0 -45 6t-39 17.5t-27 28t-10 38.5q0 26 15 52t49 41q-15 11 -21.5 26.5t-6.5 31.5q0 23 10.5 43t29 35t43.5 23.5t55 8.5q56 0 86.5 -27t30.5 -63q0 -25 -14.5 -48.5t-43.5 -38.5z
M235 259q-30 0 -53 -14t-23 -39q0 -17 18 -30t49 -13q30 0 53 14t23 39q0 17 -18 30t-49 13zM204 112q-14 0 -28.5 -3.5t-26.5 -10.5t-19.5 -17.5t-7.5 -24.5q0 -20 19.5 -33t51.5 -13q14 0 28.5 3.5t26.5 10.5t19.5 18t7.5 25q0 20 -19.5 32.5t-51.5 12.5z" />
    <glyph glyph-name="nine.sub" horiz-adv-x="368" 
d="M124 50q5 -18 21 -29t40 -11q36 0 60.5 27.5t36.5 65.5q-16 -11 -36 -17t-41 -6q-50 0 -80 28t-30 70q0 26 10.5 50t29.5 42t45 29t57 11q49 0 83 -29t34 -88q0 -39 -10.5 -80t-31.5 -75.5t-53 -56.5t-76 -22q-48 0 -78.5 24.5t-36.5 66.5h56zM215 131q33 1 57.5 20
t24.5 52q0 26 -17.5 41t-44.5 15q-16 0 -31.5 -5t-27.5 -15t-19 -23.5t-7 -29.5q0 -25 18 -40.5t47 -14.5z" />
    <glyph glyph-name="Tcommaaccent" horiz-adv-x="595" 
d="M710 664l-14 -63h-237l-127 -601h-69l127 601h-237l14 63h543zM205 -204l69 86h-47l18 82h92l-19 -90l-64 -78h-49z" />
    <glyph glyph-name="tcommaaccent" horiz-adv-x="397" 
d="M316 588l-29 -136h159l-13 -60h-159l-49 -233q-2 -9 -4.5 -23t-2.5 -21q0 -29 20 -42t62 -13h62l-12 -60h-63q-72 0 -104.5 27.5t-32.5 72.5q0 16 5 41l53 251h-94l13 60h94l29 136h66zM139 -204l69 86h-47l18 82h92l-19 -90l-64 -78h-49z" />
    <glyph glyph-name="zero.numr" horiz-adv-x="383" 
d="M318 672q27 0 49 -10.5t37.5 -29t24 -43.5t8.5 -54q0 -21 -7 -57.5t-25.5 -71t-50.5 -60t-81 -25.5q-27 0 -49 10.5t-37.5 29t-24 43.5t-8.5 54q0 21 7 57.5t25.5 71t50.5 60t81 25.5zM275 372q27 0 47.5 16t33.5 40t19.5 51.5t6.5 49.5q0 16 -3.5 32.5t-11 30t-20 21.5
t-31.5 8q-27 0 -47.5 -16t-33.5 -40t-19.5 -51.5t-6.5 -49.5q0 -17 3.5 -33t11 -29.5t20 -21.5t31.5 -8z" />
    <glyph glyph-name="one.numr" horiz-adv-x="257" 
d="M247 604l-90 -65l14 65l83 61h61l-72 -337h-55z" />
    <glyph glyph-name="two.numr" horiz-adv-x="358" 
d="M311 501q23 16 38 32.5t15 38.5q0 23 -18 36t-44 13q-22 0 -44.5 -13t-31.5 -39h-58q7 22 21 41t32.5 33t40.5 21.5t45 7.5q54 0 83 -26t29 -65q0 -64 -69 -113l-122 -88h159l-11 -52h-244l11 52z" />
    <glyph glyph-name="three.numr" horiz-adv-x="358" 
d="M197 422q5 -25 24.5 -37.5t48.5 -12.5q34 0 53 17t19 40q0 19 -13.5 31.5t-40.5 12.5h-46l11 51h54q29 0 47.5 12.5t18.5 38.5q0 19 -16 32.5t-50 13.5q-29 0 -51 -13t-31 -35h-56q17 47 56.5 73t85.5 26q58 0 87.5 -29t29.5 -65q0 -23 -14 -48t-44 -38q27 -24 27 -59
q0 -22 -9 -42t-26.5 -35.5t-42 -25t-54.5 -9.5q-51 0 -84.5 25.5t-38.5 75.5h55z" />
    <glyph glyph-name="four.numr" horiz-adv-x="403" 
d="M408 545l-19 -92h59l-11 -51h-59l-16 -74h-55l16 74h-185l11 51l215 212h69l-215 -212h116l19 92h55z" />
    <glyph glyph-name="five.numr" horiz-adv-x="367" 
d="M202 422q4 -25 23 -37.5t47 -12.5q33 0 58 19.5t25 50.5q0 24 -18.5 41t-51.5 17q-19 0 -36 -6.5t-28 -16.5h-51l59 188h209l-11 -51h-165l-24 -77q11 6 28.5 9.5t32.5 3.5q22 0 42 -7t35.5 -20t24.5 -31.5t9 -41.5q0 -26 -10 -49t-28.5 -41t-44.5 -28.5t-57 -10.5
q-59 0 -89 29t-35 72h56z" />
    <glyph glyph-name="six.numr" horiz-adv-x="368" 
d="M384 581q-5 18 -22 29t-41 11q-36 0 -62 -27.5t-40 -65.5q16 11 36 17t41 6q50 0 80 -26.5t30 -68.5q0 -26 -10.5 -50.5t-29.5 -43.5t-45 -30t-57 -11q-49 0 -83 29t-34 88q0 39 11 80t33 75.5t55 56.5t77 22q48 0 79.5 -24.5t37.5 -66.5h-56zM286 500q-33 -1 -57.5 -20
t-24.5 -52q0 -26 17.5 -41t44.5 -15q16 0 31.5 5t27.5 15t19 23t7 30q0 25 -18 40.5t-47 14.5z" />
    <glyph glyph-name="seven.numr" horiz-adv-x="353" 
d="M179 614l11 51h248l-11 -50l-224 -287h-63l224 286h-185z" />
    <glyph glyph-name="eight.numr" horiz-adv-x="368" 
d="M376 495q16 -13 23 -29t7 -33q0 -24 -11 -44.5t-30 -35.5t-45 -23.5t-56 -8.5q-23 0 -45 6t-39 17.5t-27 28t-10 38.5q0 26 15 52t49 41q-15 11 -21.5 26.5t-6.5 31.5q0 23 10.5 43t29 35t43.5 23.5t55 8.5q56 0 86.5 -27t30.5 -63q0 -25 -14.5 -48.5t-43.5 -38.5z
M311 621q-30 0 -53 -14t-23 -39q0 -17 18 -30t49 -13q30 0 53 14t23 39q0 17 -18 30t-49 13zM280 474q-14 0 -28.5 -3.5t-26.5 -10.5t-19.5 -17.5t-7.5 -24.5q0 -20 19.5 -33t51.5 -13q14 0 28.5 3.5t26.5 10.5t19.5 18t7.5 25q0 20 -19.5 32.5t-51.5 12.5z" />
    <glyph glyph-name="nine.numr" horiz-adv-x="368" 
d="M200 412q5 -18 21 -29t40 -11q36 0 60.5 27.5t36.5 65.5q-16 -11 -36 -17t-41 -6q-50 0 -80 28t-30 70q0 26 10.5 50t29.5 42t45 29t57 11q49 0 83 -29t34 -88q0 -39 -10.5 -80t-31.5 -75.5t-53 -56.5t-76 -22q-48 0 -78.5 24.5t-36.5 66.5h56zM291 493q33 1 57.5 20
t24.5 52q0 26 -17.5 41t-44.5 15q-16 0 -31.5 -5t-27.5 -15t-19 -23.5t-7 -29.5q0 -25 18 -40.5t47 -14.5z" />
    <glyph glyph-name="zero.dnom" horiz-adv-x="375" 
d="M248 345q27 0 49 -10.5t37.5 -29t24 -43.5t8.5 -54q0 -21 -7 -57.5t-25.5 -71t-50.5 -60t-81 -25.5q-27 0 -49 10.5t-37.5 29t-24 43.5t-8.5 54q0 21 7 57.5t25.5 71t50.5 60t81 25.5zM205 45q27 0 47.5 16t33.5 40t19.5 51.5t6.5 49.5q0 16 -3.5 32.5t-11 30t-20 21.5
t-31.5 8q-27 0 -47.5 -16t-33.5 -40t-19.5 -51.5t-6.5 -49.5q0 -17 3.5 -33t11 -29.5t20 -21.5t31.5 -8z" />
    <glyph glyph-name="one.dnom" horiz-adv-x="257" 
d="M177 277l-90 -65l14 65l83 61h61l-72 -337h-55z" />
    <glyph glyph-name="two.dnom" horiz-adv-x="358" 
d="M241 174q23 16 38 32.5t15 38.5q0 23 -18 36t-44 13q-22 0 -44.5 -13t-31.5 -39h-58q7 22 21 41t32.5 33t40.5 21.5t45 7.5q54 0 83 -26t29 -65q0 -64 -69 -113l-122 -88h159l-11 -52h-244l11 52z" />
    <glyph glyph-name="three.dnom" horiz-adv-x="358" 
d="M127 95q5 -25 24.5 -37.5t48.5 -12.5q34 0 53 17t19 40q0 19 -13.5 31.5t-40.5 12.5h-46l11 51h54q29 0 47.5 12.5t18.5 38.5q0 19 -16 32.5t-50 13.5q-29 0 -51 -13t-31 -35h-56q17 47 56.5 73t85.5 26q58 0 87.5 -29t29.5 -65q0 -23 -14 -48t-44 -38q27 -24 27 -59
q0 -22 -9 -42t-26.5 -35.5t-42 -25t-54.5 -9.5q-51 0 -84.5 25.5t-38.5 75.5h55z" />
    <glyph glyph-name="four.dnom" horiz-adv-x="403" 
d="M338 218l-19 -92h59l-11 -51h-59l-16 -74h-55l16 74h-185l11 51l215 212h69l-215 -212h116l19 92h55z" />
    <glyph glyph-name="five.dnom" horiz-adv-x="367" 
d="M132 95q4 -25 23 -37.5t47 -12.5q33 0 58 19.5t25 50.5q0 24 -18.5 41t-51.5 17q-19 0 -36 -6.5t-28 -16.5h-51l59 188h209l-11 -51h-165l-24 -77q11 6 28.5 9.5t32.5 3.5q22 0 42 -7t35.5 -20t24.5 -31.5t9 -41.5q0 -26 -10 -49t-28.5 -41t-44.5 -28.5t-57 -10.5
q-59 0 -89 29t-35 72h56z" />
    <glyph glyph-name="six.dnom" horiz-adv-x="368" 
d="M314 254q-5 18 -22 29t-41 11q-36 0 -62 -27.5t-40 -65.5q16 11 36 17t41 6q50 0 80 -26.5t30 -68.5q0 -26 -10.5 -50.5t-29.5 -43.5t-45 -30t-57 -11q-49 0 -83 29t-34 88q0 39 11 80t33 75.5t55 56.5t77 22q48 0 79.5 -24.5t37.5 -66.5h-56zM216 173q-33 -1 -57.5 -20
t-24.5 -52q0 -26 17.5 -41t44.5 -15q16 0 31.5 5t27.5 15t19 23t7 30q0 25 -18 40.5t-47 14.5z" />
    <glyph glyph-name="seven.dnom" horiz-adv-x="353" 
d="M109 287l11 51h248l-11 -50l-224 -287h-63l224 286h-185z" />
    <glyph glyph-name="eight.dnom" horiz-adv-x="368" 
d="M306 168q16 -13 23 -29t7 -33q0 -24 -11 -44.5t-30 -35.5t-45 -23.5t-56 -8.5q-23 0 -45 6t-39 17.5t-27 28t-10 38.5q0 26 15 52t49 41q-15 11 -21.5 26.5t-6.5 31.5q0 23 10.5 43t29 35t43.5 23.5t55 8.5q56 0 86.5 -27t30.5 -63q0 -25 -14.5 -48.5t-43.5 -38.5z
M241 294q-30 0 -53 -14t-23 -39q0 -17 18 -30t49 -13q30 0 53 14t23 39q0 17 -18 30t-49 13zM210 147q-14 0 -28.5 -3.5t-26.5 -10.5t-19.5 -17.5t-7.5 -24.5q0 -20 19.5 -33t51.5 -13q14 0 28.5 3.5t26.5 10.5t19.5 18t7.5 25q0 20 -19.5 32.5t-51.5 12.5z" />
    <glyph glyph-name="nine.dnom" horiz-adv-x="368" 
d="M130 85q5 -18 21 -29t40 -11q36 0 60.5 27.5t36.5 65.5q-16 -11 -36 -17t-41 -6q-50 0 -80 28t-30 70q0 26 10.5 50t29.5 42t45 29t57 11q49 0 83 -29t34 -88q0 -39 -10.5 -80t-31.5 -75.5t-53 -56.5t-76 -22q-48 0 -78.5 24.5t-36.5 66.5h56zM221 166q33 1 57.5 20
t24.5 52q0 26 -17.5 41t-44.5 15q-16 0 -31.5 -5t-27.5 -15t-19 -23.5t-7 -29.5q0 -25 18 -40.5t47 -14.5z" />
    <glyph glyph-name="zero.tnum" 
d="M326 -13q-60 0 -100.5 23t-65 60t-34.5 83t-10 92q0 44 8.5 93t25 97t41.5 91.5t59 77t76.5 53.5t93.5 20q60 0 100.5 -23t65 -60t34.5 -83t10 -92q0 -43 -8.5 -92t-25 -97t-41.5 -92t-59 -77.5t-76.5 -53.5t-93.5 -20zM185 239q0 -36 7 -70t23.5 -60.5t44 -42.5
t68.5 -16q44 0 78 20.5t60 53t44 73.5t29.5 82.5t16.5 80t5 65.5q0 36 -7 70t-23.5 60.5t-44 42.5t-68.5 16q-44 0 -78 -20.5t-60 -53t-44 -73.5t-29.5 -82.5t-16.5 -80t-5 -65.5z" />
    <glyph glyph-name="one.tnum" 
d="M310 63l110 520l-172 -129l19 88l167 122h73l-128 -601h157l-13 -63h-394l13 63h168z" />
    <glyph glyph-name="two.tnum" 
d="M179 495q11 39 34.5 72t55.5 57.5t70 38t79 13.5q46 0 84 -12.5t65.5 -35.5t42.5 -54.5t15 -68.5t-11.5 -67.5t-31 -57t-45.5 -50t-55 -46.5l-278 -221h341l-13 -63h-443l14 63l342 270q19 15 38.5 32t36 36.5t27 42.5t10.5 51q0 55 -39 87t-102 32q-25 0 -50 -8
t-47.5 -23t-41 -37.5t-29.5 -50.5h-69v0z" />
    <glyph glyph-name="three.tnum" 
d="M178 155q15 -57 57 -81t102 -24q34 0 64 10.5t52 29.5t34.5 46t12.5 59q0 51 -36 82.5t-99 31.5h-75l13 62h98q31 0 59.5 8.5t50.5 25.5t35 42.5t13 59.5q0 48 -40 77.5t-106 29.5q-24 0 -48 -6.5t-46.5 -19.5t-41 -33t-30.5 -47h-69q15 45 41 77t59 52.5t69.5 30
t72.5 9.5q52 0 91 -13.5t65 -36.5t39 -52.5t13 -62.5q0 -23 -5.5 -47t-19 -48t-37 -46.5t-58.5 -40.5q35 -30 48 -62t13 -64q0 -43 -16.5 -82.5t-47 -69.5t-74.5 -47.5t-99 -17.5q-43 0 -80.5 10t-66.5 31t-49 52.5t-27 74.5h69z" />
    <glyph glyph-name="four.tnum" 
d="M577 425l-47 -219h118l-13 -63h-118l-30 -143h-69l30 143h-367l13 63l425 458h83l-425 -458h284l47 219h69z" />
    <glyph glyph-name="five.tnum" 
d="M182 145q14 -47 57 -71t96 -24q38 0 72 14t59.5 38.5t40.5 57.5t15 72q0 28 -10.5 53t-30.5 43.5t-48 29t-62 10.5q-82 0 -140 -55h-75l112 351h374l-14 -63h-314l-65 -205q23 14 56.5 24.5t73.5 10.5t78 -12.5t68 -37.5t48 -62t18 -85t-19 -92t-53.5 -78.5t-82 -55
t-103.5 -20.5q-46 0 -84 12.5t-67 34t-47.5 50t-25.5 60.5h73z" />
    <glyph glyph-name="six.tnum" 
d="M395 421q40 0 77.5 -13.5t66 -39t45.5 -61.5t17 -81q0 -46 -20 -89t-54.5 -76.5t-81.5 -53.5t-101 -20q-48 0 -88 14t-68.5 42.5t-44.5 72t-16 102.5q0 50 9.5 103t28 104t46.5 97t64.5 80.5t82 54.5t99.5 20q83 0 133.5 -38t68.5 -107h-64q-14 41 -52 61.5t-89 20.5
q-38 0 -75.5 -16.5t-70 -49.5t-58 -82.5t-39.5 -115.5q29 32 76.5 51.5t107.5 19.5zM346 50q34 0 67.5 12.5t60 34.5t42.5 53t16 69q0 30 -12 55.5t-32.5 44t-48 28.5t-58.5 10q-34 0 -66.5 -12t-58.5 -34.5t-42 -54t-16 -70.5q0 -30 12 -55t32 -43t47 -28t57 -10z" />
    <glyph glyph-name="seven.tnum" 
d="M227 601l14 63h431l-14 -63l-440 -601h-78l444 601h-357z" />
    <glyph glyph-name="eight.tnum" 
d="M651 511q0 -22 -5.5 -45.5t-20 -47t-38.5 -45.5t-61 -41q41 -32 54 -65.5t13 -65.5q0 -41 -18 -79.5t-52 -68.5t-83.5 -48t-112.5 -18q-44 0 -83.5 12t-69.5 34.5t-47.5 55t-17.5 72.5q0 22 6.5 48t22 51.5t41.5 48.5t66 41q-37 29 -50.5 59.5t-13.5 63.5q0 40 17 77
t50 65t80.5 45t108.5 17q52 0 92 -14t67 -37t41 -53t14 -62zM336 50q39 0 73 10.5t59.5 30t40.5 46t15 59.5q0 27 -13 48t-35 35t-50.5 21.5t-59.5 7.5q-39 0 -73 -10.5t-59.5 -30t-40.5 -46t-15 -59.5q0 -27 13 -48t35 -35t50.5 -21.5t59.5 -7.5zM429 614q-35 0 -68 -9
t-58.5 -26.5t-40.5 -43t-15 -57.5q0 -49 43.5 -78t112.5 -29q35 0 68 9.5t58.5 27t40.5 43t15 57.5q0 49 -43.5 77.5t-112.5 28.5z" />
    <glyph glyph-name="nine.tnum" 
d="M362.047 257.052q-39.9941 0 -77.4902 13.498q-37.4951 13.498 -65.9922 38.9951q-28.4961 25.4971 -45.4941 61.4922q-16.998 35.9961 -16.998 80.9902q0 45.9941 19.998 88.9893q19.9971 42.9951 54.4932 76.4912q34.4961 33.4951 81.4902 53.4932
q46.9941 19.9971 100.987 19.9971q47.9941 0 87.9893 -13.998t68.4922 -42.4951q28.4961 -28.4961 44.4941 -71.9912q15.998 -43.4941 15.998 -102.487q0 -49.9932 -9.49902 -102.987q-9.49902 -52.9932 -27.9961 -103.987q-18.498 -50.9932 -46.4941 -96.9883
q-27.9971 -45.9941 -64.4922 -80.4902q-36.4961 -34.4951 -81.9902 -54.4932q-45.4941 -19.9971 -99.4883 -19.9971q-82.9893 0 -133.483 37.9951t-68.4912 106.986h63.9922q13.998 -40.9941 51.9932 -61.4922q37.9951 -20.4971 88.9893 -20.4971q37.9951 0 75.4902 16.498
q37.4961 16.498 69.9922 49.4932q32.4961 32.9961 57.9922 82.4902q25.4971 49.4941 39.4961 115.486q-28.9971 -31.9961 -76.4912 -51.4941q-47.4941 -19.4971 -107.487 -19.4971zM411.041 628.006q-33.9951 0 -67.4912 -12.498q-33.4961 -12.499 -59.9932 -34.4961
q-26.4961 -21.9971 -42.4941 -52.9932t-15.998 -68.9922q0 -29.9961 11.998 -55.4932q11.999 -25.4961 32.4961 -43.9941q20.498 -18.498 47.9941 -28.4971q27.4971 -9.99805 58.4932 -9.99805q33.9951 0 66.4912 11.998q32.4961 11.999 58.4932 34.4961t41.9951 53.9932
t15.998 70.4912q0 29.9971 -11.999 54.9932q-11.998 24.9971 -31.9961 42.9951q-19.9971 17.998 -46.9941 27.9971q-26.9961 9.99805 -56.9932 9.99805z" />
    <glyph glyph-name="dollar.tnum" 
d="M445 355q75 -14 118 -53.5t43 -101.5q0 -38 -17 -74.5t-49.5 -66.5t-80 -49.5t-108.5 -22.5h-11l-27 -119h-69l27 125q-39 7 -69 25.5t-51 41.5t-34 48t-18 47h74q15 -44 56.5 -74.5t112.5 -30.5q42 0 77.5 11.5t62 31.5t41 47t14.5 59q0 41 -34.5 62t-98.5 33l-85 16
q-69 13 -106.5 53t-37.5 94q0 47 18 86t50.5 67.5t76.5 45.5t96 20l25 119h69l-25 -122q40 -6 71.5 -23.5t54 -41.5t36 -50.5t19.5 -49.5h-73q-14 43 -56.5 74.5t-108.5 31.5q-44 0 -78.5 -13t-58 -34.5t-35.5 -48.5t-12 -55q0 -39 29.5 -60t77.5 -30l94 -18v0z" />
    <glyph glyph-name="Euro.tnum" 
d="M620 508q-17 48 -50.5 77t-94.5 29q-69 0 -128.5 -46.5t-92.5 -129.5h261l-36 -63h-246q-5 -20 -8 -40t-5 -42h223l-36 -63h-187q5 -84 49 -132t119 -48q57 0 96.5 26.5t71.5 79.5h74q-42 -81 -104.5 -125t-139.5 -44q-52 0 -94 17.5t-72 50t-48 77t-21 98.5h-84l14 63
h70q3 43 12 82h-65l14 63h69q20 54 52 98.5t71.5 75.5t84.5 48t92 17q43 0 77.5 -12.5t61 -35t44.5 -53.5t29 -68h-73z" />
    <glyph glyph-name="sterling.tnum" 
d="M79 63q44 2 73 25t37 63l31 149h-93l14 63h93l25 119q9 43 27.5 79t47 61.5t67 40t86.5 14.5q39 0 70 -14t53.5 -36.5t35.5 -49.5t15 -54h-68q-7 42 -36.5 66.5t-74.5 24.5q-61 0 -100.5 -35.5t-52.5 -98.5l-25 -117h200l-14 -63h-200l-33 -155q-3 -12 -7 -25.5
t-10.5 -25t-15.5 -20t-20 -11.5h362l-13 -63h-487z" />
    <glyph glyph-name="yen.tnum" 
d="M655 664h77l-214 -263h105l-14 -63h-142l-67 -82h192l-13 -63h-194l-41 -193h-69l41 193h-193l13 63h191l-32 82h-142l14 63h104l-100 263h69l132 -349z" />
    <glyph glyph-name="uni20BD.tnum" 
d="M685 493q0 -46 -17 -84.5t-47.5 -66.5t-73 -43.5t-92.5 -15.5h-192l-17 -82h264l-13 -63h-265l-29 -138h-69l29 138h-92l13 63h93l17 82h-92l13 63h93l67 318h224q48 0 83 -15t58 -39.5t34 -55t11 -61.5zM276 346h183q33 0 62 9.5t50 27.5t33 44.5t12 60.5q0 49 -33.5 81
t-93.5 32h-158z" />
    <glyph glyph-name="uni20B4.tnum" 
d="M211 230q-6 -13 -10 -28.5t-4 -31.5q0 -25 10 -47t28.5 -38t45.5 -25.5t60 -9.5q66 0 114 31.5t77 83.5h71q-15 -32 -37.5 -63.5t-54 -57t-72.5 -41.5t-92 -16q-57 0 -98.5 15t-68.5 40t-39.5 57t-12.5 65q0 14 2 31.5t8 34.5h-73l14 63h578l-14 -63h-432zM561 438
q22 28 22 67q0 22 -9.5 42t-27.5 35t-44.5 23.5t-60.5 8.5q-66 0 -109.5 -33.5t-68.5 -82.5h-75q11 29 32.5 60.5t53.5 58t73.5 43.5t93.5 17q49 0 88 -13t66.5 -35.5t42 -53t14.5 -65.5q0 -18 -5 -37t-13 -35h54l-14 -63h-578l14 63h451z" />
    <glyph glyph-name="uni20B8.tnum" 
d="M661 519l-14 -63h-207l-96 -456h-69l96 456h-207l14 63h483zM195 601l14 63h483l-14 -63h-483z" />
    <glyph glyph-name="cent.tnum" 
d="M525 331q-16 32 -50 53t-82 21q-39 0 -73.5 -16.5t-61 -45t-41.5 -66t-15 -79.5q0 -31 10.5 -58.5t29.5 -48t46 -32.5t60 -12q46 0 83 19.5t60 54.5h71q-33 -67 -91.5 -100t-124.5 -34l-23 -107h-66l25 115q-67 18 -106.5 72t-39.5 126q0 55 20 103t53.5 84t78 58
t93.5 26l23 109h66l-24 -112q56 -11 95 -45t55 -85h-71z" />
    <glyph glyph-name="circumflex.cap" horiz-adv-x="488" 
d="M392 869h72l113 -151h-70l-83 103l-127 -103h-82z" />
    <glyph glyph-name="dieresis.cap" horiz-adv-x="367" 
d="M399 828h80l-18 -86h-80zM238 828h80l-18 -86h-80z" />
    <glyph glyph-name="acute.cap" horiz-adv-x="333" 
d="M457 869l-163 -151h-82l163 151h82z" />
    <glyph glyph-name="grave.cap" horiz-adv-x="333" 
d="M322 869l99 -151h-73l-99 151h73z" />
    <glyph glyph-name="ring.cap" horiz-adv-x="381" 
d="M351 702q-26 0 -47 9.5t-36 25.5t-23.5 37t-8.5 45q0 30 12 55t32.5 44t46.5 29.5t54 10.5q26 0 47 -9.5t36 -25t23.5 -36.5t8.5 -45q0 -30 -12.5 -55.5t-32.5 -44t-46 -29.5t-54 -11zM357 760q15 0 29.5 6t26 16.5t18.5 24.5t7 31q0 26 -17 44t-46 18q-15 0 -29.5 -5.5
t-26 -16t-18.5 -24.5t-7 -31q0 -26 17 -44.5t46 -18.5z" />
    <glyph glyph-name="caron.cap" horiz-adv-x="488" 
d="M432 718h-72l-113 151h70l83 -103l127 103h82z" />
    <glyph glyph-name="dotaccent.cap" horiz-adv-x="201" 
d="M241 838h75l-18 -81h-75z" />
    <glyph glyph-name="breve.cap" horiz-adv-x="468" 
d="M590 869q-20 -68 -70 -109.5t-119 -41.5q-39 0 -68.5 13t-50 34.5t-30.5 48.5t-8 55h61q-1 -16 4.5 -32t18 -29t31 -21t43.5 -8q46 0 78.5 26t47.5 64h62z" />
    <glyph glyph-name="hungarumlaut.cap" horiz-adv-x="471" 
d="M592 869l-163 -151h-76l163 151h76zM454 869l-163 -151h-76l163 151h76z" />
    <glyph glyph-name="tilde.cap" horiz-adv-x="494" 
d="M487 779q48 0 68 90h60q-14 -68 -46.5 -109.5t-83.5 -41.5q-27 0 -45.5 14t-34.5 31t-30 31t-32 14q-49 0 -68 -90h-60q14 68 46.5 109.5t83.5 41.5q27 0 45.5 -14t34.5 -31t30 -31t32 -14z" />
    <glyph glyph-name="macron.cap" horiz-adv-x="462" 
d="M569 800l-13 -61h-336l13 61h336z" />
    <glyph glyph-name="cyrbreve.cap" horiz-adv-x="488" 
d="M305 872q-2 -42 25.5 -73t74.5 -31q23 0 45.5 8.5t42 22.5t34 33t22.5 40h65q-9 -33 -29 -63t-48 -52.5t-62.5 -36t-72.5 -13.5q-37 0 -67.5 13.5t-52 36t-31.5 52.5t-7 63h61z" />
    <glyph glyph-name="a.ss03" horiz-adv-x="593" 
d="M606 452l-96 -452h-66l11 52q-12 -12 -28.5 -23.5t-37 -21t-43.5 -15t-48 -5.5q-51 0 -89.5 17t-64.5 45t-39 65t-13 76q0 54 18.5 103.5t52.5 88t81.5 61t105.5 22.5q33 0 61 -8t49.5 -20.5t37.5 -29t25 -33.5l17 78h66zM158 194q0 -36 11 -63.5t30.5 -46t46 -28
t56.5 -9.5q40 0 75.5 17.5t61.5 46.5t41 67.5t15 79.5q0 36 -11.5 63.5t-31 46t-45.5 28t-56 9.5q-41 0 -76 -17.5t-61 -47t-41 -67.5t-15 -79z" />
    <glyph glyph-name="aacute.ss03" horiz-adv-x="593" 
d="M600 696l-167 -171h-82l167 171h82zM606 452l-96 -452h-66l11 52q-12 -12 -28.5 -23.5t-37 -21t-43.5 -15t-48 -5.5q-51 0 -89.5 17t-64.5 45t-39 65t-13 76q0 54 18.5 103.5t52.5 88t81.5 61t105.5 22.5q33 0 61 -8t49.5 -20.5t37.5 -29t25 -33.5l17 78h66zM158 194
q0 -36 11 -63.5t30.5 -46t46 -28t56.5 -9.5q40 0 75.5 17.5t61.5 46.5t41 67.5t15 79.5q0 36 -11.5 63.5t-31 46t-45.5 28t-56 9.5q-41 0 -76 -17.5t-61 -47t-41 -67.5t-15 -79z" />
    <glyph glyph-name="agrave.ss03" horiz-adv-x="593" 
d="M353 696l94 -171h-70l-94 171h70zM606 452l-96 -452h-66l11 52q-12 -12 -28.5 -23.5t-37 -21t-43.5 -15t-48 -5.5q-51 0 -89.5 17t-64.5 45t-39 65t-13 76q0 54 18.5 103.5t52.5 88t81.5 61t105.5 22.5q33 0 61 -8t49.5 -20.5t37.5 -29t25 -33.5l17 78h66zM158 194
q0 -36 11 -63.5t30.5 -46t46 -28t56.5 -9.5q40 0 75.5 17.5t61.5 46.5t41 67.5t15 79.5q0 36 -11.5 63.5t-31 46t-45.5 28t-56 9.5q-41 0 -76 -17.5t-61 -47t-41 -67.5t-15 -79z" />
    <glyph glyph-name="acircumflex.ss03" horiz-adv-x="593" 
d="M606 452l-96 -452h-66l11 52q-12 -12 -28.5 -23.5t-37 -21t-43.5 -15t-48 -5.5q-51 0 -89.5 17t-64.5 45t-39 65t-13 76q0 54 18.5 103.5t52.5 88t81.5 61t105.5 22.5q33 0 61 -8t49.5 -20.5t37.5 -29t25 -33.5l17 78h66zM158 194q0 -36 11 -63.5t30.5 -46t46 -28
t56.5 -9.5q40 0 75.5 17.5t61.5 46.5t41 67.5t15 79.5q0 36 -11.5 63.5t-31 46t-45.5 28t-56 9.5q-41 0 -76 -17.5t-61 -47t-41 -67.5t-15 -79zM406 696h75l108 -171h-69l-81 123l-132 -123h-80z" />
    </font>
</defs>
</svg>
